<mxfile host="app.diagrams.net" modified="2022-04-16T12:11:28.718Z" agent="5.0 (Windows NT 10.0; Win64; x64) AppleWebKit/537.36 (KHTML, like Gecko) Chrome/100.0.4896.88 Safari/537.36" etag="1zmYTf2bgXlK8-OkfgzV" version="17.4.5" type="github">
  <diagram id="AVAQTcgB4TbRkOEXMTwh" name="Page-1">
    <mxGraphModel dx="2232" dy="1538" grid="1" gridSize="10" guides="1" tooltips="1" connect="1" arrows="1" fold="1" page="1" pageScale="1" pageWidth="850" pageHeight="1100" math="1" shadow="0">
      <root>
        <mxCell id="0" />
        <mxCell id="1" parent="0" />
        <mxCell id="NLubATRqbXC5h6agIZ78-1" value="" style="shape=image;verticalLabelPosition=bottom;labelBackgroundColor=default;verticalAlign=top;aspect=fixed;imageAspect=0;image=data:image/jpeg,/9j/4AAQSkZJRgABAgAAAQABAAD/2wBDAAgGBgcGBQgHBwcJCQgKDBQNDAsLDBkSEw8UHRofHh0aHBwgJC4nICIsIxwcKDcpLDAxNDQ0Hyc5PTgyPC4zNDL/2wBDAQkJCQwLDBgNDRgyIRwhMjIyMjIyMjIyMjIyMjIyMjIyMjIyMjIyMjIyMjIyMjIyMjIyMjIyMjIyMjIyMjIyMjL/wAARCAMqBDgDASIAAhEBAxEB/8QAHwAAAQUBAQEBAQEAAAAAAAAAAAECAwQFBgcICQoL/8QAtRAAAgEDAwIEAwUFBAQAAAF9AQIDAAQRBRIhMUEGE1FhByJxFDKBkaEII0KxwRVS0fAkM2JyggkKFhcYGRolJicoKSo0NTY3ODk6Q0RFRkdISUpTVFVWV1hZWmNkZWZnaGlqc3R1dnd4eXqDhIWGh4iJipKTlJWWl5iZmqKjpKWmp6ipqrKztLW2t7i5usLDxMXGx8jJytLT1NXW19jZ2uHi4+Tl5ufo6erx8vP09fb3+Pn6/8QAHwEAAwEBAQEBAQEBAQAAAAAAAAECAwQFBgcICQoL/8QAtREAAgECBAQDBAcFBAQAAQJ3AAECAxEEBSExBhJBUQdhcRMiMoEIFEKRobHBCSMzUvAVYnLRChYkNOEl8RcYGRomJygpKjU2Nzg5OkNERUZHSElKU1RVVldYWVpjZGVmZ2hpanN0dXZ3eHl6goOEhYaHiImKkpOUlZaXmJmaoqOkpaanqKmqsrO0tba3uLm6wsPExcbHyMnK0tPU1dbX2Nna4uPk5ebn6Onq8vP09fb3+Pn6/9oADAMBAAIRAxEAPwDviKbTjz60nOcntXCdYjZpmDin85pMUWATp2pT+NLjkUlNAGM80DHPHPrQOc0Ec02AYzR04pcZPFIMikAdaaV7inj360AUAMwQOc0gU9cVIfWkPc07CuNNGOKXjFHrRYBuKKX6Uo7ZpgM74paXGOhpuOTQAEY6UYHWlGTSmk1cBPek6iil7U0Ag44ppp3fmlONo4pgR0lOIznmm0CHA4pRk03PIqQdKAE68U0j8adR0GTQAgFG3mnds0Z4oAYaMdqU0UwEINIBTyeKaMUgA0mBTj0pB1pDGkc0nSn45wKTGD0pgMxzTgMUppOcUCExzSEZHFO6mgnigCPoKCM04800/WkA2lHSkpQfWmAvU0YBoPWkzQAoHUU0gZzS570nJpAIcds0h6U7FJjmgZE1Ko9qeQKaQB0oEIRTMVLTeOtADCBjpSYp7CkIzTAZ14FBUYpxGKSgBlIVpx60h+tADCKSnEUYGKQyPpTT1NSHBpDimIjZcU3HBqQ8mmn8qQxnqKNvHWncGkPHegdyMrzxTTknGKdSZ9aQhg60H6dKXI3ChvWmAxuKYcnmnt1pp60AAFNPtTieKbmgBD1J70hPWjPtSHnigBjLnvSDpjFPPXtSHrQMaSQDSY4pfpQTQIQ9Og+tJgU71pKBiYHpR70pNHXigBhGQeAaUEYoIpOKADrx2oxnNBPYUuRUgNIwPek9SBwKdmkPJB/rQAbjim9eSKXHX+tJ+tAxOcFqAe470hPGOMUA/pTYhSSfrSHp/wDXpT69+tICC3fNIY4cH270HkcYz9KOOSeTQDg5xz3pDQ3r6Cjr9KUU04HqP50ALgY+lHQ0diaQ9z070APL8EHvTTgHA/QU3oefpQTjnj8KADdngGlHek4/+tQT60gF59SKCe9Nxyc/WlyAOKACjPPT6Umc9SPzo5GMUwF24BzQDyB6H0pOef50D29KADHegj279KcQScd6Q49OB37UgFPc/lmjeAOOaMZ4x2/Omn3+vHNADW/i7800DFOIzyfzoONgFACAg549qcenJJJ9T0pFHQdKXHTihgLgKMAHPU0gJJ+bgelHUc9aPX0pDHZOen4Uz7xzij8ad1xxz16UCEwPQZ9aT6CnHocelJkY9u1Axp+7z9eaKSimJnpnWkOKMjFJ75waqwhetLSA4FGaYhRSUmaP0phcMDNKaXHvxSEYFIBAeaXBpMYpee/SiwAPWgH60dqDweKBA3Sm0uKTmgLC8Y5pAD3oOc0UwA8UnelOc0lACnmkpc9qTPSgA70Z4pKM0wCjrRSfXpSADRRSE80xCHjOKizyRUh4ph60AKODUoNRCpF6UxC0vUUlKfakMTFKKKTPFMAI7UlFIeKAAjPFID2pDzRQA48miilPNIBpOKM45FBFIBQAMaOPrRikzQAFuelJnjrRjINNFAATTT1pxFN75oAUdKMUgp2aAE9u1NxjinH1pO9AB1pelJxQaAEz3o47UEU3OKBhnNBwKDz0NJQIKBR2pBQAZpOhp3WkNADDSHkUp7+1J1oAacZpDgUrDNJQA00nal7U3cfSgYhFNp3UZppoAQ9KTIpSaaBQIQ9TTWPHFK3DYzTaAG0hNKwpp56dKQDW4ozxRjNIeKBiE03rSnjtTe/c0ALmmnA59aU8EUh70ANz60g9fen9qafWgBPSmntilPWkzxmgYlHekJ4xijPrQAd6TH0ozyKCc0gFznpSDrxR+dJgegOOlMAzkelIOlLnp2oBwaQDaPwpeMmjpigA6U38aU8Uh655oGGRwcU0nHbr+lL/AJ60HAz0NIBrc+wpFGKU896ReOTQIdnCnn3puaXpycfjScE9qQx4z2/Gjpxj9KTIxx+lICOrfnigYvPpkfWk4obuQeKac5/HpTEL680d8UY96Q5A+bn1pAg5pD70YIY80YwOc0DEznPSlzSdf/10HqaAF3HuaCfTikxQOT60AHTkClAOMelAGR05pCSDxQAoyCePejvnsetIfp09aTFADwepBPT0ox0z69KYOOKUk9/ypAKdo445phbB75pc4PNIMZ5GaAE689z7UbiB703ueKX9KAHIcDkU4ZYnIGKapx16fWnE5PHTrQADtjilA68kU0n0P1pM859vzpAOGOSf070AheeM/wA6Zn14ox0z1oAfnPpn2pD04x+PSl3EDHX0FJn/APXQAHrnPFFJu6DHeimB6QDSmk7e1KcGqEIelKDx15o7daXigQ2ilxzRxTQhR0oJJ4oPtRweaYIKO3pRxQaQ2HvSgce9NNGcUCFNN7U7g89qWgYylo4/WjAoBje1JTvcUD6UxCHpSYp2KMYoENo7Ud/al4470wEFFKcYpPwpAN70UtJ0pjGkUxhzUlMPPWgQqipABimKaePagQdKcBRjNL0pjGmk6U7GetJjigQ3vS4oIIFIDQA3FLijNKTQAUnNHagY6UABpM0vWkzikMDTeppaKAEPFIRz0pTSdqAG8kU09aeDzTeKAEz6UmadimlcUALu4waWkxRTAKKTqaWgBD6UxqfTSc0gGk5pBz3pT1oNAB2pKO9JQAufQUyn5ppGaAG9qKPpQfWgAycU1qU00jmgYmaaadTaAE98UzPNPPFNagQ3nNJ0pRSE47UwGtyKYacTTSaQDT7im55pzHmmE80ABNJ160dqTrSADTT16UvTrTaBgfpTc5oJpM80AKTTfWjd26U3OB+FACk9aTOBSGj2oAQn64ppzjNLSfjSGGTxRjHJNGe9BPGKYB/Ok96CfekBIOOTSAUHmkPA5P40ZpPagBSfbFIOv0o3dsUjEYoAWk7Uh6UZFAxO3GKOf/r0p5ApOhyTSAO3Ham/h1pScjIpMDGeKLCAE4A5xS446mjH096McUDFxzSH0pccZ6/SmcZz+dADu9L3Gehpm4dM9KTOD1oAdnFJuOOKQnmkzjPP596Bjs5/OkLrnqABTVznmlwOtIQbuwp2eCe30puOmKCO3FIYhPPHSlzg80hPt9KCRjvimK4obvkCk3DqPyppGOlJ24H6UBccTwMAcUu7J4PNRjjOM4pc4PvQFxxJ/wAKXJ4IxzSDpyOKU9yBxQAEjGe9IGx6fj2oxnjpSHA6596QXA8nj9BSNkDPX2ozzx0FB4zmmNignHPHtT84AqMHJ/8Ar04EkZHB70gFz68880gJH40Zz3xSAe+aQDic9AfYCkLHPTpSgfgaCcY9KAA8jPX6U0Eg04k470D5s8/TBoAaSSeMY9KKUdSc0UwPSTxQuO9RZPrTt3HWqJJOD25pelRGQdaVXqhDyenpQGANNJ6jvTc5NAEgOaXpmot3PHanbyMUAh4OaM1HnFLvH40DuOPTikzTdwpVOc0CHA4o703cO1Gc9aQEnGKTHPBpiv1FBOB1pgOJwRijPrTQ4BpC2M0APPXpTSQKbuBpA2T7UCH+9J0FN3Uu6mA+kPFJuGBzzSHnpSAWk70gPNGaAEPWmdDinEj1pjMAe1MCQdacv1pimn54zQIWlzzTQ1LnmmApzR70nFJnNOwCk8000hNJmgBSfSim8UueetIBR0pcUwnik3UAP9qQikDZFGR3oGFGabnBpCeaAHGmnPajcCKaWFAmL0oNN3ClzQAo60pxTM4oLUhi8ZpD7UA8UmaYB06UGkzxzRkUAKOgpppTSE5GaQCYpKM0hPNMBDR2xRSd6AFHSm0E89KRjikAozSGjdzTSSaAA88e/em9qXJ59aaTQMKQ8UZFNznOKAAnPFIaRqZn1oEOY4phJNIevvSE4pgGeKYTzQWpuaAFJpp4NJupM5pAITxxSc0p470wn0oAU80lJnmkLc0hgelNPNJu65ozge9ABQcY49KTPOaMj1xSAT8qTqaC2aTNACnmmk+1BJPWkJoGH50Gk78YpM570xCnFA4PWm5pc7qQDsjpTc+gpM0A/lQMB3pc008HrQWweKBC7sHoKMcdabnjnFIDz34oGPzSYzjnim596UeuaADt7UdfejnpmjHvxQAvA4P4UEcA/wAqOabyByP/AK1AxcEev500gnpkU4npSfyxQwG4ox70uc+340m70oAU8AZoOPqKax7jr6Uce+cUWGGc9qXjpSZHXPFIOlKwrjiR1oBBppx1JGKCQB3pWGBGO4NJwTjHFB9etKMAgVViRQCAM4/DtTSMnr+FP/L6004x70WAAuRwKTYOR79qXOP/AK1AORQABe9Lt9R+PpSHAPb6UE5POBUsYMO5PNMJ4z2oOeCOnqKQ4Cc/TmgBACDS/pSj1I9sUuOcUCAD0NA+uB/Kndee9MIHTNAxSAScY/OjOPoaTj60fw560rBccvQDPFKfXnpg037vY56UdB6UDHcDjB5pMcDApOmOePY0E+lADgvI44opg5zmimB1y69B08mXPrjrimnX4OR5MlQLYx9duKJLIDGAD9RTuKxN/wAJDBgEwSkeoApx1+IMNsExB6cAVT+yAckcdwKlSBSA4QEEdwKLisSnxLDg5t5Rj0waG8RKq5Fs+33ODVf7EAzHaBSLbLjnBA7dKq6HYmfxKqJn7HMDx96kHiiIgFraQY6jIpPssb7TgjFRyaeDJkngjsKTYWJl8Sxt/wAuk3TnkcUf8JPGMf6LLj3IqqbAxn5DlSRye1KbJerqpyewoux2RaPiWNRn7HO3Pbb/AI0v/CSxdTazg++P8aqmzDtuB59BTGst3UqB6EZ4pXCyLq+JYSR/o8o9zikPiWPtayk/7PNVPsgiOVCsPp0/+tT0siX6DHp607hZFn/hJIFHNtNnPYil/wCEmgYjFtOBnknHT86rNZKzBSi4A+XIpv2AZxt4Hr0ouKxcXxLb4JMEwOewH+ND+JLcYJgnGfYf41U+yKSFIx9BSiyAA4G0dOOlFwsWh4jtnC4hmOe4A/xo/t+2HWKUH6CqYtEU/Kg+mPpSG0RlyFBIouHKXf8AhI7UNjyphnvtH+NI3iO2z/q5ceuB+dZktoCoYDBzznNC2iMoBVenJ9aLisjTXxJa7VJSb/vmnf8ACRWn9yXrgnbWYbaMkdf601LFS2ecDmi47I1T4jtFGdk3XptFL/wkVkWwRL/3x0rLNoo5WPHvmmmxQoAnTOTRcVkav/CQWWN373GOgSoJvE1hCNzGU49E6VQ+yAN0GR2xgVS1K0QWTts5yMc9KdxWOkTxBZlQcyYPqtOOvWak5LjH+z1rJtrcNEjAgHGSTVj7GC+5l6D86dxWL416zI+Vn69loXXrMj7zn/gBrNXT0JB2/Tn/AD6UosY9oG0jHSncdjTXXLIgktIMHHKGmnXrIDIkb6bD/hVAWK9G6ZyKbJYoDkLjj8qLhZGiNdscf61s+6Gm/wBv2DE7ZW/74NZxtGIy8anHGDTRaxPtAXGCRjFK4WNMa7Znne+P9w0HXrEHDOxPUYQ1nfYEc9M9h6/nTX0/aMYBUAfiaYWNH+3rItgO5/4Aaa2v2acnzT9ErMFiocHjA4xTxaIRg5JznBGP5UrhYvjxFZjoJT7Bc/1pv/CSWmcFJseu3rWd9jiaRh5YB6ccUySxjDE8+gOM0XCxqf8ACRWZ7SYzj7tA8QWbdPM4/wBg1kjTQvQcZ6g9qc9oAuNm4dQcdKLgbA1yyGcu3H+wTTH12wz/AKxzxnPlt/hWaloMZI68/SmSWcOcnPPGDRcLGmNfsNxHnNx1+Q0r69YohcyMAOvyN/hWStnHgNsU4FLLbRjJC7R6GlcLGkPEWnFtvnMf+2Z/wpx8Q6cQD5zc/wDTNv8ACsVLHzpAoX3z7VK2nJk/IB0+tHMFjVGvWLMQsrEr1+Sj+3rI/wATgf7hrHFhHk7UJA680rWW1yMHJPFO4WNb/hILHON7/wDfBpf7dsu0jkjqAhOKyhYFsgr16Y70/wCwBXOcYZucHtigLGgdesXPDyY94yKT+3LPA+aTH+4azZtORSCu4HPYfpSCxIUbuOT8p70BZGodcstp+eTP+4aYdfsMkeY+4dthqg1oMDC4I6VH9iXGWQBjjkGlcLGp/btj/ffkf3DxR/bdky5Duf8Atmayls1JyowT2xTls02g7B060cwWNI63aL1Z/wDvnrTf7cs2PWQfVDWZ9lbcQ3rj2IpZLJcccYpXCxo/23Zbc+acem00HW7MZ+aQD/rmayTZjOSzHvSfZdvrjpzzVBY1P7bsSOJG/wC+DTf7btD1d+e2w5rM+yjCnaP97+eaT7L8oJXjA6UBY0/7asgPvv8A98Gg6zZAH96xx/sGsryFwepHfmmC0XGAmeOuKm47GqdbscZ85icdNjf4U06zYnH75v8Avg/4Vm/ZkXIKjB/SkNsoAKjIz19adwsaI1qx3D962Semxv8ACkOs2eDh2z2+Q1neQp/5Z8nj14oNqOSQA3HB6UXFY0Bqts38TgepU1ENasj1lIHqUNZ80JZc8Y7461EtsFdjkn2Pai4WNf8Ati1wcOzY64U0n9r2hxiQ59ChGazkto2xuG1upp/2Vc9M9vSlcdi62rWucBz+Kmmf2tajq5zjJ+U1V+yKDnbzTPsaDnaM+uaXMFi4dWtBwZD/AN8mg6raf89W9vkb/CqYtV28jk0jWqgHA6+ozTuFi0NVtCceYR/wE0DVLTndIw9PkPNUTbgnG3g077OCDwMGi4WLa6paMwAkbP8Aumg6ja/89ufTB/wqkbRSOAR75pDaIe2MUrhYu/2lZjGZx+RoGo2nGZwc9MZPfFUvsaDjaAPQdKabVQBgADFO4WLx1G2/57Lx7GgalaHpOvTtmqP2ZTwRTWtFzjb1P5UgsaB1C1PSdc+nOaT7dbDnzk/PFUBarn0/Cj7Go/hXPqBRcLF5r+1A4nTj1pf7Qtd2PPUn2BrOSzBGGUHt0p32FA3HBoCxfGo2v/PZfyOKBfWuTi4Tpzz0qgbMZBB6Un2JQ2T6dMU0BfN/bZP+kKAKDeW4H+uQjp1qgLVMDI5z2o+yBT0xx1oCxdGoWuP9ev5GlN/bDIM6Ajg+1UGs1Y4IB9KQ2oxyPm9aEwL4v7Xn/SI/TlhThe2xzm4T0PNZgs0yWGc/WpFs1fCg9OeeaoC+b63H/LdMc+1NGo2xwPPXpmqDWKE4VRwTkj1pv2MBc9DSA0/ttuQcTp9c0n2y2zxcJ9QazhAjNhlGPbpThZKsgGQB9KEBfF7bngzL+tAvrUk/v4/zqg1pzxjPrUclimAGGf5igDR+3WmSPtMefTNL9rtywAnjz/vVlCwCkleD2oWzUoQepOeO1LQLM0xeW5/5apTft9sP+XiPj3rMFiGf5gCV/HNSG2UDCqPx5xTHYv8A2636eepJzgDvSC/teds6cVmPaLwxBBznik+ygHHH5VIGqb+128TKMdxSpfWzDKzp0zwcnj6VlfZFKkHgYwAKIrNVUhgM+wxQgNNr21BBE8efrj+dOF7bBd5mXv0PWss2QL8DOakis06bQcVQi+b+13EGdAfrSNf2y8ecvTqeBVNrDv8AhnvUE9iGjALE4PXHWgDTW+tif9cg788D0zml+32wOPPTI7VnQWIyCV4606SxAyRHwPfigRea/tyQPOUYGeuKUXtqQSJ0J4zzWXHbI6DcPoDTvsBbsvHtipHY0ReWxwFmQ554NBvbUD5pl9eD/Wsz7BsO4tz29qJLXCH19+1PQDUW5g8vPnJx1OfSj7ZCx+WVT7g5rNtLAyRksmfr/n9alktBvCgjnFOyAvm6gB5mQYGTk003VuWAE6HPfPas2SxZiVJBxzQLJC5YjPuev51LQaml9pgB+aVMA+tSfaIgSvmJx7iskWfB28g037Gc4AAHcU7Aa32iI5AkQn2I/wA96DKisP3iZ6j5s1lpZgqyhBgnJ461E9mN3KjOKmw7m19oQnO9Tnoc9aA6nIyAe2eKyPsowRgHjBx0qJrE796n3Oe5ppILm6HBXKsCR1x2orEWNgedw5zzRQFz0wsewOBU0YV0w3P9KEORgDrTtm3JGc1KKGTQjA2nBA6YpkS5B9R1q2rKVJbG70qSMJndgA1SEyuIw6EHmoWXBPFXSwD9RjtUcihnzjOe9NiTKYypA28ZqxhGAz+WaleFGYZwcfpTDGFOFpAyIxAfSmPGWJ4Xb9Kt+WAuTk0hVTjPFMaKowpBAAprKCwYgf8A1qndADUXcipAgYMH2gE59KsbCEAHU+9Phh3SBzkYqZlBbOOlFwIBH3Ip3l8YqYKPTNDDp2oAqvAc7wenbHWgZI5Aq0Rycc1CyZbrxSAZsCjIz6VG6cZzVkhWHH60zZ1z2oArrHnOQPpQ8CqvBznuamIApwUFetAWK0UKchiPwFIIVVcrk8881ZEeDyaXy+uBTEVxH8wBFSCJRzjrzUqrznFPK5oAz3QAZx+tU9QQ/YJWBPAzx6VrNEWOCOKz9VjI0y429dhpxETaavmWsRK4G0Y9+KvGPL8gYxVPS5BJp9r6mMcZq/8A8tFHbHSrQiMRheAKXapGMcVNtBwcU8KpHSgCv5WDwOKa0We2atEYpuBnPpQBUEGBz0qJkYSHOMA5HHrWgRxTGjyelAFHkE/zp4UEc+tSSQgNn1pFUikBCYgB0pdmccU/OTUyJhecUrDKrQgnd3pnlheoHTpirhHtURXuaAIcI4IxjPXtR5YUYHIp5QHpTlGcA0xWI1AHSmyxKwyTggVLt557cUkil1wGIoAqpFtfOcn2qcsmxgTweOnSlUhB056Uh5596QyNcdE+7TJIiWBPTGKsoATlh9KJFBXk0rjIlQBQPSmPH7nNSgHbzmjGRzSuAzjAyO/bvTW3diM/SpSevfFKNrdOfXFVcRC0cjKFYDIOQaVldlwcZHpU28Zx+dJKSdzAjAHINMCqIyeCDxSmDzO5BHPSnJnvj1pzMp+XrmpGQGBkOTjPXIpzMCORzT2RtnLEimmPb15oENC5X6Unln0OOlTqhcE+vHNGNvAAxnFOwEJhGCcU0xknrirPboRTWFAFcxdOnXFRMgXBVj1zjtVojjnrUezd8oOD296LgQKqOSdoH48UeQSccU44UkEc9MUquFz8pOfWkBEYGC4BLLULRttyFBGauPAHO5WII9qRQxbaR9fanYCmsYGDt4HGfSnPFuGSccVbMeflXJbGRk1WYHkEY780wIPKwD3XmmmAj5sgj6VYUAY46Cm9DgcZ7UmBHGuMD17U/Z82R0xng0/ZxkcGlAI56H1pDGEcdqYV9qlJ4GfzpBxUsCELj3GaaYzn0JqfbnHrRtAHPJoQFXYenUUuw4zipsU7afTimBWEYxz6UvlnbnPOfSpup9KTb6fhQBDtHUDmkKfNx2qbaQOeKQj6cUAQbPl4oCdBnjPSpelJnqSKAIWUDmhkHXPFSzKB35PPFICAB1BoHYiCmnYGSOo+lSAADpyacqAAEjtQBCE+p+vpRtHTHFTqADgU0oep70BYhMfGc45pQq8AjNSPlRgjAz+VMC5Hp70CsMYLhccACmGPI61ZVcD6UjHOTj3oHYgSEEDI57/WpdmOMg9s4xTirBSQcDrSfN7gmncA8kKCc7h24qIoC3HHrxUqqV4655qTIIOVyfencRF5AUg7Rj6VHtyaslzjAA/GozweeaLjQx1+UKeT7VEV57EVMee4xQcdMVIEGwPxjp3o8vDd+akYZ9Kf5ZIAByaYEIXBwP0ppRcD1+tThOzAUSR/LgDBx/nNAFQoTkYAzShPUcU9ySM4z9KUjaOc56jNADRGhVmJxzTliy2ccfzqVCHTDL19Keq4JGOgzTsBWePEoIxgnpT1VM5qRlJb5l5FPUDpnt2piIyue4qKdBuz2q3tPOD+VQSoSBnPtTYhmcEcFcVLsCjAz+VO2qwAYZGOOaXKqmMdBQBUliw5fbkHrinAfJ8vT1qz8rNkg4x2PtUYiwcKfb6VLQ7kJjwetRyrtB44qw0bA5zxUVyAImbn5VyKLAOtzmNd2Rj1NOVS059hx6VJACI0I5GMHv70yEl72YAcL156UJCEkjx2wPrmo9o4xz74q1IpHT8ajCDuPx9aljsRGPYPr2pApY5OfwqUqGGeh7UuzHQ/hRcdiNsA4xxzj6U0Rhzg9h1xUmeCMD3peoyOKGwsQNCVbk9+KTy8GpmIycde1OVBjdQBVaPdx+uKKueRkZGKKYHcpGB35qUDjpSEjPANAOACKgY104BHFLEMNk8H0qOSXcAOlCOxlRexOKpCJJuR0qSDDQYPPPSlkUlMDoOTmkCuowBxVIkQwkKSGwfQUwbshiTxThHtUlcZPpTFbkd6TGiTczDgY96XbnrQCOOetKTxU3KInUEgk1GIC8mAOKn4J/Cn/dwRjmgQ10CJjPNNI7VKSCKYw44/CmIavANA578+lRuzDgDmoxuPJ65pFE5OffNMKkknpQuQvOfrQecc0CGgkHB/SnrzyaYW5oDEHIzTFcc0a9RmmkNnGOKkD9AwwPWlZRk8kY6UhkYB60ZHfpSNERzuOD2pUwRTAfjPIprkHilfdgbTx6VCrZI56UCJM4FU75N9nOvqjDOfarLPjjGahkG5CM9RQtwKmhzI+nW4C42oMnHFa4Cm4TjPBOTXM6LL5WnQqMlsnOevWuihcSTQ4ByA3HfpWhJYPtjI7CiNwSVIORTUxvJ3EZ9e9TbVySAMk5NIYhb86Yy//qp8mcjApgBLZz370wsP2/L0ppGM5PWnnpSMAQOKBFeRCckDOKFAVeSOmc09uh7cVAOpz8w7UhimPkcY70/pxQe560mPn5oAMe1NKEn0Ap+Pr1pOc0gI9mPYGkCggn8qkIz60hJ27TjHYigBjJxnYRjv6UzCkAEHnoRUwkCoRncTxiocJvGMDFAWGPFkjaOf1pHBGBjvU6gLzvB7c0yYZ6HpQwGFhgdCP50KyFSSc0wBeh6UqBQeelSAoGGzn6UuOfWkbGfl9KMj8aAAqGznIOMCmRqMdcnuelPbk89B/OmqgVhl+opjF2Y5yeaJXj8tgcgAdacRgDBP41FMiuhGTRcQ14Aillzn07U1QSeevWpC+UHOSB0qJSW6HBFIY/GAODxSlexFLyrY6++KU5PWmIQFgDim4ZjyBj1p3PUZFBHOQaLjGtwBg0mM/e/U0/PPamkZ/wAaYCMPT/8AVULxkHI5qQ4Hf6U3JLZpAMMTuOXGfeoQSr+h6VZbDjBHFRmJQR1OD1oEKgJJLMRnoalbaONwYD0ph+YhR0FNeFUw2Mc54NUgG4UNuVSQD602RJedpxx0NPSZFbk49KcSrfMDkH0NAFeQbQB36moGAUkjg5xVl1ZumCBUDqBjJ75qWAjt7bSOoppYk5B+lSHawHvTQigAZOR2NFhicEcnA9aTgHNOOPoKbtApMBSPTik4BxSijFIYnejgcgfWkJ9TRyeaYhPw+tGDzS9DRzj3oGMxj8KbntUmetNK96AIJBJuUBVKnrnOaVUOcVKMg4zk03o2e/egQ0x4GSelKse8EgjOcc040cbcc+tAyFiQ5HWplTcAAOtQYw2fWpY3YZ5PNADthVweMjsKMYHSncY9M0cA5oAiKjBHbNORQq46U4j8zTRwc4FAAF5OTx0pgRgSOPQe1OYEDg8U5QAfWgBBuC7SR+HpScbRxTjyfT2pdvyccc0AR984pQOOaCSBwaAWJG3r2oAbkA4NNOCev5igqQQW4p25cjkDNAA6FkLAZx1pn/LMEfe78VPHlWI61CQBI2MAUAhpAII6H2oX5TnuKURgv8xBB5yOKRjhznkZoAeWHJAH1pFHA2/keRTASQDtI9cinZAyOtMBBGCc4Gc9umaTG49BxjrTVA3D0PepHXcu5c8d6AI1Q8lT3qdWDp0Ge2KYqKBtOTnrinKAHIXmmhMa6cg/yp0YIcZ7jFKSQ20c9ulOUru9CPWgBpwXUBsE8j3qOYZAqZQpcsGBJ6fSmTBcBRye9U9hAh81AeN44z60OnyjPeoM+W2R1xjpQJGcgGpuOxKik9OtPVMKVJ6nmn7eBg/rS5O7px19qYiAZwMj8PSqt+rLbvtG5uuPWrk0SN9w7XHAx2qpKP3ZU8NkZ/OgC2oCrjsD6VXspPMuLoYOd5yOgx2qdDuXpt49aq6WwZZ5QGPz9xj8qSAuSRgKSSdo9+lRFeuP1FWG5G7r+FQ/xEleD7cUpFEZHOMinEfLyeDTsAnHI9Ka3Q5OKgYFRtPp+VMIweOaehbYQB1pCPoPrQA7yA8Zbn6jsaAAqqAME47daYdwzg4pysVIJ5+tUA5slQo9KKdvyvQYoqkI7RcnkU4DtU7MBGRkHJ6VASA2DmoGJ5Qds5A9adGqo249e1PVAxBHXHTFNON2eue9UIQyeYzBCQKlXJUc4qEKATgcnvUu0ldpGR6ZppisLjO4EcD+dN2AHpmpWcABSceueaZxtB/rSYIb06GkYkEEflmjGM5NNZSw46euakoco3AEnFL2xTUUgH+dOIz3FAhf4ec0MM4HT2pvI4zil9M8cflQAxgG9iKjwFPNTEAjmmbF3fyoBCDkGkY+gyad3GaaVJOQaAI+WPAzUvVcFcU5AvXHzelNcfPgGmIMLg7gTmhdzHk0mcZxzTUk+Y8GgY9h6jIpPlIATj2p4bPPehVAYsBgmgBgG09zTdgLbgOtT7euCKayYGaAInOFH0qu6Ebs9D1qywwBVdhtXjNCBnP6UT9nBIIKyODn/eNdDaljdRFc7QTuYkc8HgfpXO2KKkUiKrEi4kBwOnOa37PEUkIGcFu/qRWjM+peXKEkc/WntKAQSpz7UjZ5xgY45poJ5GKm5RNlCAwIINJuUnuDnrUW0jGelSQoDnOc96aYMcx+h7UgJ9P1pxXvTcj1piGMN3WosAMRUwGFPvUZ61LGhvQcd+adyRk04IBikOc+1AxCfyqNj37etPOACe9M3HORQABs96QEE7sdqAeeBQec9iKAGNjccUmQOD3pdhzx6U4RnIJ5AoAhdRu9aRvujjrUtwFC8DmoG4UnOeO1JiI2wqk96VW46UwDdjPSrDH0HJ9KBiquQaTvjFOUccUFgBjvmmAMoYccECmBCGyQOnWnZIPIyCacz49vSgRGTgEYB+tNVdx5p75JPIx7U1GHmDIOPakMhfCSYzx60oIzgfnTpcFuhyaYiBRjtQBKOeKQ4HJOKUDA4pjEYOQSB+tIBysOOpFOOwg+9Qseyg4xmnKvAOecUwHbRyCOKYQST6Ad6eRx79qa2QPu/rQBGRnIpNuzP50pU9ep6UoG5ecigBFwx6gU54umCOB0xUJYJ908+uKaZ2btyaAJCz7VVSOM9qjl5HJOaVAxUkdRTS5PDUxEOwMcEjrTsbcEDvT3wRmm9uRwaAGhMgZ6dsUrlVBySc+9LuBAxxUZXkc9KVwsDOjA4BJ9KgJAIJyOe9Slecd6GXIHt60XGI+1umOlMCjJBp3yqAWHy96bMmE/dnKnnNAgbK85zTGm2j1qFjNAAcbkPPI6U5ZkkAyAvGcGkMlBDDNOAwDjiogdoxSg5PvQMdu56/nQcAnBpCeM4oxnFAWFBzTWPNLjB5pCMnPr2oBDNuBnv7UepNPI7U0jjk0BYbnIJPamoGYnGOvejBZ+DxTk6/4UAL5Z7mjAXnvTi2Pu8mmkcZxQAq5PSlHXBpFPXv8AjT+3v7UBcbjrzxS8Y9aMf/X5pQB064pAAHvmjAC47UpGDx09cUnBFADT3peQM0mPzpf5UxB65FNK+lEc8MzlI5VZlPIBBxSkfnQMruPnPXNKFAYEjjr+NK+TjFLk4GKAH43H72MDr6UpCM4LA89xTcAHtg+op4jKnIPFUIbIFDfKBjPaotuT61Pgggj05pshAPIx3pMZEwx2INMXIPIqQxs5z2PfFI52EKFGcdaAAeuO9MdhtwBwetNLEsBil5xgj26UALGMDGST/KlUOxJycfSgAg8g1JhiP/r4oEICpIHf0qQAFeSTkelNUBAWYfN2x3pyuOdnPv0ppgNK9DwKRvmwDnOMU8ZPOCR0qOQheQhB7mqAYVDKx3jcM/hTV+ViD81KyEJ5mMH3oTjnHQ8jpUgTxrjAI9xmntgDIOOPSod+9TkDgYwfWnAEINoBIHT1qgFGDz0qhf8A8DqG+8ASB0q8Mn7w2n0qpcopK7sfe65qZCJhN8meMFD82e4punIFsUwSc5OT9ahuJFispSpA2qSPripNIiMOkwAHll3H6kk4/WhbC6lwJgk5JzzTSN2BzgH86JRwSWYYGQO1NUgjO4+h9qTLGlNrbqTG7nofSpScjmmehz0GBUDIgmO3I4NTjYFwAMngY/xqLsfWnLnH0oQAVOcdvSmEcdKceRjnBpETJ5GO9UFh6nEBORxwaKUEBdvPPHSihSCx2zjOTnj3pFQvkjj1zUby4xjmpFdccEgnqKAHM+59m/kddtGetMXCk+9PyM49OaBDgcA4OKjUlk2sw69u1SYyPWmFOgFFwaEyMDOSfapRxwKYBgEGnD73t60Ahx6c8YpG56U488546UmRSAQHFKQPY+1NLgHH9aXjrQAHrzSbTzjpRkZB3Dml6DrkUCuNCdc0hXnPFOxnpxTGYDPt1pghMgc0A00qOopAWHQd6Qx2AMnHPrQgJGelG4nOAR9ad0pgR7SOBmlG0Dgc96XcQ+MZFK78fdoAT68VInzdOar7iW54qQEg8UATZwccUjAmkPFIrdfSkMRlJI4GKryAKcAc1aYjBFVpcZ5oEctayNDcXarkf6Uec5Hb/GtuC53SQgpgmQcdT1rn3ONU1E9WSUNjOBjA/XrWxaDM1uDkDcp/UV0NaGS3N1iQ+CDinLgJheh79ae+ASwHHvTCQQAABWRYdTx0p6naRxwaYrAEDvUyptcNnoMU0DFJwMetMA4PqOacQCetJ8uOCDTENJXHJwahY4PBqUqrc9P61ERjPOfrUsaH7u3egYNMB7U4cDFAwPPWoGODU27k5OKYzLkkqD7GgBuMjI7UoAYEk4qPcxPQUYzjIzRcCRDgMODSkEKaaCBwKRySM0XEQsxZznscYphQ4ORxUvQ5pjkh/Y8UhjABjgYpyr9KQHvTlIPFADuMU3IzTyMdDUbCgB3IGRjFMYbsfzp6jC5yOlMGcj+VACbNvOTipAqhck/jQxB4br6UiEFdp5ycYNNCIXlV13KMDPFM3EdBkGnOCWPHQ9KFwOO4NAx68rjvURGGwc4qVh8uQcUwqSevHWgQ1kG07Wx3pqnYTnkY605rd2BYMPoKiUMDkkgdADQBYB5zQzjIwc1Ez8YBoVlAAJ564pDGvI2446U13Zl4ppY7s5605QMfNigRGuWHI4pSdo4GTTy2BjFNVSVLFx9CaBkau6qQuMd6VpDJgBelKflJpHyBnnjrQABhjpz6CmNJt424pFySSKY5yeelIBcgfP8AnUn5e1QgE5UU9fQnpSAUqM7qTgg8fjTvrR+FMCLOFwOlNIXpwv0qYjpg0xxgfXigCKRZMfKwIHaqYhVZAnIyMfN/jV38f1oL54Kg/UZFMQm3dCg7gYJ9aj+ZFG4Yp4UHkEj2FJ5xUlWAIx0IzQxifmc+lOpwjUn0B/ummsnl9WyAByRSHcDzxnFJgg00MDzuU/U4p6g53EcA9jnNArhsJHGKjfgEcZzUrMFHA46j8aikHOT+VOwXBUAPXr+FOYDnHX2oFP5wPX0zSAjIxyDnjmnKuV60o4PAxQcZz2+tAXEICtgd85Pejnd2oOQMnmgn5lIz05zQMU5yeaQcGn9TTc4wDn0yKQC4yOaaR145p23kc8UmQeP50ABxtJIyay/EDTjQL022fN8vgqMkDIzj3xmtUAfWo3PbH/16E7MGtDyLSLqey1OCWAEyFwu3+9k4I/GvWyCcdR9ay4/DemQ3y3aW+JAdwOeAfXHrWmYySOc+ma0nJS2IhFx3GkgdcnPSlwSMg9akVEK843DpSBgw7VBYigBcFeT700nqV/SpCRznikKkrkcmmBCpO8kj61IXwvJ464o2gAnb17mkXEnpjpQDJFlUAkAdegqvIV3k54x09DVlUjK7gf14qsw+cr2oYIaFB6dTzT+MYPUU0DHY+hpCQcZGcUATDGCR2pARnPemAgn0p7KQSuc+3NAmK5O0bev8qUyDPOSPUU0gDocY9aQsdwB6dD7UICWNyN2W+gpjHdnuOmOuaTaMBgc885GMUBlzgDv6e9UBIgIUZJA649KY0YfLDr3wKc4JPJJTHNRvIVcBcAcZOeetDEG0xuDIOO9SggnHTPFKVz94E/So9jqcAnaT09KAHNyuQcmqV0G3xKCO5PpVsZxjqAeuKo3iH7XFggAKxI/Ef4GkBFqBQWEoZgPkIBrStk8mzgiBJCJgljzWPqig2nznAZ1VcepIFbT/ACKo4wo4xT2QLcN5XjPFNUiT357U1SOAT+JpEXk8Yx+lQyiUqQMHBxTVHB9adjkkZ980bfmA7CpKGEA546DNKOhH86kxg+1Nw2QOgHSgBHT5On4im4BIx17U48cEHA9aQ8NzQxiHI6Y49KKdtzjmigDrD045oBYDgdakEJyMnA/OlETjk421TJEjZmb5lxjpTb20NzGgSWSGRG3KyHr+FTBeCQKkBzxSAAeeaY/Xjj1qRgPWonIVeee2KAIzKS2EwyjrU4ORzUMSLyoXafWpATDIMjcDnFAEo5OaRuTxS56kcZpNuTnPPoKCWV5gwbf74FPjcuMv9KlZc4z9RSbQDnNMBrLmm9Cfp0qQkCo5BjDigALlV+Uc+9J5hYcihGyOtPC7s9aBoZvxjjmpcZAOMDrTViYHJqbp6fWgVyFiVXHUU3IHank7nx6d6QoO9ADevSkAyTkU4gHp6UZy2KBjSvtSYPrxTwMEZPB9acQOg/CgSGlsIeM01AS3tSr8rFSMU4HHvSGI/Tiqznd161ZLbgcjBqCQdNooA5Msw1jUwkW2TehzjhhtH/1617QjfG6nKq6gHp3H8qyrpgNdvkBBJCE89OOOK0bOMWsAjj+VFI2r2Fbt6GT0Z0sh4256UgUHvSSZEpHalzjrWdzRAFGelPI2j+VMGckjg4/Cpn+ZORmqQmIANvSq8sbBc471OM8DGMCmpvZP3nB9qBEIYBcNwaYZB3HFSTKd4J6HimOARwOlSxjWc/wjGaTeWPUGoyMcCnoNp9O9IY4kZHNBA70M38qVMbeTQA0j8j2xTe/FPYZGM4z3poVVzuPfigBu3DA9TSOecCpCw7U08j8aAGqeuQDSMQQABzQR6Zo2980AQ5ZSRt6daBzzg/jTj5hJwcYpD5uQS3H0oAQ7ge+Kdnr830oZieBQNqjJoAkQZ602TaccZx0x1pVY/MMUxziQ49AKAEyroMk5z3pwQAEghueKYckc8CmhsdDQhDSGjl74zmp2VeuB7mkJBTfjOKXgnHNUAwsisNpyaYzkZJXA6n6VI8aO/A2nFIyDB4pAV1uFAztIYioXcu2c9O2aHjYMMdh2pFIPHepYwySOaFHenoAemKfjapDAEUAMXbxuFTDyiuRxULDgkHigY2KGwByc/SmgFb7pCkEjpnvUQbaSCMmnkKF3BkIPIAbk0zKs5Jz7YoAGHc9KQMSGCn8zTmwV4NRqjjLIc45OaAGsCvA4x3qA9ev41PkvwelQlcH2pMB6MBnnginL168HtUXYcVIo3d8UgHij8aBx25oxxQOw3PNI3bkUMR2+8aB+NMQxhkYxUeFx3z6YqbGc4NNxx0ouAwDbnGOaacnGRnJ64qXbu780HH5UAKqkrwTntioZJJRkbdytwM84qTcV4zimZY9+KYipudWGIiQc4yKsRyDJLrsxgdKlDMBj+VDZK/wkj1FMBcDkAhgKY2wggsAD70Ry5+UoFJPpTnhD4DADjORwaBEflsnOdynvS7vSl8lox8rkr/dP9KaHRsqfkYcY6VLKFwOvNOOAeenTpzTWcr24zgEU7GaBCAflSgc5xSgYHFL254oKGZwwOPxp2cnpgUHOKTBHuKAFNMK5I6CnKT359KXPOCOTSGMIAzikKjOaeQMcduKikXlcfl2oAU9eDkA96N+Tg01Sc5I6cU5zkZ4oExcDpnJ9M9ajZAjcdOp4pxGVxzj261JG+QRnk9qpIRHhicgHjsaU5HQDnp70byGxjjPWpB8q59aB3GbdykdQRyKYiBQQcZ9u1SKfnH9KRuWz2z3oExv3AV/MGoX69MAdKkbI5yT9fWhl24bg0AiLDZ/xFJs3DkH60/OCetO6g9KBiBQx5xnOacIwxx29aavqMYp45P19ulCAilByD29KTeTnk8+tSyEBQ2ODwKhLAnjB9MUMB6ZHUAc0eYo/g5+tMAOOtSptxhh/9ai4WG+aS3AGPU1CRlzjipSmTxgYoEeeg/HtSGHmEKqbiFqwCSMMQx9RyKrEDBwKeuPKXbwQfWhMGiRlGCMYx6DpWTdTH7cMAZ2fkCf51qhiST178dKxrht+qSsynIVVI/DP9atEsgv5DLPaR7SVkmUAA4PB5/HGa35RkgBjtArAkZH1DT/4f3udw7cEf1rdnbcSF6iiWxMdxkTbZD3OcY/+vU8ancTnnuBVaPIYFuMc1Z2Z5zwPSszQeFJPXsMcUhAXAJ+lGR0z1/wprqWbI780DGsc/SnOGdePX0oKjHPbvmkBHzAHNACsRxkZ49Kbjd3HHrQQc5zx6Zp3bANAxuADn+VFGSrYPGKKEJnbLgHk0Menp9elCsJBu6c4oxnvzQ2IbvwcUu7nIOKkEabRlR/Wl8pEHQn69qaERFvlA700qG+Zycexp852gEDjFABKg7cj1IoAQPtbGPl9qimk2uN2NvapSoB+7UUyqCGYHmgCUHAHPFSK+B0FMCl0yCNuKcoI4FADiSw6dKTZx6+9O6jpz6UDHOM0CIjyPUZzSOBghetSlQBwKTb3oArxId/PFTrheM0qp82QfzNP2jOTQAmMil+lGDn2o6UARsozwaXbgVJ17U00h3GhRu6cU4xjPFL1pPM4wOvvTENK7wATj3pANppxbnml6jFAEZUEk0m3IpzAjoabk44/SgYhXA61E4wvA/8ArVKWO3JpjElcg/pQBxeqMU8SzgnCGCMnHJJyRz+A/WtNB5lu8cLEI2fnAIPH9ayPETeV4iQlGKvCudp64J7VqC4byiYkCjBbng4xWhk9zqHJZvmHYcYpygAY5wOlK2Mrg9UBpuc98VBotiUDgmjceO+aVM7Rzml2rgEYODWiJG56HqKdgUEDHNIT6H86AI5BkYFQfMtWGBz1ppC46fnWbGVSvcCplC+WOBmlOOeAaaRgdaBkLlVGcdaAfl4zUqn58bT9aeV64xz0oAgwWxyPrTiASPYdaUrt9felHQHGKQDCuPxo4UetK5IIApkkixQvLIQiICWY8BR3JoAQetDMMceves/Stc03WBJ9huo5Gj+8ucMB64NXyue3FD0Fe4mBnnpSOmRwafggUgX0NAys28ZOelMAaUAMcc81ZI254FNC88d6YEgdNpyOf51EXDNinOQFxjBpioAc0gAjio+ABUvamYywyKYD48nIHemSMWGPWiMkSKVbjOPXNPKjIJOaYiABlbPNSF+Bwee9PdT021Dgr8rdaQCOpKnHPFRIipLvwR7Gp1YITn8KJgBhl6MM0DI2xklcZNDnOcnHtSockleuO9ISM428dOaQIjIKnB60B37flipdoYD0poUrmgGRsI3Zd8Y4/u8UxkijPAYjsQak3ZxzxTHUkjigBJArgFMgDtUJLqcZOOmBUpAVeKI+SdwBJGMntTArhuOO/rTnIc5HH1p8yHOBiouh5pAIMc808njjim4UDPenDI+YDpRYBrZHToacHDKeQTSvIC2Aozk0xtvUqR9KAFClsZqQLiogx4wQf6VL95eOKAGtgD2puacTnr2pAMmgAx1APHamMSp9M96kf0OeeBUag5OR+lCAaw7ECgKSDg9OSSaewx2/DFKAD3waYDccHmkIyDzj3zUiqR25qOaaGJQ0kqKPUtimhEaxsDnjI5qXeQcHjPGKpSavpsch3X9upz/z0FWobuC5H7qVJsf3WBpbCJ8ErkVDLErDeflYDPHFPLgHGBjoO1DAk5Gevai4yAbk+WRcehrO1zWotDshMy+bI52ogPU+p9h/UVsyDzBg/h61x/xAjUaVbSHlln2hvYqcj81FOKTdmTJ2Rb0DxTHq8n2aVRFccsuOjew966IDAIzyDzXlPheVbfxPYu2SN5TH1Ur/AFr1cAdgKdSKi9B05XQ0jGfWk496fzk8EfjQAM9fyqCxF6YxTTlTwePWpDzk4qKVfMjaMnKsCrfQ9aLCuYMfjDS5r77LveMbtqysML/9atlsMoIIx19M147LbvbyyQuPnjcow9wcEV6to9x9p0OxkdvMZoVy2epAx/Q1pUhy7EQm2X0CBAxOPX0pCMqD0B9s0mEfIAIxznFKcjABzj9KhFgE/wCmhORzkYoKAnIyCB3pSW28DGPanrtK+oPH0qhCY2gA4OeRTMkDHPtT26YHPvTPY9algMVcMfQU8KdwBAI/nSnknHWmMTgjccjvSKHlTuA9uec80j9evUcfWmAlSOSaGzk8nOe9MLDTHnnOAfSgcLjt6dqlLAgDn8KgYEEg/wA6AHJ1wTxShssRjApFz3/Clxg8d/SgY5gSvP5VE3Jz1z3qQgOOuCfekIySM89KQWI1LZI5NLk5GOKfsC8/h9KQnB5NA7ApJIPegjPB4+hoLYI6YxThzzjt3oAZgAEEcmlUsSFP0pr9cU6KMSHJbAU8YNADmOB0HSscMRe3Ozu/fntWvKRjGG56VhwyF7md8ggyNg/Q8VaRnIkjTOrWhCgbVc9OnH/161ZSAzHis2xbzNYT5iNsTYHrkj/DrWnPG7OTgg//AF6JbBEgUkSbqtxSFgCT2xxVLOOetXIGxHkrzWZZIxGcEZ/GkyeOwprA7gemfwpNrHkdMYoGgJOTnkCmg7SO+ad1PSmldpz2pDJs5Xnn8MU0rhiw570IeMDGD607II6dvwpgN2q55PUYopwVupU56iimB220DgA470pwMcH60/AUZ4wO9MYHPBFIkQuAMAc+tIxyR70jjJHXI9DS5J4zzTEKfudh/WnK2QcgYFJgE89uppVHJ4oAaYwOSD9Ka8WYWX+LqKnK/L6UwZU80wKtuXJ2EdKtAZwOmfWoQWWcsEJz1x2qx5gV8E4z0osFw8hhz+dLtPpS+YeRmkaT35NOyEJt596GHOOmKcMMPm6+opccfKOKkBmzvk01sjnHFSgYHGKQrubBzj1oAQocdc+9BUg4Ap7HnA6UgXIOSaAsN2E5HT3oERA5PNSAcYpplVE5IpgN2ALgcg9zTfs+8YyRikack/KvFOieZ2xtULQAvl8cnAFM4xhH3EjI46VJsWb+MjHalZ0jUxpnJ446U0hXESJcAvy3tTHjzMdowB04pyburdfaplXK5YkfU07CK7Rx5IbBOeOahlUKAFGD61PIpLk8c1WZt3JzUso5LWExr0ODg/ZmyR3ww46e9PibajvlTnjB/lTNcf8A4nFoFU7mhkGfxGP6020O+3VSADnkDnGf8mto7GUtzr0IKQ8YzGpA/CpUiZyfSoIJDJaWbZJzCrZxjsKvwAkHnisupr0ERMcHijyQF+XvzVjqfpTTwKuxBEIx1PFIYh0A5qUcD0x0puD+HrQMjEQAOTk1R1PVLHR7UzX06RKeVB6sfQDv1q7PNFbwTTzSBY41Lux7Ada8F8Q61c+IdYlu5C2zO2GMnIRfQD19cd6FG4N2PQh8RdEaYj7PeKCfvFR7dgT71s2HiPRNSI+zahHvPSOQ7GA9cGuM0n4aXl1ZpPfXa2zMMiFV3FR6E+tV9T+G2s2aNNZvHeIpyFT5X/I8H86fLElSZ6mqIz/KwqUx56DFeJ2PiPXfD1x5XmSqY8BoLkH+RruNF+JFhfNHDqCfYpSMb2YlCfr2/GpcWNSudkYB2/WmNDnqamikSVA8bB0bkMpyDSkjkcj61myrkHlrg9c+9cv8QAU8GXpViuWiXjjguuRXW4rmfiAgbwVfcDhoiP8Av4v+NVH4kKWx5f4HSRfGdgEfBcsCOcFdpJ/lXtoixg4J9RXjfgMj/hNtPB5GJO3/AEzavbBgDParq7kU9iuYwx54pRCMDmnkjdx3NKRjjrWRqVzCC2N2M1CyiOQKDnJq6wGOev0qnKQs3vnigCGX/WY98UozSTMHfPQdqcQvamA3HOaxPFt3dWPhq9uLLiZFGGx90ZAJ/AE1uHjrTXSOaN0dA6OMFWGQR0xihOzEeA2ev6np19FeQ3kxeMg4kcsHHofUdq9ztLsXmm2t4FKJPCsoU9QGAP8AWuL1X4ZwXGpxyWE6w2rN+9iYk7Rnnb+vBruBHHBCttCnlxxKERQOFUdAK0nJPYiKaeo9JW4xyKkaNJCCcgj3qJFCAhm5p27K57E1mWK1uWUlW5HYjrUbSsoA+XPsO1P8w7MgZJOBioWjZsvgDHXmgBhPoKcp5PUnGKQRMQSw74pyR4YkngetIaFzxyefrTS9I5AOeopuf8mkMccZzTSDjNBODzxmobm4W2tZJ2zsjQu2BzgDNFxpX0RW1a8OnadLdCPeVwAvTknArkIfEeowTiV5PNUkFkKjB9vaqWoa5e6plZpNsBO4RL09hnvVJRxgt36k96zc9T3sNgYwhaok2z0Ox1m01OPdAzKw6o3X/wCvU7HLZ9K8+sbkWGp21z0SN8P3+U8N+Qr0f9x5aujb8jOV7/StIu55WMw6oztHZkceDwc5HtTyB0/pQWGaaee4IpnKNwBzTlBOKRiNoGenNNSQb9hUjjOe1AiTA4J7GnBVLZJNIOT1Ip6Hbzxn9aQBtXI2sGxyKfsU8KAD7VIqqwzgKT7UoTORnk+lMCv5flyfM3ykccVKIQV9vWjGQR1IPWpV+bB56UxEQiyfYU17Z+oHAOPrVncBwBnnpSOzk4B4p6AcP4m8QXFrO+nWp8t1A8xwASCRwB+BrjJ3e5cvcTOxJydzZzzWx4nKt4jv2RgwDgEg55CgEfgc1FoGiya9fGMlkt4+ZZBwR6Ae5/8Ar10xSirnPJtsx1ijzuGeuf8A61W4Fkt2SeISJzlHAPOD29a6nxT4YeKW3fS7Mm3EexljGSpBJ3Hucg9fat/RNAQ+GIbPUYV3tvJQjlQSSPxpOatcFF3MrQPE63MqWeohUkbhJjwCewPv711JtyCQV49OteZ6zpEuk6jJaycofnikH8S/4jpXZ+FdYbVNNeK4fdc25CMc8uuOGPv1H4e9Zygt0aRk9marqq9cY+lZ/iCwF7oF7FsDkQlgMc5X5hj8RWuyjbyOCOKSIMCR0UjgkVC0ZbPE7R1tb63uSOI5Vcn6HP8ASvZmiCsc4K+/WvHLyD7Pd3VueDFI8Zx7EivWdJuftOlWk8jYd4Ec5HcgGtKy2ZFLqWQgIzxzQV74/SpODkrjnvSd+mawNRm0DHH4U1o9xKgAEjH0zUvT059KQgFcHoeKYjxGQvLK8kvMjsS2R1Oea9G8FmKbw1Eqs2+GR0bJ7klv5GuAuCPPkPBG89Oh5rb8HakbDV/Jd8Q3A24OAA3Y8/iK6aivE54O0j0UgHqB7YqNkCjd69akJOScc5ppJU49B61zI6SuS3T0pyM0ZI/KhiOcUxTubP5ZFNBYkOQu45/OmEYPpk4JxUx+ZMEdPQdarSyRwRtLI6hFyzFu1DQErzLEhllcKoHLGuP1PxtHFeBbSHzYlbBYnqO5H/16z9Y1mXUJTtYpbKcrGDgtjufzqz4e8Oi5lTULtNsKENFGw+/z1Pt/PiqUUldk8zbsjuNoIPBJ7U3hUBB47UmQj4IxxxTnIPTG30xUI0GZ5znvmlBBIV8EZ60wNjgjOPejIznjNADwhAYDk9sUoHydc8euaerAjBAx0pmMsc96QDMDdnFB7e1SMvao8HJoGLn+EimY796eQVB9PWk25VWzwf0oAVcFeQPelCgOM5x0+lNH8qeoBIzn8DQAPGmPvA+uaQIFT5TgfSnyqxjxjKkcg1HEp6ZxTERyMoQ5+ULycntWHZcJkdTyeMfpW9OxiV26kKT1xWLahRHtViTxuBHANXEiZc0aIT6zMzEgKqqv1+bNbcqhSRjHYg96yvD8ai8vJznIcL26AAj9Sa1LgAyEjP0/wokENiERoOdgx/KmKAuBzzSg84yPvU/5TgZrO5YjElDk9famAnpnp3pzI2Cdwx6Hjioh0IpFD84OKByw6UiJwS3ANPVVx6mkA4nAzgfWiIdCQACaaW29adu4yM0wJHkAPAwPfiio3UFFPvRQVY7rcc4pAMtnNAOQPXvS8ZB5NMyEKZakZAv8IPPNOOS/tTSSzDBGP50CFGDyBSYwfp601Q6yHaMj0B4p7YGORQMcTkYqJuW/xp42k8PilIXPOSfegBhKFOfl9xUqRqp3dc9z1pgCtjPf1p8pdAMNx0+tUIQor8jIIpCF6Mp/GowwzlXKn09akG51+Z+aQbDgBinZpoOFwaAck+lIY8U3GFyKFwp+Y/SnE5Hp6UAJgmkLhMEnGfWlBIxTHGThsbOwoAlCZBJ5FNWOFskDJ79aFlITC44pFbqOMU9CbMZ9nRTuUuc9qM7G2lSMUK7ox2nI9O1PwSuWbn+VAyMM2dwxj3FDxSyEMMY9RSs+Fwuc/SpIpWJCtgADvxQgFhtzHGUJyccMfWocSAHPUcdatGQlSQQRj8KgX5uWJAJ6jvTYhqK5yzKVHPNVmHyEknPrV0sRFjjPSq0jSYx1/CpKRx+tMx1KwZRkEyqT0644qO3IUFAvTk+1S+JX8me1kYnPnOBt4JbaSB+lU7JopRImTlWDEN1Gf/1VtHYxludralW0yzKkEeUPmz14q9bnk9v61QtDu0qyIHO3bj0/zirkTgN0rP7RpbQs9Dml+ho5HvSYwfatCQIA6U3jFKx59CKjUNt+fG72pAc34+uzaeDr0oxV5tsQI9CwyPyBrzXwHp39o+K7XeAYrcG4kH+7jH/jxWu4+KOR4ZtxnAN4v4/K1Y3wrtVe81OYjhIo0HryzH/2WqWiE9z00NggYH1qlqmu6Zo8Ik1C5jhB6KeWP0HWua8Y+N4dDDWVgUl1A8Mc5WL6+p9vzryeWa71W9LO01zdTN7lmPbpRGDe4nKx6lceKfB/iCRbS5C/M+0PPDtxz/e7Vj6z8N3MP2nRZjMh+YQu2Sf91v8AGudufBGvWumG9e0DD+KKNt0ij1IH64r0PwBFqNn4ZEF8jIBKTAjcFUwP0znH1oklFXTGtdzg9E8R6p4WuzayCUwK+JbWXPy89vQ4Neu6Zqdrq9jHd2cm+JhnBHI9j6EVjeKfC1t4gtXkRViv1X5JAOuOze1ed+HNbufCuutFd+YltI3l3MbDO3tuA9v5VDSkrrcPhZ7LnnHasHxuhk8G6io/uK35MD/St5Csiq6tuVhkHsRWb4nj83wxqoH/AD6ScY7hSamO5b2PI/AxRfGumk9MyKB7+W2K9wO2vB/CU3k+LNKkzg+eqjn1yuP1r3gj5cVpV3M6ewgA7emaQ4B5oVcEkfzpHHPTmsjURmGMnrVSchmB24xVoqfx9aqzJtbPY0gZVL/vSD2I61NxjmmyQt94EYPP40L90etMBRgjrS0nGeOKOtJgM/iJxRtyQCoII696fgYqJ9zYxwemaEBF8rMO49KdgdOcUrxBsEEK1CxSr94r+FOzAZsGPl6c4oBKLjluMfrUrRjqPyxVdpMMVIINAD942456flSDJHXJpkbjn86mzg5xyelICIMoJ4Of5U0yHOODTyezd6jKgE5pAOZlbAI61BPCl1bSwup8uRSjDpwRUhHOen40H5lP6CgadtUeYanpk2mXjRSEmMH93Iw4Zf8AH2qluA4BJHf6V6pc2NtewNBcRiSNuoPH5VwmueHptMzNAWmticbj1T0B/wAaylG2p7+Fx0avuT0l+ZnhkZQBkiuh8OamLd1sJ3whOYnPY5+7j+tcwkgXknv6dDVoAMvGMZxj/CnFm2IpRqwcWejupxnI5OQKjzwMkZrF0bWmuES0ujunyQj/AN8e/vWz1PU59K0PnatOVOXLIaxG7oB700MXbkEHPHuKkwCpBHJ6+lMIyeB054oMyYH5R2pUctIV2nqBntSIvdhj8KlVduCDzn8qdgLPVgi80jZ9sAfnQnzyfKNv9KldRjrVWEQoRuI7Dt6VLxx1piKNxp+Bxz360DBwrLgAA1U1K9TT7Ce6fpEhYA9CQOB+f86uMoOTn1rkvHV0I9Eitgw3XEoGCP4V+bj6Hb+dNK7sTJ2R56zSl3lZi0kjFmJycknP9a9W8M6aNJ0OCCQbZ3zJL67j2/AYH4Vwfhmy+26/bAjcsJ85uey4x+pWvVVIEYUAZHH0rSo+hnTXUUYxjnHpUmcHaQaiQYape+OtZo0ZheKdMOp6S5jTfcQ5kjAHXjkfiP1Arz/RdQGlaxBdlj5THy5vTYTyfwPP4V60e3bBryrxFYix1m6gVdsbN5qAcDDc8fQ5H4VrB30M5rqenNjce4FRujN90scDBGeKx/Ct6b7w9bsWJeEeS3Ocben6Y/OtzHIycg1m1bQ0TvqeT+JrZrfxFdqV2h2Eo49QCf1zXZeE5xd+HbeNjlodyZ9MMcD8iKw/HkBXWbafZ+7kg2565Ksc/wDoQq94ElLWl5APvRTBjz/eXA/9BNaS1gjOOkrHVICmVdhkU7II4Oe+aV4wVGcdeTj86jETpISpDDHArA1JTyOMe/emkEADp9DSmM7TtPPPNM3uoIdT/velAHjN0uy5mU9VkZSR9ahDMpDKSrDkEHBB9av6uuNZvgRgfaJMAdvmOKpeU5h87aPLDbd3ofT9P0rtWxyvc9Y0jUE1TR7e5ViWKhXHo46/rVpk464Bri/AeoFbifT3Jw6+Yg7AjAI/LH5V27HI6E1yTVpWOmDurkEiDsDnNIE54xz2xUpGaaU468+3aouWJuCKXclVHOW4AGP5V59r2tPfTGFHP2aM8DpuI/iPtWj4r1jc/wDZ8LEBOJWB6n+7/jWV4e0dtWvDNOMWqdSR98/3a1jpqzOTvoiz4d0L7Y63l4AYM/LGwPz+/wBP/r13JUjgY57elMWLaqqAAgwFAHapCdq7evPSs5SuzSKsiPIU52jp3FKQSAx4FBzjijnbgnjFIYBQfTigJ2xnnrQigH+dTYoAYAAOmcdKceTuPGaCcnnk5xSj7mOaAIjyDkY+tIoGcU5gcnpgmkJBAGATjOKQxSSFx6UwkkgDvwc088qeM8dKi2hPl45NFwHkMMEY560o4Ge/amkOABkY6dKM4/8A10wQ+NyDgjAIx9KeQGGxv061EfTOT7VISdpOP/rUgK18EWxmCjd8jHn6VjW2FiYHr1BC44rU1SXZps5TBkK4AJ4yazQQY9ygnjgBf0ArWGxlPc2vDsCC2llDbmeVycjkAHH9KuTnMpxjHpVTQv3WkI2Mlstz1wTmpGOXLZzSkxxBVDSHnBPSlI69DTkO05PcYprHDcenWsmaDScDvTlVduQwb9aYcE45pF+VccdaEBKyLnjp6U4BcgfpTd6tnOc9qeSFQFuKoCGX/WZPH9aTJbOB+VDOJWwFzUiRMoJK/LjJPekMjdWUBdp/AUVK02egINFAHbF1A5BIpUbc3Tj1pXi54AqN4gq9yR1PpTIJWU5POM00II1AWkjlD5GDnPc07JJoFYQDdzTtg6c4xSrjHFJkdaBiEDHTFNLAHGeaV3GM5FMByGbpx3oAlTYT83WkmfbIFABGKZG3zYY0u0ZznP0p3EwJV15XDewxS7SFyBnjvQF700mTPyt3oAeOVwQQ3oaeicUkZLckYPSgB9x4OBQCH45yaQ89elN3MMgnrTlBYZpDDI9RmoZlJAI7GpscdOfrTSmVwaAIovvAHvUpYI2MfnUawHO4tgdsnpSGZRIRjcR3oAlJJPFNkwOpP1zUbTnOFTB9qTOVOe9AWEc8DBIoIyCSTk9OaVsL9aaCKQDraQlmTdweoNPcsrEY+XtTIoMyZzjPWnyoA2FJIFMQqbmXPJ59aZMsgXK5qaLKpyKbJK687eO9MaOK8UoWismYujC7XkA5OVYcenp+NVtNDxxussm52mYr7KTkD61o+KpRNbIxbZsuUwR3rHtSFHcMpz7nj/65rWOxhLc7mxLHSLYk5IZgfzNWFPtVXTXLaFbMwGN7L+p/z+FWkb3rKW5qnoWY26KWz71MAAPaq0ZO/gCrHtWkXoJjWIIptK30ppbB5BoYjk/iPB5vhKSUDPkzI/4Zx/WvNNJ8Rz6DYajHaD/SLtUVZOgjAzk47nmvWfGZg/4RTUhcttiMBCn/AG/4P/HsV4V5U1zNFBEpklkYIiL/ABE1cEmtSJ6FrTNLvte1Nba1UyTudzsx4Az8zMfTmvaPDfhmw8OQL9nTfcsuJLhh8x9QPQZ7VF4a8MR+GtMWMhXuXAM8w/ibuB/sjtXRbRn61M530Q4wtuRsC5OKRFxwTx9KcUwSTnGc00noMdc5PpWdjQOFXsK83+I+jYkj1SJMKw2TEf3v4T+I4/CvR+hyTWP4nsDqHh6+hAywiLoP9peQPzGPxpxdmDV0ZHw51c3+hPYzNmaybYDnqh+7+WCPwrr7qIzWc8XJ3xsv1yK8d8A6gbHxZFGThLpWibPrjI/UY/GvZN24Y65p1FaQou6PnzRZFj1rT5mO1UuYmY+mGGePwr6FPXpxXzq4a0vpYySHhlI6Z5Un+tfRCE7FyecVVboRT7C4BP0pOgJHJpAuDnPU0vJ4rE0EOCATUEqfISegqVyFU889qrSuWTH50DIHOF7/ACnNRo2eTTnyFOe9MVlLY7iquBJ14pssixRtI7KqINzMxwAPU04DiuJ+JmpLZ+HBZqcS3jhcd9inJP8AIfjSSu7Et2VzqrPUrTUo2ksrmOdFOCY2zg1YLZ6968L8FapLpfiuxaNj5c0qwyITgMrHHP0Jz+Fe7feGcYB9aqceVhGXMhmcMpAxinNIcdM0vlbm69D61HJlJDzwTkfSkMaJG7io32s+CudwqywG0nAqFwVG7Az2pMYzYEHFKd34dqHPKkdCKVFAOSePSkAwqe9CjA55HvUrYPFNK8dOKBEAyWI96cqqf48+9KWIGwBSBzxUYXAoGLvx8veo5kSaJopFV0cEMrDgj0NP2jPzDIJ9Kidgr4UD2zSBM831nTW0vUJIPmMZy8THnK9vxH9KrwShD9D7cV6Jq2kwarZiJvkdTujcD7v/ANavOrm0mtLt4ZU2yqcEcVm1Y+gwuJVaFnui2CGC4PQ8eoP+cV1Wj6t9q229yVFwFwGPHmf/AF64uGYlcZB6YNXEY5Ug4IOQy8c+1NMrEUI1o2Z35GOnTHTHNCKoz2rL0fVRfIIZm23KjPH8Y9frWoxyw54xVo8CpTlTlyyFAPOB0qaHJXBI4qNST34zmpUZkB+TI9qpGZOM5ByR65pxZUB5P0qEOpX3FQs5xg9PequBcVgxzkE1Jj26/pVASKhyfXrU32oYAUgtgUrgWGBI4zjuPWvPvHk4OqWlueqRF8f7xx/7LXerMrLnIyBk5ry7xjdLL4rulyMRqiD/AL5BP6k1pTSciKmxt+AIAHvbllGfljQnr3LD/wBB/Su56dq5TwJGU0AycYlnZh+GF/8AZa6veDnAzSn8THBWQ9QOM0/j8aYCfxpcGpGDYPBH51wnj+PEtncLHkfNG7Hp2I/9mruJVbaSDjFcp41iZtB3ZBEcyMR09R/WqjuTLYzfAd2Fe/tSwx8sqpj6hj/6DXcBxtyTXmng6XZr7rnHmW7L9TkH+lehK/Iyeh44pz+IIPQ5T4gw/utPnUjCu6Ed+QDn/wAdqh4GvFi1G6gLKBNGCMnklTjj/vqszxVeT3XiG6WRmCQtsjTPCgDqPr1/GsMEqw2khgcgjgitlG8LGTdpXPbiTg5zUUm1R0wx6V5jpninUbKZTJIbmIEELITkY9DXeaXr1lrca+TJtmHLRNwenYd6wlBo2jJM02dh3HPfNR+ZlsDOe9Ep2hhzu9KaqnbzjPXmpLPM/FsYi8S3PGFcKy4/3Rn9QaXRrQXuj6vFx5iokqYGSCN3/wCr2zVrx3GU1yF8Bd9uMj1wzCl8CzY1maJm4kgPHuCD/LNb39y5zte8YulXw03VLa7K5SNwXHqnQ/pmvWTgnIxtPSvKNcsf7O1i6tuNgclMd1PI/Tiu98LX/wBu0GDc2ZIR5L5/2en6YrOsr2kjSm7OxrN+YrE8Q63/AGXaBIj/AKTICE/2R6mtS+u4bK2e5nbbGmCf8K8x1C+m1C7a4lJaSThV64HQAAVnCN2XKVkJZ2k2r6klpASSxLO5P3R3J/z1r060sreytVt7VSsaDHPU/Wszw7ox0nTsvj7VMd8vfHXCj6A/qa1lU7s5/SicruwQjZaj/u9+tIxGNx4z3px5HIqMpnBGcgfhUXLDGRjnmjoOeRQASvJ59qRVYNg80AORcKSORT+q8CkGQv8A9agEnIwTRcZGzAgdj24qRCCME96YVAPHWnFTQIVkJXgVHtx1596mwOD1phA684FJjIwxVSfamnb82T7fWh3G7BPH8qMkdvpQMcAR91qAFZc4OBSjPA/LihXyM7RimIMjOON3QCngAgg8n1qPByCD7k0vb6980AUdW5sCF6s6j6c1n7R5TvuVUxznir2psphhB5IlHI54wf8A61Z98NtjMcgYQnPv/wDrraOxlI6TQk26PbgDrGpA+oz/AFoYhnYLkYJxmprC3S106OFU2qgwOf5+p61FIBncOQeRUyKgJ+FJsJXJ49KUKT1P4U8L7njsazZoRYxk/wCRS7Ce1POVBAB545pqMd+CTx6dqQDQvOScfSlJOQMZHengckf1pjKQcY465BouIX7v3VXnuBTQpL+n8qeh3nDZzjjdTmxjr15pjGhemfyooY7I9wGaKQHcGRWfjg0rKVPqDVdl8sjb1xyfSp1mWQDoCapENDdpRty4BpDIxGSMEenSlZSSccH1pSxCfMu/sBQAgDMCe3fNHPtxQrMTjGO2KHUn/Vn6igBrDsBT1QAc8mog5B5/Oneeh9RzQIcAGbHpTbZsliT+FJGeCTkD1qVkCICuMk/nQMY7rkkA5703ynKgg/hijbufJ4PpUrMY0zgMB2piGq0yDAjAA67qmEjMODj2qu90rKABgHuetWYgDECBz0PvQgEBz1Apcg+30qJgVYkUGgY8yOvCkGoTJJk5f8MU5FYscngU4/SkBXeQvwc4HahAAeTxVgqrKARxULKARg0AHAOQeDSEnjauacAAOakRMdOKQDDGWIJp/lDb70pLIcZ4pDIccHIpiuSREBSCR9SKQNluGBI9OtVyGZzUpkRT8g5zTAkzxj0NNZcjnoaPMyAdvamM/J6YoA5XxqiRaY8m05SaJxt/3h/Sufs8hWfACE53Hg9K6Pxcu/R7jdt4aM8jP8QrndPlAXJLGMt0wf8AOK3p7GM9zuNC/eaEoHRZWH9f61eC4PHX0qloTl9KZSMfvTwDnHT/APXWkFw3XkdKyktTSOxIoUjrgjj604sMgE8465pdpPX9KVlB7U0DGlgRnNRvuxkcjNPIIx6UwtjihgeafFXVZEisdKViAwNxIPUZwv8AJ/yFcx4Ehml8X6bKIHaNXbLhTgfIeSfx/lR47vvt3jO+wQY4CIVOemByP++i1eleA9MSx8JWe5cSzZnLc87uR+mB+Fat8sDO3NI6POCeoOfSpM5H4YzTHGAM460pIAyRWBsO6gd8UzOfX3pgLH+fFOV8ZJ9aYg2jGPqRTeM7SMgjBpwyV4pR9znrSA8DkI0fxOp3A/ZLvOQc52v+vQ17xuXaGHTrXh/jKJYPFWoqANpl3DAxyQD0/Guj8Z+KbkaTpun27tG11aR3E7qeWVh9325BzWrXNYzi7XOK1llbXdSeNg6NdylSvIILnHNdJH8TdcWNU2WbbVAyY2yfr81ckxBHtXoPhr4d2upaPb395dzZnTeI4gAFGfU960lype8QrvYis/ildqyi906Jkz8xhYq3tgGuu0rxro2sbViufIlY4EU/ysTjPHY/nXPXfwxtnBFnezRyZ4WXDD8xj/PrXH634M1jRhvlhMkP/PaH5l/HuKjlpy2LvJbntEjEt1/CmE8ZNePaD461LRHS3vSbqy44Y5dB/sn+hr1aw1C11Sxju7OUSQuMgjt7EdjWMoOJakmTtyOTiod2fu8n2qWV0jiaSRlWNAWZm6ADnJrx/wAU/EC8vLxodGle1tE+USLw8nv7D9f5URi5PQJSSPYNwCFmOFAySewrwfxfrZ13W5rgH9wn7qHB4Kjv+JyfxqqniTWmtZrV9QneGZdkiu2cj8aoJHJKWEaMwRS7Y7AdzW0KdncylK5DFI0UqyIxDKQykdjX0Tpl4moadBexn5Z4xIOemRnH4c186lehFex/DO5a58JtESP9GuGjX6EBv5k0VlpcdN62Ox8zbnuacfnj3D07iosYwDng0LlgQrHHTisLmpJjPfimmMFeO1Ej4GVA4PSojv3FiWPPahgU9ev/AOxtFu78AP5EZKKR1Y8D9cfrWV4K16XX9EMt0ym6hkMb7RjcOCDj8cfhWP8AEq9E0FtpyEg5M0i9PZf13fkKPhjatHpd/ck4DTBMf7qg/wDs1Xy+5cm/vHdbguc9qZu3MQoIJ4HelaNsFscY60iFQ209PUdKzLI8FGwW59hS7hmiVfmOMj2NMCjNAD+uM8U1gNvUDHrTs457VGWBycECgBFIP0zmsrXdFj1S2LIo+1Rj5DkfN7H/ADxWmzjcdoJ4xxTgOMnr3pNXLp1JU5KUTyxreSJisiEYJDA9scc1YjyyA7s+9ddr+jrOrXcIxIv30x94eo965AHy3IwSh7ntWdrM+hpVo1Yc0SaNmjYMjFHXlSOoP+NdhpF+t/aDecXCHDjsfQ1x0fORg89B6irNpdS2lyk8X3hxg/xexqkzDE0FVj5nblW4IbpTyzBTz1yKrWd9FdQLLE2cj5h/dPpU+c59MZFaJnhSi4uzAPjnJ+tMkc9RjHvSso25Xt/Koc5zkED6dqBD+DjB96ePz4qFUCtnsOlPXls44BqShwcDP5g15T4qYnxXfnoAyj/x0V6o7ouEVAfbNeUeK1CeKr1cY5Q4z/sKa1pbmdTY7/wZJ/xSlmQcDMh4/wB9q6KOYY+Y5x3Jrl/Bsn/FMWSqM8yfh+8auhB79xUy+JlR2RdW5AOAQPqKkM54AYdM8VnZ4yM59KkScgfdFJMbRcLOxPPHXmua8ayhfD5QfeeRFzn6n+lbrThz0P4GuR8dT/6NaWxwSzmQjjOAMA/qauO5EtjI8HRbvEIJz8tu7fqo/rXoW0noeK4fwLBv1G8n5wkQjyOAcnP/ALKK75V2n5f59ac9xQWhynjLSbaTS31LaftMexQyjG4FgOfXg1yeg2cN1rtnb3CBopCwI9flbH64r0PxXH5nhm+TAYhVbkcjDA/0rzzQnMWu6c4Ix56r+Zx/WtYP3SJ/EdFqPghSxlsJSncRSZK/99Vyc1tc2VxsmjkgmU7hkEEe4New9jg1QvtMtNSgaO4hDjHBAwy+4NZxqdy3Dscpo/ineYrXUWA+biYd/wDe/HvXaADG5TnI45615prmgz6O43t5tu5wsoGOf7p9DWt4R1ySJ00q5f5D/qXPb/Z/w/KiaVroIyezIfiCn+kae+AMxyDdnOcFf8awvDU/2bxHZSdi+z/vobf613njHS5NQ0J2RCZbc+YoA5I7j8ufwFeYwSvDPFMh+aNw457g5H8q0hrCxE9JXOu8eW+25s7xejoY2yOMjkZ/M/lSeB7v97d2XmY3ASqPp8rfzWtbxWE1LwsLyFgY1ZJlK9GB+X/2auCs7iaznMkDlGdGjYj0IqErwsxt2lc2/FGum+uWtoWzaxHbj++4zk/hUvhLRWuJBqdyv7tCRAM8lu7fh/OsXTNPOr6klshIj+874PCjqfr6V6jFDFb20cUUZSNF2qo7Cpl7qsi4+87ik/LnPNCsB1pp5FMdWz0xWJqT78gHqKaxC8/zqDd6D9afwV5+uc0gJIXDt8pB9RSs5DHGOO/Wqb3cETHfKkZxnkgVC2sWW/DXKkHjI5HSqUWyJVYR3Zo+YVxnODgihHTJBI9gahikhnXdFIrZHUc0YYnBOMenelZlqSeqJiykEbeAfzpgc9x9BSD0Oc47UAc5z0oBkygEj3pJM7Dzz+dMJIQgEjj6UGdSh3fnnNA0RlcH5j0FGPy7mnZBBP8AkU3Ppn8KQxTyOMYppIA7Uoz647VII1I5JPPei4iLLbQoB/OpQcqOMge9KkeAQetPCoMYPXj6/wCf6UwMPVZTFcW8Y/iDHP0x/jVLUN72ckIKnfhR68nH51oai6NqEak5KxlgSfU//W/lVVwLi4gjXcH89D8v+9W0TF7nXbALfKnKjPOOcVVIB9vwq6p22wXABAPfPrVPb8wPY96iRpFBuIPXnNN7dCac2FkGV7cGm9cng1DLF3EjilJwcD/9VNzz0+lLjLYHPpSAaAUoGfzpxzjOMmnJF0LYH60CG727gZHehmUsOeRnvQ3y5wCOe9RthP4e3rQMHycjAz060UqqXBwCeKKAO3fJ7UkQGen50Fmbk0/bxk5BHfNMkcxw3XpTQOeKAwJ65pRjkCi4DWyo+U/MTSiQrgsowOtLyOgoOemOPpRcBWEUjDDdaZLbqw+QYNBQ9RxSlnYen0piG+WyREy42jpioXHmwAgFSOlTA4JDgt9TQRuBx92gCkryg53mpYLiUyYlYsD3xigrtpmMNn+VMC1PEjhc5DZzkVOqEQqA4B7+9NWMSkHJ29cGlDbTjqAeKAY4IxU926/WmD5h0xUgPzc96Gj2njkU2hJjQMc1JtJAqNCN+1jVjGDihIGV2XB96Tyz6VMVy2c07j8qfKLmIggC5POaFUZ6cCnBwxxg5pelOwrkMj8Feh6U1AAmOlNnJeUcdBUiqCuScH3qLajISuyQEsfpipFdFOCefpS7AzZIzjpR8hbBGCfagYxmUuQuSKjcbnx+FTsuXVf4QvFRSDDYqRmB4oQDR7sA8eUp9ed1clYNKYwMK3JCeg7g12PiVj/Y13wMCBm/KuQ02UAKQOD19K6KexjU3O78L4bSZd/Lic5Oc87VPFbKgBue1ZHh9i1lcAADDgr+QrXXDY4pS3KjsDy/J8vGTipM59KayLgAgU3bznPtUjHkgjNQkZbPpT2Hy4701hmMkcHHFAj5x1Wc3OtX0pP+suJCB9WNfQtrAllawWyEBIo1QY9AAK+drWLztUgjJHzTquevVgK+i5sKPaqq9CafUeWDdqAM5z0qIEe/oKeTisrmovQfWk7ZP6UFgP4aUuM9MUhDQpBz19BSZZgSe9SntTSevamB4x8QYvK8V3bcYYIfp8i10Uvg8eK/DWiX1rcrb3cNmkLFwSrqo9uRg5/Oue+ILA+Kbs9ThP8A0AV6T4NVl8HaYDg5i3cDHUk/1rZtqKaM0k5M8c1rSZdD1iXTpZFkMaqd6jAOVzx/ntXrngKUt4O0/wBvMGPo7Vw3xLjKeLImwQJbRD+ILA/yFdd8NZhN4XKf88bhkHPYgN/7MaJNuKYRVpHXKBnOOTSkBgQRkHse9PXHfH5U1hke57VkaXPP/F3w9t9Ujlu9KRYb0ZZogQEl78eh/T+debeHPEN14U1dt6ubcttuID7Hr9RX0ExABFeUfFPw6kbJrlsgG4iK5AHU/wAL/wBD+HrWsJX91mc4/aRZ+JHiBRoFpa2U25dR+Ysp6xDB/Ukfka8wsrP7U8pdtkMKGSR/QDsPckgD60ySaWRY0kdnWJdqA/wjJbA/EmlWZ0t3hUkJIwZgO5GcfzNaRjyqxm3dkY6dMHvWxpM0S6Fr8Xl/6Q8ERR+OFEqhh+O5fyqx4V8Ly+JryeJZPJihjJaTGcMeFH58/QVfl8EappOjare32xFjiVUVHzvPmKc/TA/lQ2thpPc43aa9D+FVxtvtRtc8vEkg5/ukg/8AoQrgBjGfaur+HNx5HjGFMD9/FIn6bv8A2WlU1iwjoz2JvmIyPxpikpwOT71MQCeOM01lXPK854rlR0DRHgLyATyT2pZXMSklTt5O7sB70TEgd8D9a5rxfrJsdJNqhHm3OVI7qnc/0/E+lUlcTdjz3xHqP2/ULm7LH9421PZR06+wB/GvRvBVmbDwpZq4AeUGY477jkE++3H5V5fY2Da5r9rpykhJXxIR/CvVj+AB/SvchBHGAFztQYwauWi5SI73IjGSTxx3NOWHgE556Cpd6DjOKN4IGTxWZZQkJZmYAlQxGfp3pCx9OtTMisSCBgEgY7UxV2nGDgUgHZ+UAqMdd3rULKh+XI5J4NPdWHTofzxSMjs47Ad6aAidGCZU898UiblIJBpXtpCv+t6ddvGaFLjbvfn0PahoCVlwvJK5Bx7e9cX4gs4bS9jMYPl3AYj0BHJGffqPoa62WYsu3PI4FYHizU9NstJ8q/BkMh/dIn3twx8w9MZFHLzaG1HEOjLmRzBEisAQcdQfSpW6AkD8qp2V/a3wYW7yfKQCJFAbHrwfr/8AWq7yTnGe3/6qzaadme7TqRqRUo7F3TL5rG4DHPlNxIBz+I9669WjdFZG3IwypHcVwYO445wR6VuaHqRhcWcxBRv9Vu7HuKcWceNw/MueO5vMwUnBIAHQ96iG5z8o/wAKndQ75MajinBVUHHft+NaWPIuReWSvXv1oOFXGMZ9O9TMrsSQP/r00xnsQSetKwXIQOfUnpXmnju3EPiQSAk+dCjnPtlcfkor05lC8nt0zXGfEGx8zT7a+TnyXMb4HZsY/UfrVU3aRM9UWPAcgl0eSMsN0UzYHopAP8811QXPO8L7GvOfAN/5GrSWj4C3Mfy+7Lkj9C1eiksOQu6lNWkOOw8Ajrg1FcSbEBBA5706EHOXXaT39aV1UsA+MUkUNjJI7Akdq878R6mNT1mWRWBjj/doccEDuPxzXU+KtYGk2GyJiLqdSq4/hXoT/hXAaFZSatqkdqD+7zukJPRB1/wreFlqzKeuh6V4OsGstAjkdWElyxm5HQEAL+gB/Guhx2yDx0/pTbd4xEqjaoAwAOg9qjaT5jgg+9Zt3dy0raFXWxnw/qGP+fd/fsa8z04j+1LLIwRcx/8AoQr0jVGY6LexqBlreTHPfaa80sJo0v7V84VZEY/QHNaQ2M57nruApwe/TAzQFwQc8e9V1uI5U3JKkgP8SsCKUyhV3buFGTzWNjW466tYLq1khnQNFIuGHqK8gvImsL+WPcQ8MhCuOOh4P9a9B1nxfZ2MTxwET3A4VQcgH3P49Otec3Est7cs7fPNI2eB1J7Ctqa7mU2ewabeSXumWlzIOZ4w5GPUcivJNUs/s2rXEScqsjBR3HJ4r1rS7d7HR7S1k5eKFUOOgIHP9a5/UvCn2zVjdLMEjkYGQHr74/n+dKEkmxyi2gstLlg8DyWkj/vXt5GwOxbJA/lXnjfuU5OWPHNeh+Lr42emx2MTFWuBtZg3OxcZ/P8Axrzm6bc2QOMYqo66ilbY9G8K6Sum6Ssj83E4Dv8A7Ix8o/L9Sa2QTkfMetVtPuRPpNm5G0yQRv7ZKg1ZU8A45Fc8ndm8VZBuC44BPoe9KJdy/MoAPBHpSHoc81naperp1k8xwT0RemSelStXZCnJRV2Pv7y3sBvmlC9wvdvoOtcnfa/dXRZYgYYm/hDc/ieKyrm5lnmaWVtzsevpUe4lsd/yrrhSS3PGr4udR2joiwGkY5Ykn1JzinAMRnB9a2Lbw1cNbCSaURux+4OePerN7okcGntLGx3IMn6e9X7SN7GDwtblcrGPY3c1lcrKmTg/MuevtXe28guYFlTlWGa82LHOc12Hhi5mOlMu7IjcqB6Dg/zJrOstLnTl1VqfI9mbLRgcZ5pVUYbHHr707cr5yO/UUqx5O4tn0471zHsiDaOp596DACM9QaaQoPBJA6U5QNm0sST/APqpDQeTlcLxjuab5OPunnODk04gtwM4PvSopRMD9aABUCknIwRSlkj759Pem4BOOKkARjgDpwKAGhg7cHvjinhcrgrnPOeuKRY13Btx4pZGCI2Dzj1oAw72MPqRIUbRGBzz70kKL/adqo+ZtxJ49j+XNLKwN9OpOSoA/SktHB1m3R88h2x6cY/rW8djF7nTE4j5xkgZ4quSMjHcZ5qadwEPI56fWqy4D9iD61lJ6msR7AjoBUZPWpSeQfWo2U5IwPXrU3KQLw3oO3PWlA3ckBeOnpTWUA9frUiEbsHODSAcnIz/AD7fhQzYwBuPGaU/d5yD9KYcEnr1piIwASKcIy45yBTlXAOcc9Kfg470hjAoUHBPrRT1XjOM/WikB1wyOOakxkVHu9TTkbJNMkUKAPrTuoyKU4xzShSRx2pgM/GlGelL19qTjvQAdKTqKXv70re+KBDSONppojK/xfhSg5604daAIXjDxnjaw6VBgFSCORV3AIx61WkhIbcvNAD7KQr+6Y+4NTMpDkcYFVccgjgjmpo5DJyVPvVAydV5HcU9mpgIJwBz16UFu1USMmTCeYnJ9KIpiFVdpPY5NO2kAgHr2pEbJKN94UJgydiADyOaRBknP500jfkOOPanKCAORj3qiRQqhjx2prDcMA4NB4wQP/r0FkDAsQPrQBE685x+NI6b4z14p5yx4wU9c0jg8bc0hkMZ28GpMjI4yRSMh4OOKQEGoZQ4sMjPTNJIoPzDv7Ujc4p0h+THWlYZheIV8zSrpB/zwkGPwrirCMRy5jYkt04/Wu81Vc2UwPBKEfpXn2nOAIi3zEgYzzzjBrensYzWp33hsAC8wTwifj97mtiPG/JJ45rD8NjE96Oc+Wv5ZNbeAO3aonuVDYR2CMMEsSetALD+M9aE++M+lOIxUXLAOQ3BzilLkgjpn0ppFCgbuf1ouB87uhtNbdQMGC4Iwf8AZb/61fReCOMfL/OvAfE9sbTxXqseRu+0M4PT73zD+de8WVwt5YW0yYxNGsgx6EZrabvYzirXH5fAyBx6Uw5Lc4H1qVkIHBAqs6MOHHWsiyUqwAPBPoDThCzjkgH061CCVHBOB0pRcndt7g0tAH528NjrikOTyOaed0gzjJ7VBLOlvC8kzBEQEsxPQAc0rAeJ+NLpbjxTfuCdok2e+VAU/wAjXsWhwNa6BpsDAqyWsasPfaM14ftbV9fjRzte8uPm743t/wDXr6CzkcgdK2mtEiIdzzX4qWp87Sr1V+UF4nbP0K/+zVY+F0+Y9TtifutHIB9cg/yFaXxItBceFDMCf9GnST8/k/8AZv0rkvh1cCLxQqNn9/bsg+ow38gauKvAmTtI9cLFTtIwcZprSleQMmlxzljnIxmqtwowWEuO2MVkWNlKuxcjBznisHxUkV54Y1WKRQw+zOwBP8SjIP5gVtEKqZJBPpXIeNtdttG0h4WRpLi8jeOJBwBxgkn23Cla70G3oeKM3XilRSzBQCSTgAc5NNIwM133w18Opd3razcYMVrJthT1kGDn8Mj8fpXQ3ZXMFq7HfeE9DXw/oENswAuZP3s/H8Z6j8On4VP4niWXwrqoI5FpIwI65Ckj+VaudwHABqtqclvDpl1JdECBYm8zPI245rlvd3N7WR85jjH4it3wfcC28VaZLtBBl2f99Ar/AFrn1xxmtbQX2a7pbk4CXcTE/RxXU9jBM9/Xntmop2xxtPv6VKFygAU5/WoLueK1tHnuJBFEvVnOAK4zouRz3SwQS3MziOONdxY84AFeOa7rT6hfz3j4G/iMZ+6v8I/qfxrS8UeKm1h/JgGyxjORkcyEdz6ewrI8PaHP4k1ZYeRax/NM+e3oPc/yreEbaszlK+iOr+HukvaWz6vMp8y5BSLPXZnk/iR+g9a7hZmClTkg+9I1vFAqRKoQKNoAGBgCopARx0PrWUm27miVlYsONxBU8HsacjHG0f5xVeMtx83vyasnA6D6ikNEUu4KDg8tnihJCcgjkd6cykuDkDt7UiQnzF/uj5vlPX2oELvzyUwO1MYtyeoFK4wRgEA9T/SmbmAA65PpTuAglYMVA9zULK7Ek55PFWo0Vvnx+lKzBhjPPpTApMnU9cc5riviHp001ha3qAtHblhIB1AbHJ9sj9RXeySBMbuorN1TWLLTrUyX7osLHYQV3bs+3finHR3QpK6PPvAmkLfXt3JIhMBg8sMOCrkggj6AH/JrXuLdoJngkXEsRxx3+nsa6jSbrSLuy36R5fkhiGVF2kH3FRazYNeQq8S5nQkJgfeHcVNRts7MFX9k+V7M5R043LwCeR05ppJ6HnP609ssu/HrnjnNNwejYJ7H06Vke3udZoeqpeW7RXBCzRdz/Evr7n1rXaME5znHOBXAwTSW8qzoArL0yK7TTLtL20E6gKzcMB2PpWsJX0PGxmH9m+eOzLLnAGc9cU1QNoODjPX3qQ4BIPp3pjLuAwWAHGKtnCMaNWOVc5HY1W1LT11Owns5QoSVCCcZKnsfqDg1ZCgZJBIIxx7UnmqcgOAPpSA8VmiutG1Mo2Y7i2kzn0Ycg/TvXp2i+JLPVrdWMyR3GP3kTHBB9vUU3xR4ZTWohNFsjvUGFduAy+h/xrza902806Qpd20kRHdl4/PpWllMjWJ7LJcQBAzyouPftXO6r4rsrRGS1b7TKf7v3R9TXmnm7iOSSDn1NaVjoWq6ps+zWrrE5xvbhfqaXIluDk+hVvr261W/LvulmkbAVRnJPQAeleieGvD40mwwWDXMoUyt6H0/DJpNC8K2uiqJpNs94efNI4T2UH+fWugTA5bkY7VM530Q4x6scEKgdx65oEhHXP8AjR5MWAU3D0Of8ajkDhgMAqe9ZGosmx0dGwodSp/EYrz678MXlk7SopmgQ8MvJx24/CvQPlYAt1+nFSg5GARVxm47EyimeUvcyx/dZlP+9io2nkdSWdmJGDk5r1g6Za3AJmt4pAwwSyDn8ahbQdKJDfYoAwOAQoz9K19quxm6bPL7SyutQby7SFpW/wBn+pruvD/hZdLl+03brNdj7mB8sfuPU+9dGsSQoEjVVTsAMCnE5A44HFTKo3oOMLDy57YFRsxXkngHH/16lCj7y9PQ1h+KL/7HpbRq2JZ/3a+oH8R/Lj8RUrUt6HEeINR/tDUZ5w+6LOyE9go/Hv1/GsYxneyspBU4II5rb0LTv7V1uKFgfJj+eTjsO3tk1T1XB1u/ULt/fyAgH/aPGa32MN9TvdBIbw7Zc5AgVRn24/pWiqhVwTkdz61R8O2+NBsjuPzR5Oe3JxWntKuBjI9RXK9WdCehXYHnjgnpWdrVh/aGnPAhCyAh1JJxkf8A1ia2ZCpHPaq/BPHUmknZ3QSipxcWeYXNtLazGGdCkg6g1HHwVPGAc+1dX4utFaOC6AG4HYzDqRjj+R/OuVVRkdT713QlzRueDXh7KbiemRtFNCrxsCuBjFU9YbytJnA6uAuCOtSaTIp0a3k+UDYM+/uaxvEGprJL9mhIKocsffFc0I3nY9PEVlGhd9Uc95eXAP45rr9AgaLTt23Bclu/0rl7dfNmVecnjjqa7+3gW2t4kOFUDHtW1d6WOHLYNzcn0HBDnLAfTNNMhLbVPHr6U6YqcjtTMDp+Wa5Gz2xvUhQeTgfWpFGFxzn+tNHXOO/pTsNnBFAD859RSg8Ac1GSe4waTBwSenrQBKoHIP8AOkkUMrKT1Hr2qJg+eAeKAzFslupA/lQBKi7RkEc+lK6/JgD8qjVQMDzD9OlTuAEVR27k80IGc9Jxf3JII/eHp24FSaapk1vJQlY4uHJ7kjr+X6VXg2yT3TFmK+YxUk+5/wAKu6Fsl1a+zGQ0axqCBjg5z/StYmTWpvXBViGYjI5HtURyMgDIPA7VNMo2oc5bnIFQ4PUgZ9ayk9TWOwdD3pPc0/GM80m3OR+PNIYnUdPWlWMKoJ6fXFCrxuOenSpQwb/DtQBG5JbFDKGHHXtinnG3pTenNADRjHFKvrke1AALbjjNK6qCcNx7igY5Gwc4ooKjYPm7enSiiwHVZIPHSpFUcfyqNOCM08dd1MklGcYPBp2MdaYjbhnNOxQAmKCoGKXGOR0pOSKAAcN1pGPalHTmgpmgBoIp6jjvTApHWlBPQkUCHHnGKjZSDnipB9abKTjHFAyJMK2duQacAVbAzg1GeeDUoHygj86aYEqjByR83QUHr602Ntxxnp609uuMEY7inckSmyjOGXr3qDzTDKI5QcH+LNTq8cg+Ry1CBkoffHlevoOKRQwBB4piHbyAT2JqRpFyuCNxq0QO3AdR/wDWqNtrLyAR0FSgAjnFMYBeMHGfSmBAPNiUbFDqPfBFTqxzzjFKBgfWmuMYwcUDB1Ux4wf8KiWM1IHfbgj8c9aQZ3YxxUtXGhCwHAGW7L6/jTScjLDZjsTTZvlkB7H9KbLudQRzjvSGU9TidowUIxz3xXnVmP3EWE2LtCE46nA/LrXo94D9mDFiM159ZkAruHRiPl6Zyf5f0rWGxlM7Tw7IPtMkefvRZ59iP8a3DjFYXh0KL5+cuYTjvnkZrX3N3NRMqGxIFwuc80/GVznPtUYwcc1IqADJbjrzWZYhpo4+tOO3t07ZpjDvzSA8i+JdmbfxTHdDIW6hU8jqy/Kf02/nXdeBb37V4UsHY8xKYT/wEkD6cYrG+J1g91okV4E5tZev+y3B/XbVb4XX4aC805zgqRPH1PB4b6c7fzrV6wuQtJHo7NuGDwBVd4pgCQ5KHkCnsM9qlRSFwCahO5diopkTG4ZXtTsRsAwyGI6elWHTjOB+VV3jKNkD9KYCksnAZgOtYPjPUmsPCtzhh5lx+5XI67uuPoMmt9TvOGOCRxXlvxG1n7Tfx6dGw22gO8AnmQ/4D+ZpxV2TLYz/AIfWjXHi+OYj5LaN5CMcZ+6B+v6V7MPnAI5FcP8ADHS2ttFmvnTBvHO0nPKLwP13V3YiKrlGGT6jNXPVkx0RleIrH7Z4c1G2wrM8D7Af7+Mj9a8d8M3f2HxBpc7McCdUZvZvlP6Gvc5WZjyq59u9fPF3HJYX1xArYa2nZVIGMFWwP1FXTejRE97n0EzInG8sOuDxULJE67tzdc9c0yMrcwpMMFJVDqR0wRkU4hQm09Mdqxua2IzHt6turzn4rWkbW2nXAlxMrNGIsdVIyT+BA/OvRM7OM/jXjnjnWv7Z1t/KkDW1sDFGQeCe5/E/yFXDcmWxxuwhuteofCu6DR31g2CARMgz0yNrH9F/OqHhfwlHq3hLUbicBJZz/o0h6JsJ5+hOQfYVymj6vd6FqKXdoy+ZGSpGflYdx9KtvmTRmvddz6BdBGpJOFHJOa8t8f8Ai5bstpNhKGt1x5zqeHbqAPYd/f6Vj6j488QalFLEbkQxuCCkK4OCemeT7Vy5gZic9O2amFOzuypTvoisCN3NWEnMeGjJDKwIIHenGFc4YgcUqrHGBlvyrS5Fj0fUfichG3S7J2f/AJ6XJGP++Rz+orkNT1nUNZk83ULppAOiDhV+gq7pXhLVdUgjmtrdYrdwCJZWABHqB1NN1zS7HQITA1wL3UT97acRxD6dz7H/APXl7qdkW7tXK+keHb/xDMBChitQcPO4+UfT1NetaRpFrommpaWmAFBLE9WPck9zVPwbqjat4YgmeFInjcwlUXCnHcD05/PNbe07DlT8vQ+tZzbvYuK6kDSGKQbuQRg1KZInXaWGT0A4p7RLIMEA4phiUJjbyeKi5RDJ5ION5XPtUwVMYV8/jVMwyAlccDvUyxtGOefagY91XBO7Of5VH5LDaQxxjGAcD8aeyfJ15+tQgEEkEjpyKYix5Tuo2sM96hkhmVgAQByRg9PenBiSSre2D0FSLMQ37wYPb3qtBEI3xKVL5GM4qI5dlJXk85q7jc2QAR60rgkYx3x9KdguUGQHI3YHrXm/xMk23lhbANhY2kLEcHJA/TH616sEU5GPwrzz4nWytBp05UYR3QkdcsBj/wBBNVDSRM9UY3w0d/7cu0BbymtiWAPGd6gfzNemEqCoLEY+euP+G+mpDYXl8V4mkVEJHOF5OPbJ/Su2eSPB3kcfSlU1YQukcxrOmeVvvouVPMq9ep+8Pz5//XWE65GONrcq1ehtEpVstkHrxXH6xpv2C4DR/wDHrIflI/gP93/CsXE9fBYm/wC7l8jLXqVIG70HStDS9QOmXG7BaJuJEHceo+lUcFj94Ej8M/SmnOOOh7Uk7M9CcFOPLI9BS4iaIPEwcNyPeojKxPMYGOBg4/z2rldL1N7OTy5SxgY9udh9fpzXUCNWAcNuzypB4NXzNnhV6DpSs9gzuPzDHqacGRuHQdfypAT3OBj0pNoXvgHii5jYcsQxhGwDyw/lQ8SSfI+CSCAD39ablBjI7cY/z9aTcrYVWzg8AinzBYgSwt4pCRaRfdzkKMk/hVgLsXITAx39BR5xzjhe+T2FOO+ZCq49frTvcViLy32q2/Geit6UI+4cqFp0m/7m3HTntilMYOQp+ZcdaTQASDGAO3Q0g3dzzTVAD/MCD+hp+cD69KkaI9yMeQQfp1pwCrluc44qKQYY05DuUdc9qCiwk2cDdwe2KsKAQTnOazQSGx0xWhEwYDn9KaExXx+I/GkUZTnmhz0IxnvzTVJTgHigQ8fKu0HtXm/ifUje6rIAx8qH93HnP/Aj+f8ASu41zUV03SZbnHzkBIwD1Y8fpyfwrzjT7FtU1WCyGTub94f9kckn8BW1NdWZzd9DsfBenC30v7VIu2W4bOPRBwP61wt24nvruVRhZJnYc9ixr1osttbM4ACRISB0wqj/AOtXkKk7N2c55yO9Cd7sUlZJHqehoY9DsEYA4t0PHuv/ANerhPPyinwQiG2jixgRoEA69BgUFMjODz6ViaLYZt3hsr14Ax2qs8ZQHCkgVazwR6jFMIIPIPU0DOf8Qxebosp28hlI+uRn9M1xSrhueg6iu/8AEPlpos/y43beR9RXCbSWwB1rroL3TxMwf735Ev22fylhEjBEGAAajyenX2qxBYXE3McDuOxA4rRTw5fFdxVQvX73b1rRuKORU6lRaJszraVreVJ0A3IwZa7jT9Qj1K08sL86deOnpXFywmFyjgqRxg//AFqv6JefZ9TjAPyv8hz3z3rOpDmV0bYPEOlU5XszqhC4+UnPoaVYlZiC4GO1SliW6ZHcelJ9nx91icDnI71x2PohrIFGQdw69aUAsm7rijJQ4OR34qZCxwce3NAEIQ+1I6cc4POMVKV+o9MU0KAM9cepoAYCMYVT60m0EliSDn8KmwNoxjFMCHP8jSATb84GP0okycsF6d6dsbP3cH0HakmylrI7AjCnGKcQZzWnrtBfJGecGtXw+PMutQl3H/WhcDoMD/65qhZhltVbJLDHNXfDEbiG6lJ3CSdmDdcjAGf0rbpczW5tzDODxwMc1GASx9PXtUsnDAZ/wpUII49elYM0IWTpz1NSAKOo5+tKyqBk9PQUnJOTyc80wD7zDJ98U3+LH6UrZ64/SlGcck8+vekMbtOOnHoRQRkdcEe1L7nrRycYBGe9AxwUAf1pQm5evPpSqrAcjOOmBTgARkdKQiJiM7eT+lFP2gsCQMg9cUU0JnVBeTtzSc9MVPjAPpUMgA74NMQxf3bZGcHrVgE9xVbLEYFSKpHOcg9famMkbgEZqJic8HipH+7zxTMEtjGaCbio+4En71Sj7vPGah3ADLce9L5iHoc89qRRKaYzAU1pCPpUakux3YxQIld8KD6037y0wkFsCpFNJjGbTzQGwOKkIJFMCYbp70IBo3FuDg1KLjDYkGBj86XI7YzUZTc657UwFmyUDx4aM9R3qJA0fzQ4z3UirO4Y44A9qimt/MAaM7XHOM9TVCHrOSNrREMTye1SEjPGDgiooneMYdTkcH1FPXypX/dvyKpMlolR933eopzbsYqkJTbXBXHUZwe4q8HyONu70pp3EyPBY9TQ4ycUo2onShixHB/GqEIVbbnNKpATOc02FCu4k8k9Kc5OeAelJgVS+58NyAeKfl16gBfpTWTDZ5x705pJFUAgFWBHvUFlO8mO3hQFHrXn9tkXM+5VwtxIAAMdGI/xrvbhW2rnHByK4a1h3ajdJuIBuX4J6Ddn/wDV9auDM6h1+gqBfggnBhPH4itaOQPkEEVj6GXivYUyOQwPPbH/ANYVsSR7WbknnvSmhw2Bm+bpTgx45pFTdyeKULtI3VnYsdt70nO7B6U/egwM9elNJcDIGcUWAq6jZR6jp89lL/qpkZDxnqMZrxfR7ubwr4sHnAr9mlMUwHGVPB/Tn8q9vLZ68V5x8SfDrNjXrcZZQEuFA5x0Df0P4elXTetn1Jkup6R+7b5gwZCMhh3B6GjzMHAzXDfDzxEuoWH9lzyA3NuoMWTy8fT8x/UV25qWnF2GnccZc8ZpQ4J5GRULbegHWobm9gsLWS5uZUjijGWZu1K4yn4i1ePRdJnvW2s4+WJP77noP6/QV4za2t14i12K1jJea5lJkcDpk5Zj9OTV/wAV+JG1+/8AMGUtoQRChGOO7H3rtPh74cfTbJ9Tuo9tzcriNSOUj6/mT+gFbL3Y3Zm9WdlZwpY28FpCm2GJBGg9FA4qSSYglQeMYpyPkkSDjHBzURBV3BOVxwRWdyhI2JPXivDfFsBtPFuqwrzum3gY6b/mH869zCFWBxivLfiHp7w+ITe7SEnhU5J6sMr/ACArSm9SZ7HSaJ4t0hNEsba4vPLmhgSJ96nqoA649qtT+LtDhjL/ANoxOB2j+Y/l1ryqy0bUdZglnsLV5ljO1wCMgkemaiHhTxBK20aXc9e4wKbhG+4uaR1Hibx6Lm2a10kugPDzt8pwewHv61x2jaRca/qkVlBuCEgyyAcIvc/4e9b1h8PdYuXVr3ZaRZ53tuf8hXW6nDaeCfB1wunAie4xGJW+87njdn2GSOwpJpaITT6nI+LfECOw0LSn26daqIWK/wDLQrwefQfrWJo2g32uXIis4S3OGkbhF/H/APXS6Jo76xqsNlESpc/O2M7FHJP+e+K9z0rTrXSrGO0s41SJRwAOSfU+ppykoKyCMebVnDWXwxiTy2u9QZuRuWJMZ9snNb6eBfD9rGv+gLKUByZXLEkjvXU+QvDdCDnI71C65Z1YnjkE+9ZOUmaKKMmLR9KgTbHptogx0WJa8EjXNsSPT9OK+jGXyk38MVyeTjFfOyLttT3AXp681pTZEzR03xJqmm2Bs7a8kSBv4ePl9celRW1pc6xfpa248y4lPBJ492Jr09fh9ocsMDtFNE+xd4STgnHOQc/p61vaZoOn6Pa+VZ2wi3HljyzfUnmhyW6BRfUj0jSoNH0mCxibKxLguerE8k/maqeJvEEWg2YCr5tzIP3aZ6e59BW/Cq7T8w+oryjxPeS3utXbSYxG7QIB0AUkf4n8aVOHM9TDF4j2MFy7sksPG+qR3iT3cgmgJ+eIKBge2O/1zXpxKuikEEHng14cECjB6V33gzxAZVj0q5ILKuIXPXA/hP0HT2FXVp6XRzYTFPm5JvfY6/bggc4oIH4VIRg9KYT3Ncx6hEYzjnmoWOOB3qySCCf1qJskjHPqaYyOHB+UnB657Ukm4nIHy460gcBs+n61JsJACkcdRuoAiXCk9QfyIp6XDKAp+Y4HU0x4nX5mAqLGeuDmldodiVriRlHVeeR171VurG21S1MF5Cs0ZOcH1H8vrUpzuCj8vWp48gdiPandkla3tobG0S1gQRwxjCovQd6Cue3Xrz0pZWBPTp6/rS5zyef60mUiNi4AAY8ev8qjkiW5t2t5UDxvww6YqXMYB5I4xzQQd2QQe+fX3oBOz0OMu7KS0uXgZsuv3G6blPSoB0BA5zg9q6rV7I3lrlP9dFnZz971H48flXMMmR5iggrwwxkn8Klo9vD1/aQ13I8jGCeCOta+l6gbR1hnIMJIAYn7h/wrJJAJcHijryTu/wA800a1KcakeWR3O89qazc7fb+VYujamW/0SY7n/wCWZPp6GtwHKg+/Q0zw6tOVOXKyPbwTzmm42nI7U9sY4FNwaRmJgkktzUsLfexkHjHpTVbjn9aejjPAGQeKqO4mOfcxIyOB1HWojKyEA5OP5VKy7pASQo9Rxiq7x5CsMnjFNiJlcMvI49+c0140I+UgMOOD0FMJCKuQcjv6GpBCpAznnkEGjcCN1Zcbjn0poJHNTTAZGeh71Cy/3TkdKllDSWPzc9etWIpcDPH5VEvmAjoR6NUnHTgCkMsB0bBGCT0GaRmXkgsMdgeKiiUr/wAtTuB4z9KedpJJfAHU4qriZxnjTUTJdQ2efkjXzG+p6A/hz+NTeBLL5bq/ZM5Iijb0xy2P/HfyrldVvft2o3FyCSHckZ4wvRf0xXpeiWX2HSLSErtdYhuGejHlv1JreXuxsZJXlcNem+z+H72U94yi/wDAvl/rXm+nWxutRtLcEHzZkX2HIyf5123jm7EekwWwIJml5H+yoyf1K1z/AIUt1uNfi3D5YUaTj16D+efwqY6RuEtXY9HdskkZ/Gmgkpgjnp0pcevJoGMHt/WsjQiJGcA004bcM/nTpMA5/HpTWUEZ6HrQBma2y/2ROrkFSBzj3FcVbxYYkjOT19BXe6haxz2Mqy4CFcliOgHNcI0gW6ARSMdBmuqi/dPFzFWqps7XSbfyLCLhSrLnp6mnahqFtYws7EZHRBgk++KwZNZvABFHiOMrjGecVkyEsCWJYkd+alUm3eRrLHKEFGmhNQvH1C5aVhtXGAoHQdqfpMDT6nbouMBw3TsOajWF5JQkKFmPQKvWuu0bTo9OjLuAZnGCR29q1nNQjY48NQnXq8z23ZpgbQCRyOvFIZZJGwhGO2e9PLDPQcc0ioBlu+eK4j6Iavy9cZPUU4N1x60pfBIxx600jvwQaTGOyTn37Uzr16ZpTyOT/wDXo29h1/nSAAMAbjk5796dt7NjBHSmoWJ6mncnknntmgBQxHBz7Z9aq37bbS4zuzsOPeraj5s84qlqpRLKQ98qPbk4qo7iZjRuWg2cqW5BH1rV8NpHHp2YlCq7sxx3O4j+grGumMULS5ChQD+HpW54dUJoltwoJXdwMDkk8fnmtZbER3L8wDOSCTxihMLk9OOaV2y5JqLqOvtWJoWiN2cdPcVHjH1ozkDB4/pUh+bmgBhXJ78U0Djr+NTcZB9BSEAHoKBkewjt+VOVTjDY/CpV9+tDMMHAGemTSAQkH+VGM9B+FA6Dj8aUD8BQA0/exg9fzop/aigDqaaxyMFRn1pzA4zxzTGzimIi2lDyePrSoQAc1IcYPA/Gm4B4AxQBHdTSLbgxAcHkmi0uvNUliA4/DNSRkB/nAIPrT3hiBJRArVSRLGmPcDlc8VCsQjYn9M9KsxiZXO5wVI7VC8PLfMTzQFxhO4Dkn2pVUqckU4KF4Ukn3qXOEOO4pDuRbF6kUFgD0oByCMc0mxzztOPrikMkQ55xSuQF2+tNQ4Hp7U4ikA0A55o+ppcjuaTBbp0oARwSveolAV8g/hVojYoGQfpUDRl3bgYPp6U0ItEb4xkkH1qrJGynfCcSA5JHep1jxDtNMw27k5Xv61bFYSRklA82IBxUix7ACM49TTmKsmCBjt7VDA5WTynYkds007MVibLMRyCmKXp0OKc2EHTFRlixBIG08CquSORi2QfzzTgGzzjikMYPuPekfhTsH4UARtiaRgOQDg47Uj8nGKekkakjZsfHIIoIyCykA+lIoz7oYbbyeOlcOtuF1e9J/wCfkkr69/8ACu8vgdwdV4xiuDuyY/EN6gPO9T+YGKdNasmex0mkD/iaWgXIXcwAxwflJroWVmlc+pP4VzOlTN/adiGQlt5yQeh2muoz874XB70SFAVhtXOPlA6VSE8gOJFOWPbsKsTHeu3OD61DbZQvubq2Rx6Vn1NCw8cbEjmlztPPSjI7iiXBQnB49OtNiGGMMc0ktvFcQPFMoaN1KsvYg9aAcccjHrUi/NmpA8V8SeHL/wAH6sl5Zlvse/dDMpPyH+63+ea63S/iZpc9qo1NXt5wo3FULKx9Rj/P1rubq1hu7Z7e5jWSKQbXVuhFee6v8LrWe5Z9LvDbKeTFMC659iORWqlGStIhprYdqHxO0+NCun20s75+VpDtQ/1rg9V17UteuQ13Lu5+SJBhB7AfWust/hRcNMFudSjEeckxxknH5jH6122ieENI0I+bBb+ZcHpNN8zD6dh+Ap+5HYPelucZ4N8B3DXEWp6zDsiQ7obZ+rH+8w7D2rvdc1GTR9FuL6KHzpIwAiZxkkgfkM/pWqAAeK5f4gXqWfhG45w07pEhH97dk/oppQ9+aTCXuxbRx2n/ABL1JL5F1Kzge3Y4bygVZPpk8/8A1q9NgmSeCOeAh45VDqR0IPIrwB7g7i7fM2cjJ717J4GlaTwbp7OSTh8Z7AOwArqxWHjTipI58PVlN2ZvsNy5HfisXX9Ch1yw+zTMVZSGjkAyVrZJJ6CmsQeR0riv1OuxgeG/DUPh22ljSQyPMQzk+3TitooM5xTu+OtLjH1qW2wsQOAo6V5r8TrsPd2FimSERpXBPHJwP5H869OADHBGfrXj3xEdj4tKMMBIEA9xyf61UNyZbG/8MrDbBeaiVBO8QIe4AG5v5r+Vegg85Fcv8PIlj8J27hQDK8jtjv8AMV/korqyFIJUcdfrSluNbAr7eCflGc1GCgYZYHPWmeYVG05/GmkAAsFH1FCYyl4hIg8O6pcxP88VtI6k+u04rwhYi8axICWchQPcmvZPHV2IPB12Ek2PLsiA9csMgf8AAQa8w0O0kvfEWmWsfX7QrnnsvzH9Aa0g9Lmctz2yRwAQowR0qKaWQ7Y1VmJyM9hx1p4hbOZGzzxT/lx1yayuaEcIEUWegxmvHbyTzpZpSfmkkL5z6nNer63cLaaJeSlsYjKjj+I8D9TXkc/LlR2rooLRs8fM5e/GPzK7Ekcjn2p8EskE0c0bFHjYMrKeQRSmM7h056Um0jt0rc4FLsesaHqg1nSUnB/eD5JV/usK0CWUkE5ArzLw1qx0rUAXOIJSFlHoOx/Dr+deleYQNyfOPr1rjqQ5We7hMR7WGu6Hck4z+OOKj7YIGCeop6ncoJVgSemaSXcUyFzj0NQdZVb92QR1/lTkm3AKFH49aa8bHJwfrUSnYT2+lAE0zOR90/XPaoT04I6d6mVwV2d6FAQcHAzmlYLgisrbgqg44/Gqmo6rZaTbie9uFhQEKO+4+gFXXYldxIx25ry74lRypfWDPKWQxsqp6EHk/jkflWkIpuxEnZXPQLHUrPVYfPspkmj77eoPoR61cWPPU9K8u+Gsjrr1ygJ8s2xLL2JDrjP5n869W6ggAADrSnCzsOEuZXIHABGBzig84Bx7ikdT1ODjikHCgdsYqShrROVyvrmsPVrEwEXar8rECQehzwfx/niugWJTxuIzzj1onVfKMTjerDBBHUUjWlVdOSZwjIQNy8xsecjpzTSuIhngc4/nWhcRCxlkjlBVF5Uk/eU5qo4jK4jfen6jvzmke3GSauiEB1KtHw64Kn3rr7O4F1bJIBhsfMD2PeuTYtDGHBUMfXtVzw/qch1L7M4BVwR6YwM/5+opo5cXT54X7HTsPfI9aTrg5qRgGHt701QB8vGaZ5Q3BUGlQ7SMHvUmMdRx6U3bgDGTQBIrKzYOAf507YCAD19elQIdjZ9qsI+5csvbqKadyWiCSIFQCxx601QUTlskCrLIGGVIGDn1FMaMsfvYosBEW3/IVI4pHUp0Oe5qRmCDoTgdc9aZM21QQARkdOlIaG4JHXJHekxjO79ai8zL5PB9qUy9NqnHuakosDGPx71S1q4+yaDezA4IgYKR6kYH8xUwbdwV5IFZXihs+Gr0Z/hH4fMKcd0J7HAaZGLzU7W32kpJKisB6EjP6Zr2MuSOg78V474VYnxNY84y/f8A3TXqGo3407T3uW5YcIpPViDj/PpW9Ra2Mqe1zkfFt0bvXHiVi0dugQc8burY/PH4Vr+BbP8A0e6vTjMsnlrx/CvX9T+lci/m3FwkYBe4uH2gnuWP+JzXp+nWw03ToLRMfImCR0J6k/mSaU9FYIq7uXSoHrTSAQR2/KodzbhjORx04p+8g/M3ArI1FG05Jwc0hH0GeOlO2nGccdaQkfdx04pCMzW45pNLlRDk45Kt2zz+lcatrKZgxGfUmu/cMTj+H3H6VCbeMuWMak5zkjNawqcqscWIwftpqVzkBDPOfLjhZg3GB0/wqxF4eunUtNtRCMHDc5/z3rqMBRkAflSZJ7dfeh1n0Jhl8N5O5StLC3svliQ5PUnq2KtEA8kZ5FSMgZR254pyw85I7cGs223dnfGKirRQ0Z3ZP1zUpcZxkHHYDNV5QCwQEnHXFOii2oSMfMec0ih7cA0ZLsFUH371GQG4Bz/SljZkbPANDBD2JU4/rQCSehoydxIIz7U0btvA5/nSAlCjAHHJ9OlKq4Uj+VRqw25/iNPJwBtHPXp0oGOAKse/PNZurSKLLB5LyKB6Zzn+laSnPOMYrN1cfuoeOPNB6exqobky2MPVPL/s2ZX3YIzxnnvium0NBBpFkgU8QpwR32+lc1qURn06ZGLI/O0j64rsrfHkpjptAxn/AAraWxmtxkhUNkgZ70zZ078VYOdx460xV5rFmqEUY4p+T0FKV2+nPpQFyMbaljFVT3JxntSgY4xQTknvRgk455FACjjkCjZvOSRxx/n0pR0HWhuAKAEx82Py5peGcZGBR15GfrQFJweKAHMDu65opVQkcCimB02e2aAPxoYjjFGcCgQFM1C5Ksam5zjNNddx/wAKAIsMWBP3e9SgAAkN+B7UhXCADrSIw6EU0IAzdOeTTJEwRIpwQPWnBmSMqVyT79KbkMo3dqYrAN0hBxz3qUL1U9DUUbhWOenepnwAGBzkZpiGbgjHjilV/U0pQHjvUePmK5GfY0noMCcMcA4POaUbwv3TilDn7ppxbqCRikUNA3HIGPXNSY7Ypq45p+eAKQEbYpFIzwac2Mc1G3y8gcigRISe5OPSgHjHNIScA9DSc4/rTuMACshxwKbNGWH8iKd0UbhipEHTnIPOaNxDYpgf3UrDeOme9WCBtPHT9KaUST+H5h0NIzlBtPfgE1otCWG7IOCKRsBN27p3FNJ5K45NKicMDj8aYhpUOA2Pm9aXIH+NP4yegA7+tNZQeh4oC5HdRLJHkMQR+VefX4dfEN4ytwdpxnPau6njeMF48lu6noa4jVmeLXZShAd4UJzzjkj+lVEmWxp6awbUbRnBVvMXp+XX8cV152pM46dDXH2UyRSxTOy+WHUsR0wDzXVTFZZS3O3jBHQ8VMggTMgIyRUYK7sDj+tRqSB1xSE7jk1nc0sWOD3FIVx71ED6g4/pSmQ5GDxnuKLiHMmOh680DAI44zzSMwIznmmqeobrSAkkbA4qNcHnGcilJ7UtACgelDEIrMzAAdST0ri/GvjhNAH2CyCy6gy5OfuxA9z6n0H/ANbPlWpa3qursTqF/NOCANpbCj/gI4710U8POav0MpVVHQ9x1DxPo2mx77nUYBkZCq25m+gHNeVeMfFg8S3UUdvG8Vlb52Bjgux6sR+GB+PrXJhR2BI7cVatbK5vZxBa28s0pPCRpuP6V3UMNGm+ZnPUrOS5URGOa4mSCEFpJGCIoHUk4H86+hdJsl03SLSxTG23iVM46kDk/nXI+DvAx0i4XUtSYNegfuohyIsjkk92/lXdA56Vz4yvGo+WOyNqFNxV2NcbelQkEdMc1YYqUyTz2qAgHr34rhZ0DVOeRSsBg9qYFKk4FL6jH50gEOAOpx9a8c+IyFPF8hyD5kEbj9R/SvYjuY4yMeleZ/FOw2XWnX65w6NC57cHcP5t+VaU/iIlsdN8O5BJ4Otgv3keVWPYZcn+tdHK3ykDjIxiuB+F+oE2F7YEkNFIJl91YYP6r+td2xBZevA70TVmOL0GAHOT3qRTjO7p2oKEAnilVWZSFA3AYFQUcD8S70eVYWAwSZGuHOem0bVH47j+VYfw/s/tficzANttYWfI/vH5QPyLflVXxlqAvPFF2yNmKD/R0PqF6/8Ajxbn6V2HwwshFpFzfOPnupdq+6pwP/Hi35VptAz3kdmEYADJNM2gHAyD6dasHBx3pjAY5A4/SsjQ5bxrc+TpEduCQZpBnnqByf1IrzvZmQgd67HxvKZdQiiGMRw569yf8MVy0ICncw5xwCK7aMbQR81j6t68vLQ6HwvoMOo211LdR7k/1cZ9D3P6rXPX9hJp97JazL80ZxnH3h2I+tdF4b1pLG5EMsgS2kyWJ6Kcdf0FSeLLrTdRjilt5lkuE+XKjgr/APWP8zR7yqW6DtSlhlJO0luciq7fqK77wtqgvLFrSXmSADax6snb8un5Vw4hJPQVpaTctpmoRXJI2A7XA/unr/j+FOpDmjYzwuJVGqpN6dT0gZxnjrmmMTnAHHQYpI5UliWSJtyOAVb1FOGOeOvrXCfUJp6ojdGCfePPY1E6q7ZA59qnfO4qTx9KiP1FADQuwHIGcce9RTq4zjkDnOalZhjk8VA3JIzj2xTEPhLbTuHHuK5P4iaYl3osV2Fy9tJlm9EIwf1211KFtvPPNNlWOaOSGaNXjkG1lPIOaqLtqDV1Y8++G8EY1C9mGcCIR5Puc/0r0zAKkDgH0NZ+n6XY6XCY7G3SJCcsAOSfc1eQh/l3D0xVN3YoqyI9pI6cUoj4ySB7VIyDO0HBpqo5B3Y49KhooQL83UcjAqI5Y4/Gh1bcNpOaYofdnvjIBHWkBja/YzXaRNboHcDYV7+uf51m6Hot1Jds93GYrcqy7W4bdxj+f6V1gBGCeARigKZB8ucUjojiZxhyI4nVtJv7e5yF3oejLyD7fXitPQdKeyjM823znHpyM84P6V0pG1NsgyPU1VaM8sn3T1oKniZTjyixyYO1iB+NSMobDVXwc8mplcKgJoOckUE8nODTShxkHpxSlwwAoyPqKBDQD6Z+lJuZT1wc9BUyjnJ/Wo9gLfWkBIkhPO3jH5Ugkffjbxik2+Xy386cOQGXnnv1q0SwdRt+X3yKrk5jwwIAH61YB+Q9T1qAA7uRnmiQIrf5xUiYHPGfUUrLnOB+VIo55NQWShflHFUtTtjdaZdWy8GaJlHbkjj9cVbAB4yPQ01uQQetC3uI8atZpdN1KGcLiSCQNtbjoeQa6DU9ebUJUkf5IU4RQeR6/wBK39c8IxanMbu3kSKVifMz0Y/h0qDS/BkNpMs9/OrqnOwcL+J+uK6HUi9THkktC14N0hzJ/bFyuAVIt1Pb1b+ldk3AOB+lZbazpkAWKS8t1wNoUMO3b8KvWV7bXsQe2uI50xglDn8Kzld6stWWxNGS3Tj3zSYBHbcORkcVIBu4GPyqGRDkgr3zipLQGd8npkDAz60jPtTzZGAHUknApvloM9iTzzUw2lNpAIPYigQmDkFTx3pAuOnUnpTwh/LjH4U4jjB6d6BlcqT245zTlQc/pipiNvuOlDDjkUgIhGPfnvR0XGOfQ08AckCk6nPWmBFsz8xGCfzpxzkZ9u1P7cAUbc9SPwpDIREwGc5HakAO44HGcD3qwBjjP45oJ5wfyPegCDDHkjrTtpA3Y/CpQgznBz1pTxz1zSAhKdeDwelP8oEg81IQCBmkPBP1yaQCqgxkgkn0rE1cnzreIou0qzE5ycjbj+dbO6sPV3BvIVGdyoxxntkVpT3JlsULnezQqc4aZAfpnmuwiClQpwCOwrkIyZdVs0U8eduHHTAz+dddGeS2MgjoauoyY6icliAOKVRkelGTlmIHrxTivGeMetZGiGtjPTP1oBxwKdwRxjFIQRjFIYvPpmn5XB7U0OoUZyexxSk98DmgB3IznB5pMA8elNAbHA4PJpygjqc0ASKBgAr+lG3B+lNBI/HtUgPFAxRwM0UmPaigDoCueCeKCvvTyCelGM9hQSRcgjJ4oPt3qTaR1NIFGfrTAhKuOnQU9QOpP1p7KQCabs70wIzGWYsDUYUtkD8atAEnjpSFcNkUAUzyh9R1FSJIQoGOKe6MG3BBj2pu0DrjnpRcTLEYZ48kjoTxVchvNI/izTowyncCR7VJPt2hgOfWhsRH1b3p+Oc0xcn0AqULheOaRQlP+UDk03v1pGwKAHHAqJnBbC/jQGUnGaDHt5oYCONp3DkVJxs3YqAIexOD2p65wQxpAKWDcYqWNCoyenoKakD53bcj0zUoy64IxVpEsOSp2nB96rEAnDc884qWUlPlX+L36VLGojjw3B96okhOEUYBx7U5SMEjgH1pw3MNoIB9cU1oZAcrhj3GcU0A4gEfN0P60btuc/d69aQHORjkeo5pzE7ecUwIJpFaPIIINcPrH/Iwk4b5rZTx0BBb/Gu6lTzI2AwCRgcdK4rXYlj1uDe+CIDg464Yf/XpomWxXkaOLTZ7iXIjj+ZivWu4Sdbq1huFyvnRrIATyAQDg4+tcZNZLcaQ6faDBDvBlP8AeBPI56ZJHNdk9tHaiK3hBWKKNURc9AOAP0qZhAdHgnBqUQAgkE5pkSlR83XtVgfNGGU8D8jUotkDrg9Djpx2pyKpByOOlSMueG5prs2Tg+mOOlAERQbvUUu35s4pwJyQcc0uPyqQIzjqaYHZW4GamKg8U3y8c0AfPOtzS3Ov6lNMxZ2upAc9gGIH5AYrQ8KeEpfE9zOv2gQW0O3zGHLnOcAD8Dyaf46sFsfGN9GilY5GEy577lBJ/wC+s1d+HerJpfiNbeWQpb3i+Uc9A/8ACT+PH417Tk/Y80N7HAkvaWkdtafDbQLbG+Ke4OP+W0pwT+GK6ez0+2sYdtrawwJ6RoF/lVtXQjAByRTDOqgkqTnpXkynKXxM7VFLZDTH82SSfaogSZM54okkL9iPakAJPTH1qChzEEZHWmdWwf1pr7zxu/EUMZVG4YfI+mDSGKzIgLMwUD3qNXWQHa4PJAFKTHcRqTGTx0IpUiRGL4+bGB7UBYGQqASVwTx71g+LdHfXPD09qgzOn72DHPzjoPxGR+Nb00JkwVzxUAiki29CoNNOzC10eH+FdabQPEVvePkQ8xzL/sH/AAOD+Fe8xnzVz8rK33WHII9c1494/wDDrafqjatAp+x3bktjjy5Dkkcdj1/P2rb+H/i8Lbrot5LhkGLV2OAR/c+vp+XpW01dXRlHR2PRjCAowOc1keJdSGiaPc3HHmtH5cXu5GB+XX6A1oPejY8kgCIi7iWOOleUeMvEX9s6hmMn7PDkRAjrnq38voPxqIq7Kbscv5TzTRW8KmSeVwiLn7xPb869y0zTl0nSrSzjZSsEQjOBjJ7n88n8a8/+HWhNd6k+s3KfuYMrb5HDP0JH0Bx9fpXqGzOD2zzSqPWw4LqMU/KckfhQeSKHjIOVX1zgVWnl8qCSQn7qlsZ9PeoG3ZXPONenafWryUcgSFAfYfL/AErHL5PIqzMXlZj3bn8auaLoi6tfNbmdkxGX+Vc5OQMfr+leg/dR8hG9Wppu2ZWQef59qcpxyAQK7X/hA4V6Xrn/AIABmpbbwZYoN0xnlK87S2AfyrN1oHYsurvSxxaEDgmkeOSVhtOADXXa3oFpb6W0ltAUeMgnkk4rkChIxn8K0hNTV0clfDyoT5ZHc+Fix0cjdlVlYAf3en/6612QsQw4I6HrXMeEiS1xbu3GBIq+vY/0rqwu0cHjH4VxVlabPosBPmw8WvQjId0GSCaYyDoXUcc806YI/wAhUZznJpPIVVwStRY7SHYGOA+T1PFBiO3jJxxUnlhQGxk+3ao2JAzgj8aBERVlUnB4pPLz7fWpwx2ld2c0zBJGRQAgfaPakaUqAcAsOnHSokureaV4oZ4pHT7yqwJFO2Ej0ouwRIt1JxnGMelJ5kjt1xjk+9IIj1B4oGVGMe9F2UKSX4JIIPWnI6pksc9vwprNtGc4IqPDM3P50r2AlzDJyGx079aY6GNgQBgmk6DgCnBzxu+77dqL3FYQkYGck9TQihuhIHpSELydx69MYpoKq4Y53A8Yp3AR4dpzzg++aQRttCtg9s+1SCRW9Tj1FSq6kABefQCiyHcriPbxkU8RsvG3II45pxVG+VTz1INN2y9MZU+1ILjdxVhycYpQSD0JpWiOBmkwAfvYxzTsFwaXcyqYmyec+lL0IGOCfwFIST3PWkV9vXPehEk2zIYDgHr3rPlV1dmycgcCryOGIxnmoZYmYZBX6Gm9Rorltze3epM7hkjbUaqyMcjHan43Y44NQUCjf0/OkBIwMZB5yaVE2Pt64PU05kI6jAz1FAEbMEUu7bVUZb2Fed+J/E/9oyGzs2xaISC4/wCWh/wrR8d6y8GzS7dyC6h5iD27L/X8q4IHBAr0MLRS9+Ry16l/dRYBxyBj6VZ0zVrnSb1J7eVkdT2+6w64YdxW63hEweG5L+4lZbhY/N8vsvsffH61yh4cZ6d63nOFSLsYJSg9T3HT9Si1WwgvIc7ZVzgnoe4/PirZBIyc+1c14JIPhmBf7ruB/wB9E/1rpgVIA6j29a8qStKx3xd0mJtJGcgU2UrDC0spCqgJJ6YGKfsyRzg1meIbKbUdFurSF1WUgY5HODnB+uKFroDKH/Cd6OHKF5iBxuCdT+dWk8YaIzD/AEzHGclSK8ul0++gcpLaTqQf7hpF06+lBK2VwQMZxE3P6V0eyiY+0kepnxfoigk3y9+ik8e1V5fHGirkLLI7eixmvPI/D2sSNxptx2yWTAFW4vCeuSL/AMeWBgHkjpU+ziupSnJ9Dq5PHunL9yK4c9QSoFVn+IEKk7LKVh6lh/8AXrH/AOEH1kthvJHHUSZ59OKsw+Ab5mPnXUUYyOgJzSaggvItTfEGbnybCNfQvJn+Q61AfHt+x4tYB6Lkmp4vAEeAJNRbeRyFj71bXwBZBQHu5yT0wF5qbwGlMoDx7eBgTaQ9ORuI/wA9qsx+P8AmWwO7/YfIP6U9vh/bsSYr2cdMB1H9KjfwAEOVvfl/3Oad4B7xaj8f2bNh7OcZzyuDz6DmtzTtesdSfZFNtfqEfgn6VysngGdYy0d6jMOcFcVx6XtxbXu4EiSN+noQaOSLXui5pLc9tAyc4z7U1uoxz6AVHbXAuLeKZR8skauPTkA8VIW3HGMe/pWJsJIMLjPvWBqKl9TOMKfKAzjk8k/0rekBBHfmsC6Ik1iYDBZAq/TjP9auBM9iDT7crrlspf5gHkAyOeMA/qa7FD8hHt68Vy+nQ/8AFQhnBOICc5PyncOn15/KumT5QTxVTYoDSPmIPNOXAHHHrTGO3I4JpFIbr1rI0HOcYx+lIM8ZpAf4TnPX1pwGB1oAjOScY6U5GbG1j04qby+eB+NATkk9/akA5TlAB0o+8OAQaemduKcOO1MBAPUdKdjPORmnEDPTmjAx1oAYQACDmikkA6GimB0mOMmj8eakYYGOaZkAUxCDApMc5OOKTPJpwzj1xSAQ80mCadkY96C5KkYxQAKRjrzSZ70xMBuxPbJpcb1NABn5s5oVUPLCmk4Xp09KZli2F5FICXaB0PFNIAb5uVpxUqh6ZqLJycnP4UwJFhO/Ofl7Um4hvpTUlMRJ5we1SyKGQMBnv1piGhuM45ppw2QR+NSceUoXj1phI3gEdTSHcWNPcAVKQV4GGB7ikZhEoJUkZx06VKuGwVqkhXIGhbGR1Pami33D5+BVokZxxR2JBP40+VCuNA2DIJpkkuVORz2pGbd3P0o3BVJwCccAnFO4hqKY8ysuTjp3pXkLKCFAFAbzFzjn0600kdO9TcdhVkwOacJgDyQAPWo+M/MKVsbiQo/CncLCzBnIkhIBHbsaWOTzMDGHBwwNQxuA2X3ZPYdqsGONiGVT8vfvTTE0EwCrkcH+dcT4nUnV7VsEfunP6iu2ZjyCwwOlcd4lwb2ycrlvnXpnsD/SrRDM3UpbcaDMJX2I21QAD94HjGP513TushSTgh0DDHoa891WLz9ISTO9lYEhRxyD6/hXoNsytptkwAOYExxjjaKUloECaNRySRkdRUi8xDHOP51HEo3Y5yaeQqnk7eaixTBsheO/qKaQTyacI34O4EZyaTcA2BzSY0N56jFO3DFBORQMD60gGZbIGMUuDmlZ1UbnIA9TwKRXR+VYMPY5pDOQ8d+Fm1ywjubRQb62yQCf9Yndfrnkf/Xrx2SGVJvs/lSLOGxs2kNn0x1zX0g2Cvpn1qsLWAzCYwR+YBgPtGQPrXXQxTpx5WroxqUVJ3ItGFyNGshe5NwIEEueu7HOatvyT09KcD2HFNznvXM3d3NURNgDoc0DJ5PSnNnjnmkwfxpDI2xkZ4FJjmnHr/hSYHv7UACKAcdqex47UgHGaU8mgdxgXceM8fpSlTg5PJoAPIB74pdnc9KQilfafBfWMttdQrJFIMMp7j/PevGvEXg2+0G4Z4le4sifkmRclfZsdD717mOeDVdlw2xlDIT3q4ycRNJngr6/qU9mLae9lkiXkBnzWp4d8JX2vzRzTI8Gn7vmmYYLj0XP869ZPh/Sw5nTTrYsf4vLGf5VcwcdMVTqdiVHuQWdpFY2kNvFGqRxKEVV4AxxVlVJIPbFR/MBnoAfzpUV84IIGTyKzKHZBIAPzHpmszWXSDRrqQ8bovvejHj+ta4jIYvvU9lFUdU06G7sJLaRgEZfmHp6frg1UdHdmdWLlCUY7tHlUhBxtNa/hG3nj1d5I3Jwjbs9MGtF/BksUoaO6V1ycllwRxxit3S9JTT4Cn3ncfM4/QD2FdNStFxsjw8HgK0Kyc1ZIvqzs3LHFPUOGJ3k57Y6UBFUY7dKeOPauM98qX0T3FjPEDl3iZR9SMV5i1nL5uTwBzgGvVZUEkbK3KsMEDjisKbw1bMg8qd0fPO7nit6VRQvc87H4SVdpx6GV4bXF+F2lsIRu9B1/pXX7Rg4rM0nSE09pCHaR2/iPHHpWqR+NRVkpSujpwVGVKkoy3IpYkI3ZOelRGM44qxjmmM3BrM67FRlIOCe9KpHI4OKkK5OTRsAxx7mmIiKAAEH8Kztcmlg0LUJIGKyJbSMrd1O0/rWoQqjkgmobjbJA8TDMbKQcjPB4oQmeO+CpXi8WWW1iBJvRx6gqf6gGvYCCe1eQ+C4wPFdkWGcbzx67Gr2Ej5QR075rWruRT2GA8UoTIySfYUDuSTSeZx0rI0HMgfqOOvWozgsQOMVMWUIMk+uKrrz+PNJjQBSOo4pjkjAGMe1Sk8dPxqPbk5z0qQGMT696aDk05hnI/OmHhskd6YxQMe1SxNzz+dRdRnqQf0pyHkUAOAO4+uafGAGPJA9BQ5GMjj6CgNk4/pQAofHPY+tJubOcKVzjikwSegpSQPrVKQrDyQBwBkDqKZ5ZbkZ6UwzKOoNOEzeYApUj1Ip3RNhpI4z1PNPCll4PB6UMd2NyjPekUc4HTpxQmAyQnbtOOKjBAxkcetSyDg5wfw71XwaT3KJApYDPP1pWhYAFs4yeB3p0eFAyw9s0yRySMjI9c0WEeeeNNCvpdXa/toXmimCghBkqQMYx16AVU8M+Gbq41GK7vbdktYjuIkGC5GcAD64r0wlWXjA+lRkADrg1t9Ykocpn7JOXMU9asZNR0W7tISFkkXg9s5zj8cYryKaNo5GR1KOpKspGMEdq9s3dWB69q4bxZ4fdp31G1j+VuZkHr/e/wAfzq8LUSbhLqRXg2uZFDwl4l/siQWd3zaSPkOefLJ4z9K9KW6iWNpi6+SF3b88Y+teKiPg5B9M1aF1N9nFu0zmAdELEiumphFJ3RhHE8qsd5qni/fmHTCR2aUjHH+zXP6dqV1a6/DIk0kjPIEdWYnzATjH1/wH0rEtpQJgq8knHHeuy0TSrbS3j1LWZ445RzEkjD5fc+p/lTnGnSg0hRlUqSuztgwYtxwD1pRjcSOn5YqjaarYXgP2a7hlPb5+fyq8PkOcDNeZsd61FIwwPPoRmnLypIIx3pu8tnP6Vn32tafpikXVwiNx8m7Le3FCu9g0ReSLqx69BTjgf/Wrm5PHOiRruinlcngr5ZGBTU8daY5OIrgdvug/1p8kuwcy7nRquDnNOY8jv+FUrHUoNRtRc2zb1JwR3BHarQO5uuealqxRIGGMEjPalwCPWmjjjOO/pT1PBOKAA4AJ5IFeOeILfyPEV+uMEyl8dPvfN/WvZAc+vFeX+NIfK8UTSEf62NGHPXjH9K0pPUzqLQ7XwdKZfC1ixOSoZB7YYgfpWy3zEnpk8Vz3gNy/hzbjAjmYD9D/AFrqAEGDx+NZy+Jlx2KkiY2jselYDnGpXUxzy+059uP5iumYZbBHGa5oNGk0rOdoeVsDr1JrSmTMuaUwm1S4JILJGFJH1J/pW2SNhU9KxdCjxd6jN1BkVR7ADIH6mtrI2dM571NQcCHDbunHoeafGpU4NCozHjrTgCTgjBrNFscQCMEUBcdOCKBjBz+VKc5HrTESR8g88d6kULjiolYnvipQML60mMcAC3FPA2GmYyMZp6+hNCACBncPxpTgHGDR+tHqcYFMBpGf8KKXGaKAOkXHf0ppHWmF8nHIFODY5NMQzPPQ4B9KaxzgAYqRhjPNRAEnAFACxt8pGec0rNz70oXBpHXd26dKAGnIbcDg1I2S2QOO1RDJHPTpUwGcZpARsp6Ec0xhtUDHOc59qmIPPeoG4PJGaYDtwbuR9ajY4bipAdy84+tDRDruGPpQA0ONuCM09X+fBPyn0qIEqDgZpy7imSuMUXAskAx9f/r00FeAQDSQnflSOMVIIeSCenemtSQOMcgn1Bp2AvYClXBXIPFBXJznp0FapCbHA9OD9aidtgPGaeCQBuI9smq7tvkURtk9wKTYIfjCbjVZ8tKSasSPn5cEY9ajx6Vm3cpIRTsPtQVwc4yKXbgU9SOAQTSGHVfY00YP0FP45FIF6/ypiI8YOf507ftAYHmlIwMU0gcHuKaBg8ylHbGK4zxk8ojsZYgCwnwRn1B657V2D88cc1yPjEBbWAgZKzg4x/smri7siWxSazW60+WJ1ETRoSjgk9sc4PXmu20tfL0PTELFsWsYJJ64UVzelnzbBklJO7qRweR2rpLI40ax25UCJVIbrwAKqRnHcffX9jp9r9pvblLeINt3ucZPoPesC6+I3h+2A23EswyR8kZxn8a8/wDiXfTXHiYWbMfJtYgFXP8AE3zFvbqB+FZ+h+DNU1/Txc2/lJCZCgaQ46dSPx/lQopK7Ku72R2198V9MRCbOzupZAOBJtRSeOpya5y4+KertKWtra1iXOfnDOfpnI/lU0fwl1N/lbU7VMHqqsevp0rXj+D9qi7ptXlf1EcIX+ZNVaCI94paR8WLgTrHq1pGY26ywAjbz/d9Pxr023uYru2iuYHDxSqHRh3BGa8su/hNfLdbbW9heBuQ0oIK/XHXj0r0vSNNi0fSbbT4nZ0gTbubqx6k/mTWdTl6Fxv1OI+Kt5ewWGnxxO6WsjuJQnAZuNoP/j1cP4a8R3nh+48y2mBhOQ8D52tkdfbtyK91vdNs9Us3tLyBZoX6qw/XPauWk+Fvh7BEZu4wTnImzj8xTjJWswcXe5gR/Ey9zmWwt2B5IViM+3er0PxQsmA+0WNxG3cxkP8Azx71YuPhrphQ/Zrm7iY9MkMP5VjzfC+8D5g1GIr2EqEEflQlBheR0C/Ejw+UJaeVT2zEc/pUR+I/h+MgefO4xwREetchJ8M9aL/LPZ4PPLsCD/3zUR+Guu5I8yz6HB8w/l0zRyw7ivI7VviR4dHWefnj/VGkPxH8O8ZnnBPP+pauL/4Vjrp5M1ln3dv/AImkf4Y66v3ZLNvpI2P/AEGnyw7jvI7mP4geG5M/6ftx1LRsB/KtGHxNoU0Ssur2fI6NKFP5GvKZvhz4ijwTb27ntsmH9cVRfwX4ihcg6VOwHRoyGB/I0uSD6hzS7HuUep2ErYS9tnPUASg1Os8L42zI2fRga+fX8P6zEpZtLvV69IWP8hVdre9t2P7q5icf7DKaPZruHO+x9HblII4oHPfivANK8WazpEymC+kkQEZilJdSPoelereHvHGn635UMn+i3j/L5LnKsfZv6GolTcdRxmmdSMjnP6VHzk885zT/ANMUMODmoLGrJ0UnHND5j+Y4bkke1NIYkjGcc9O1RsGBzvOCckH6UAPZQ/TGCPvA0wo2QcnPJwKFclsAAA00O/lqWHOdpyaYhxk8teCQ350jbZkwwzuGD7DsaZt3Pk5pysyg4Xr2J6UwGjAGD82OCQaM7lx29DT3BDZ+X51G7HrTB0P50gEP86OvQUrcd6OBSAaeKaV4p+M9qaRyCR0oAZt2nIpOvP6Up9OaVcHHPPpQCGkZweaYQPWiQvvxgj3qNmGDjtQUBwTx2pCp/i/Sl8tmBxxxSBXHDc470xAwJXCjH1qo+7OGO78KuYIHPpVOR0cYwQKAPIvCKlvGFmRxkyED/gDHFevDcFAycds1514V04jxZIEXMdnvVmXpnlQM/n+VegINo+Yk4J7+taVHciGxIfm6dKQIcgnHtTQ7k4GcduKlYkLluazLsQlST7U0D5uvHf1p+7K5PFMPP9aQx45ODnmldQBn+VIuce1OYZ47YosBCwXqM4phG7oeamZOMZPFRthTxnNAxuwLzzz3prZBHH4UuGPOf1pCpJySfxpALguwAOPU09AU69elIqk9uaXBUH0oAf2B9aafTrSqTjk8U44AGO9MCDaSeRSEYGM8VNvUg45x3FRt6/yFIBvIO4HmgMGGJFJI5BpCxA9aaW9qLgTrErD5STjnBNKIgCS3QGoEkYNkHFPLu3BIIppiHyQo5+X68GkVEVtpB9MmoQuDlZGQ/SpfOkjPzPGwx34p3FYRrb5srnHoRSGIZwx4qU3ICfdI91OcUwMSDtYsT780nYaIXABxjNAVWXB6kdKk8kk5kJ5/Gob25t9PsZLqdiIY13Mf6fU0JMLnM6x4NjuHabT5FjkbrGwwv4elZSeA9SlZRJPBGM87SWq/ZfECzuNRSGW1eGBmwJS2cZ4GRWv4r1saPpG+Fh9on/dxHPTjlvwFdSq1UuVnO6VJ+8cjezaf4a3W9hGtxqG3D3D4KxnuAO9c+Zby/uN0jS3E2PTceP6Vc0XR5tcv/s0ZKj70sp/gXPJ9zXqWk6PYaRGYbaELkcu/LMfc0Sqcu+4RhzbbHkCM8UxbLRup+hUivadImluNFsppuZZIEZyR328mo5dH025u/tMtlE8/XeV5P19elXLvzjYTiHJmMRCEdjjj9cVjOanY0hDlOd1PxnptlPJAhkmkXIJReAcepx+leYSTPPK8sr7nY5JPXNGOOevvXVeC9GstWF79qgMpjKbeeBndn+Vb2jBXMm3N2OZtLO5uZAILd5j6Kuf89a6O28I6rcoQywwAjq7fyxmvQoIEtYBHDCkaqOAFAqQQvhWHXHPoKylU7GsaSW5heHND/wCEfs7g3FxvDYkYAcJgckf57Vxeo+NtVnvGe1k+zRDgKoBJGc85r1CaMTwSQuPldShUjseDXlmr+DNV01ZZ0i8+2UnEiddvqR1og03dhNNL3SFfGWuL0vm/BRUi+KtYUoz3chzz0GK5w/ezXoPgrw7YajozXV3G0rNKQASQABWk1FK7RlByk7XOt8P38mpaHDcyg7ySpJ74Ncl45VRrVsxHJg/QE/413kFulvbpFGNqIMKAOlcT49Ob+wyM4ibnpnmueD943n8JpfD8kaPdD/p4/P5RXUhhIRxxj8a5T4fZOmXisAFE+cg9eBXWFSHJ6g+9KfxMcdhckZ74rmBcLCsbMjlJDgsoBCnsDXR3EhWN2HARCSPXg1z8SFLQf3VTOc+3WrpkzL/hr57K4lIwXuHAOMcDjH6Vsyn90o71leG4li0OJV4w7nn3bPWth0LoAGAz2pT3HHYrBiDyT+FO3gnFMPOfypIlJfOeKzLLKpleMZHanY6cc1DuZXwDn3qwjbhkjmgBVA5pe+CeKXHtx608Kp7c0ANU8d8e9PJGM45oUckE8dqO+M0AOHFGMUoGD1oIHoRQMMDFFL0B56UUXA2sYOPejrjPSl2jtmkPtTEKDg47dqP4vSlQcc9aXNACE4NGRupSMmm7cHPQUgA9eKdGexpMBQTwTQCMDj60APPTNQMAWPHPoKsDOKiYY3MFy2O1MBhCqCACM0oJKEZ68UyNpNu4phexpQ6sO+aAGNt6enekIbIAJIp/fkdackW5cg/N6UWASLAlxkg4q6GyM4qoM+YCwOB1NWgcAPn5auJLDBxx1pDwOhpyDd0HFJImeQTjrwasmxHIpdcAZ+tCBY1PGD7CnhufTjrUfXoc1LGNk+bntUWccCpjx9DUbLg5ArNlITJI5pQKQD3pw245oGKOgxSjmmrwcVJgY47UxMYy5PJwaQj5RnvS5yeKjkkCjAB9KYhplCgjHSuU8Uq8lgkzgALMuPbg11EiEj5cfjXP6/GW0t0fOPMQ5Az/ABAU47kyWhV0Yq0WQw2fXktgZ/kK662QDSrVd+QFxk9z/wDrzXHWRmFrJHalRIoGHJz1PQiutsy50e28xVEgB3hBgA55A/GrkRE8d+JiCHxkXBP7y3jc56dCv/std/8AD7Y3gyzIADbpNzdyd5rjPipCf7dsrgE/vLfbz/ssf/iq6b4XNu8MzIc4S6YDPptU/wBab1ghr4jtkIUAeYcA56VZwSpVsHPtVYgA8ipUkOOahMtobKMBAOgzxntUMbsTtK8+tYXirxrp3hrajn7RdOuRbxn5lHYt6DNcBN8V9aNyrw21nHEMExupY/nkfyp8jkQ5JHsvCqKa+0j0rjvDHxBtPEDC1ulFren7qk5WT/dPr/OuuwCeeamSa0ZSaYipnGDkUrKSBUFze29hE011NHBEP45HCj8zWV/wmPh3fgazZkj/AKaihK4No18YfoOR1qJ0O7dWa/i3w+MsNYsmAHP70VGfGHh8puGpwFem4HIo5WF0bCKMZ60rZxTYpI5Y1kidXRhuVlOQQfeopbyCJsSTxqT03MBmpGPdAecZpowBWDrvjXRdCt1aW4E8p4EMDBmPXk84A4PWuci+LenuT5un3CDGcqVbJ9OoqlCT1sJyij0RAH3DHGO9NMYycKOR0rh4PihYzMSmn3IjA+YsVAx+ddPoeuWmvWpntG+4cPG33l9KTi1uCdyjrvg/S9aiy0AguAPkmiUD8x/FXll/pE+i6o1tI+JISHV1446gg/5xXu3JGDyK8p+JZ8rxJbhDjdaqT253vzVRk27MUl1O/wDDuotqmiW91JIhmK7XHuOK1jlupB+h6Vxnw0cyeGpiTyLtx9BtT/Guz+U+/pUSWtilqhpDA8Ac5Gc1EACwbPXipSihs8jFMk3dtp5yBipGLgHB4I70rQh+R3OaRdrA/wAPuOaAh2kiT5hk9KYiPhHxnn0pvOcqM+1PDZ4H1zT8KuCMUAQuzkjcuMcUEcdO3SnTMpHOOOtVUt5VuhILuQIT80TqCBxjAPagCY+ho7VC1xC1wIkmVnORgc9OtSg7AQ2aYBgDr3pGYdKC64x19KaV3deOeBQAyRnVRiPcD1PpSJkNnpTy7J8gHAPf0pzkEDAFIAaQMuGUkeoqExRYyMgehOKem7b85G7Jzjp1oPTFAyBg4wUG0dqQO6/fbPfAFTtg1G2MdqAFPzJyTVKdAX5B/wAatEArzTXAPUUAcv4Vt4zaXt6FCNeXkrrwPug4AP47vzrdaBupII74PU03y1jBVFVVyThRgcnNOXGPSm3cEgU7MjaOvNJI2emSMUNxx0zTP4TzxSGQkn5jjA7ZqYIGHHBqPoc+mKeh2nJHH1oAVWK9jTlORknmhiGUY/UUmMDFMB+OO2RmmsgbrjPSkXnqaecdj7YpAViu0mmg4AHerQXcP61EduSOw9qLDCPk81Iy+4xTHVRnaxqVGGP8aBEe0A5z3pG4BJyAPSnMBu3D9KCeCNv50DMPw7Ei6e80bSMLmeST5myMbiBgfQCtZlHTApYokhjSONFRFXAVQAAKcevHfrQ3d3EiAkqcAD8aQ4DZxkVNsGMZppXHFSxkQOCcDFKWwMlTx6UvGaUKoPLc+lCAcoA+bH4UOFkVlfkd/rTfMABBYtz6Y4o2q65U4JPQ1QERXjC9BT0wpBYgn1FKFcdgfpTCTkfKQevNAE4JIAHI6Y71geNUMnhO7IzlNmRj0YZ/ofwrdhJH91hnjmoNQhF9p13a5A82F05GcZBGauLsyZK6PCq73x3aTHTdJusfuxFtfGPlYhcfn/SuDxzXu0MMV9pkcUgSS3kiUFGGQRjGK6Kjs0zngrpo8l8PeIJdDuJGjjSVJQN6HgnHTB7da6+P4iWbQgS2MyOechgRnHTNPv8A4dWDkva3Mluxx8rDev8AjWQ3w9vQflvIG5xyCP6VDcJblJTiblr4/wBPaRVkgmjB4LEg4967Kyuba/to7m3lWSIgEEdq8a1fw9daC9v58kcglztKeoxn+YrqPh1eyi6vLLkq6ed06EEA/of0qJQVrouM3ezOe8S2K2HiK+t1XCeZvUY7Nhv61v8AgK+s7X7XFNKkc0pUoGGMgZzz+PSqXxAQL4mHPLwIcenLD+lcscdulbW5oamTfLO57RJf2SoGe7hCdQfMGDTYL+zuJWjtrqKSRVyVRuRXkNsA8qHYzHICkDPNdN4X0K/fWYrzaYo0YlzIMF1OQRWUqaS3NYzb6HocYznk1M4DxbGUFTxtPGfaoSgz7emKkBJBGeKxNTwjU7ZbTVbq3TlYpWQH6HFem/DwH/hGs5+Xz249OlcV4rt/K8V3wHQuHwR1yoP8ya7b4fMD4fdMNlZ2z+nSuio/cOeCtM6s9OK4Hx1IHvrNAOkZJ/E//Wr0EI2M57V5541Qv4hjC9RbDjofvNWNPc1qbGx8PgP7IunA+Zrgjdn0A/8Ar/nXYNEmB6/zrm/AlqB4cjfoXlc9B64/pXUlFAG3IHSlLccdkZt2my2m46ow64rCk3R25DZxjAGOgx+tb+pD/RXwepAP51h3q7rKUAbhsPAB9P8A9VXAmZsaGgGi2nAGYw3581osdo64HvVWwjEVjaoBtxGoA/CrkvODj8KiT1LjsU3Uhs44PeiKM5wGAHpU0kPmrjOMc0JHtXAPPqakYx0VTwQfpU8a4QetV4o97jnv2q5gg7QSSPWgBMH6VIvA60BRs55amqSp56UASY/+tSbQRg/rSggn296XGaBigEHJNKeT70i8EDP0zSsTuoAX8aKTPrRRYDbH1ppzn+tBztyuD60q8jI/OmIco+XpSfzozz6UY+bIoAOtGaUClI7ZpARnrnmlpMHO6lA3CgCRDxg0kke5CAOcUxG5walweQDQBWRNpIII9u1OC9x681MQcUDDDHvTAg2Hd1zU6bu4ApwjBAKnn1oHfJ6datIlsdwenNJ5gTC88ntSY3NnOAPQdaPkaQMCc+lUIVpBn+7iq/nlJXB6dqkmQnPr61VZCz4bg1LY0SGTzVIx+NSIMLtFNjj2dqkBDHdu5x2qQYmGYH0qJ3KnAWpj060x13DnrQNEQmPfH4U5Dv5x09aidGBGP0qVOAMjmkMUniiMqrcnrQTSEcZouBJtKcim43HnH40uSVC00k4wOtMQr7VB44rmfEQYaRcsrbcbep6fMK6FicYbmsXWxjR7zPIEZxzjkVUdxPYzNMkJyNgwB1HfjH+NdXa5/slSwJYSEZ69/wD69clZlVuAGT74wQF7fSuttFZtNKAgESnBH0q57GUdzzb4qAedpUhH3llGfoVP9a2fhep/4Ru5kz9+7faPoiVkfFIvHb6bHJkkPIQc+y1s/DcIvhVSu4O0z/8A6/8APpQl7hX2js8nHt2rlfHHil/DukBbbH265JSEkfcAHzP+HGPcjrXVAF1BByO9cD8UdCub/T7S+tT5rWm/fGgJbY2OQPbFTFLm1CT0PKdtxe3QVVknuZ346szsf1JrvrL4UzyaY017feXeFCUgRRhWxwGbvzjp/wDXriNL1W50i9S8s2QSKCBuGRg9a7jT/ipONqahpqyKM7ngfaT+BreTl9kxVupyVh4d1tNcgtxY3CTxyrl9hAXB67ugr3n7S6JtyGOeGx2rH0Txjo+uSiC2nK3BH+rmwrH2HY1sXlk0tncQxkxyMjKrY6EjANZTbk9TWKSWh4d498QDXfEEphuDNaW4EUOG+UkfeYduTnnuAK5PcSp5+lTyRmGVonXa6Eq6+jDjFegfC3QtO1NtRub21juGhKCPzVyoznJA6E8D6V0O0YmGsmeeQpJI4CRtIQeijJrprTw1rerwkW9jKo45lXYuPqete42+nWlomIIIolx0jQL/ACpZPLDcZz7VjKp5GsaZ5XrceteCfAVvYC6/fXNy2+WI8RKV+4D74PPHevNHkkldnkdndurMcn86+k7/AEyz1nT5LK9i82J+oJ5B7EGuWX4W+HY5d7rdSLnOwzcH24GcfjRGoktQlBt6HiDZB9acGY8Y59q9D+J2gafpEGmS6bZR2yMzxvsH3jgEZP51xugWq3PiLTbdwGWS6jUj1G4ZrVSUlczcbOx2mnfDfXLqwVLn7PbhsMAZMt0744/Wuy8FeD7jwy081zdJLJIm3ZGDtHOSeevauwGTk9qQ8EmuRzbOlRSEZtvPrXlXxNjz4htjz/x5j897V6qWAOD09a82+J0WbzTpR/FDIo/Ag/1pw3FLY0vhjk+Grn2vG/8AQErts7RXn/wrmJtNTt88LIj49yCP6CvQR83X0pS3HHYTPPSkI+UkjrSken4Uj5CfrUjEXO3BA+macMHjjFNAOAQOtKnzc9aEArqMBkGfaoN/yejYqRm8thgc9hTGikGwEAj+I5p2AjWMl92/b/dHpUsm4nIGMilKhQQxxQHGAh6ngZoEQmFPO8wou8c7scn8qqyiXzOwx1x0NW2OWGc0yRgw5Gf8KAIgvzBsdOcZp7AHPamhqeCCOBmkBGqnPNOwOmD9RUvGOcZ9qjIwaYxg64pcjOKO+aaeTQAhXnOajJI4qYk1GwzSsNDDyO1NbOOlOPFQzTRxLullSMerHAoAjdgTytRAbT8owKs53LkEEHpg1C3BOaAIWcv0AHakXkAU9cHOMcGmkEGgBmACcZx9e9OPSlCErntTymM9zQBEGOPcelOB46c+tCAl+M/XFSBBG2SSeOaYDTjPFICSD7U5yrHjimtlVOMg+ooAA2COxpQ6k4JGaaMgcnPvQVx24zQKw4ovpUbJyfTNTIRkA9ccUrkBSO/8qBkWSq4PamkYJAYnPY0pAYggkYPr1pMc4pAL70h/XpSYbb7E569KQgAdaQBn6kUhOT0ofA43/hik6sckY65pANbrxQyggZ4FBbnGOOlBBZcGmMi3IG4oLbjgUmz5sY4qaOPnkYFAhVU46EUrlgN5Ib2NSbRnj9KafccmgZHGS/8AAAPan7VUAAlQM89felC4PTFIw3ElhnPXtTuB4RcRGK6mjPVHZT+Br2XQ5Hk0KwZhjdbxncP90V5TrkJi1/UVOOLh+n1NeneGmZ/DungngQ4/LIreq7xRhTVmy1reqppGly3cuHIIVVLcuT/n9Kk0W9TWtHgvlhEZcsGTdnBBx6D61ynxDZ1trJOdhd2PPGQBj+ZrO8N+IJNJ0G4jjAaZptyA8AAgAn9P1qFC8bl83vWE8cagtzrht0IMdsuzAOfmPJ/z7V0Hw40/yrW41CQANKfLjOP4R1/M4/KuBMc+oaiI03SzzyYLHncxNe2abZRafptrZxlSYownTG4gcmrnpGxMNXdnA/ECAPr9rLyweEL+TGmeDdFsr+4vzdRGYRBPLB6DJP8AhVzx9NHFqllGSBtiJx9T/wDWrK8NeJbXRZLt5klkE20AAAYxn1+tCvyWQtOa7PSIbK0hAWK2ijVTkBEAwfw+lW+qnFccnj60kHFnMD05YD8a1tK8UWOrXRtocpLjIViBu9R+nSsnGS3NU0zWzgcgZ6elKBnp0puckj+lOUNu4qSjzHxVEkniq7ZSOAqt9QgH9K7DwDbCLQJHOD5lwxzjkAADH6VxusXIg8Q3sbxZkeZuSM8E54x7GvR9DiNjotpEvHy7+PVuf61rN+6kZQXvNmoSO5FedeL3DeJZQCMrCo/TP9a7/eFPJz6V5p4plD+I73lgVULn/gIqKe5c9jtfCSCHw1aBO+8kEf7Rrc80EgHP49qx/DRCeHrAbjgx7hn35rUOCTg5x7UnuNbFHWG8u3OclWcDjn/PSuX1u6kiRIUYjcoj2ggZ57/UV0uolTFGMgNv4z9DWDe2iSzQlsBnlRQw+oFaR2Iludeq7Qq8rxj6VJKxMn0FMHLg5/IVOiB5OQMVnLctbCxoMZ7n1pwjXHI7+lPYBQDn2NIrD86kYBF44phUAkVIGHJzj2qNpAQc54oAb8wOfwp2cqfXsKjDFm68U4nAIFAxU5J9acpPU0yNSBkgY9qkx0596AHEnoaVgcZByaQnpQrZIXGT1FABgjG7H40Uj5PHpRTA2QCpJUZ9qdv3YxgD0xRnBprD5j60CHE0uT2puQTj+L0zThyvFADhyB9adjnmo1cjgrQZPY4oAk4B6CoiQDtpdw6imH5mB5pAOPBz3qVCfwqFjk+9PTcVzQgJGJz149KcoBFQK25sd6mXnjFUhMl6cACojKjOUHJxznpUgDbckA/QVC0QeQMinPc1ZIwHy5dhBx644qZNjEkHn6dKiTzFZtwyPerMaj7ygZz0oQFZ8hWXOT0qKL/aP51PLGfmUVCg+bae9SykSlh0zTVHzZpdoBoH3gaQCsOBgc0AZ54Ap7g9qbuweaQIj2/McCmkHB5zU4HrUZx2FAEfY4pcetOUc0EYNIYRt8wFBB3YNKp+cGnsMDOKpEshcBgc1japH/xLbwHJXyXyPwraJzms3UFElndIR9+Nh19qa3A56wAa5ix0wMA9q6rSQqWEyKMKs7ED64P9a4/SpgogZm6whju78DrXYaU260uT8pyQVKnOQR/9atZbGMdzzn4vOd+jjttmJwf9ytj4ZMJvCmNqnyrh1Pfrg/1rH+LcJeHSZ15VGlQ/iFI/lU/whvD/AGdqdu2cJMkmP94Ef+yU/wDl2P7R6T8sf3cdOOeKhmVSpw4Y4GT1p74YY/ACmBQ3H4Vjc0sc1qfgbRdWDSyWwil/56Q/KSfU+tcxe/CtV3mx1I/7s0eR+Yr09UAOO1ROSrkDjPvVKbRLimfO2o6fd6Hqz2k6mOeEgq6k8jsQa9g8C+K38Q6S1vcuPt1qoWQkY8xT0b+hrM+KGkpdaTBqgj/f28qozAf8s24wfxx+ZrkfAtz9k8W2qMcw3KNC49QQcfqBW3xRuZ/C7HO63LDc69qFxbHdDJcyOjeoLE5+nNXtC8Tan4ejljsZYlSU7mEiZ5Hp6f8A1hTPEnh278O6kbadSYZCxhkzkOmcD8fWn+FvDcviPVTYpOsCrGZHZhngEDAHryK2vHl8jLXmNP8A4S7xHfwzEalKhxlVjAXn8B/nNdn8Ptbv9Wint9QQyNABtnz156H39/armj/DTStOw900l5J0O87U/IV1NvY29jAIraCOGMfwxrgVzTlFqyRvGL6jipC8AHHag428inZIPWo2OR61kaHn3xbiJ8M2bYHF2uPxR/8ACvO/CylPF2jk5/4+Y+T7mvS/imm/wpBkc/a0/La1ef8AhqIv4v0jnB85D9cc1tB+4ZSXvHvinI4PHalJ59zUKb0GTjHoKmU5UHIrnNhjHqcZ7V5/8TYSbfTJQfuySJz7gH+lehMuRmuN+Itu83hyOTkiC4RjjsCCv/s1VHcmWxg/CycLfapbkHdIkbg+ylgf/QhXpxO1egwa8g+HNyYPGAiYYNxA8Q+ow/8AJTXr5GR0wac1qEdhByATx6012G3kjgU9jtXngelVCjzuSrYQck+tSUTGYxxkqNwHYdaRg+0kID329OfSo0jIbHcnOfapxnpnPbNAAGDycpyBgE0OHZUQevORyaeEyeoGOvFOwEZRkZ7npnNNCIAjKuSKYw3cE1OxUH72SKibzHJCuPTmkMibgDuOnSmgZ6Zx0pWMnKsen61ErMDnJyO9IB0ihG9qVMVDe3UFraiS4lEa7gNzDuTT4eFJB3Dsc0CJyBUTHPan5ye9MPFAxuOtBH50fjUb+auMLuHqKAHFsUmfSm5yRnrSgYFMBCM/zrxjx5qz6j4luIQxNvanykXJxkfeOPXOfwAr2c/TNeD+ILeX/hJNWO08XcrHj/aNaUtzOq9D0vwFcz3XhaLzyzGOR40ZuSVGMfgM4/CukkjV+eQcVk+DrRrLwnp0bjDNF5n/AH0Sw/Q1tkdh3qJfE7Fx2KbJtHfmmFxxlRkdasTHBwc896i8rPPJqShuRj5Qcnrg9aPLHLH1zgmnk/NyaXaCRQAh2leMgg9RUL5JGOnSpzCHwdwBB4pgJQkE0wGiNioZT+B4oJYDacVJvYHpuBpu5dxOOevNAEfU9RSsxU44ORmnMTjoBTCSR06+1IABw2c805QV5zxnrmm/vDzkYHalRDxkk0wY8hSDnr61GNvJwR9akZMHpnvml24U8UgIWXJI6/SmhQOB6VOQOlMI7BePr0pMZXbOSNucjHPakQc5OanK59qTC8AnH0FADPccU/HtxTSMe/fpin8ZzjH1oAaVAOeKUdB29aNu73pw4NAB680h5GDil2jbnpnpS9ePbFADTjb7d6TlGHFSD/Jpj9M5xxnHegDxnXDu1/USM/8AHzIPpzXpvhmLb4asABw0e78zXl9+/m6ldy5+9O7df9o17BpEYi0myjKj5IEU49lFb1NkY092UfEGhRa7pvkFvLlQ743Izg88H2NcJ/wh2twStH5COgOA6yDBGevr29K9WwFiYKoHfioGPqMD0qI1GlYtwTOe8N+GYtKBuZjvuyBgjonsK6LLcMW+7yCOtIuMZ9KFBJG7FS23qUlY4nxzp+oXmsQ3UMEk0RhCDYM4YE54/LmsS28H63dOoW1MWe8hx+lerAgfLj86kIwoIyD2OcmrVVpWJdNN3PPIfh9qpjYST26546k/0rS0HwVcaVqaXlzcowjOVVMjdxj8K7MTsoOQDzSGUMT/AFpOpJgoJDQpLZqWPHXv9aaCMUqcnk49s1CLGzadaXMqzSQI8qnILDNTlCAcYqQdM0EcfL1piKmCHxtzjrXlPiCVpPEGosT/AMtGXHpjivXNrKCCMA15Bqa7tXv+csZ354/vVdNEVHoenaHbkaJYJuAC26D9B2q8I2QMATx3pLT/AJB9uyqFLRKSB24pwUOkuTzWfUtbGdfgqYFxk4Y/lj/GqJjLXVsGXerzLn0A6/pitC7wZo1H3lXnHXB//VVVV/4mdkg7u3Hp8praOxD3NzBEo3Z+tWEZVfcScUxcs4BzQmQCD0zWUtzQkaTfwOlICQKaHGcAYpRzmpAUZOfr0xSkBlwR+FIM44pGbjigY1xtYYOKBjaTkGm7PMIJJqRY9q4/WhAPi+6cc1IMZGTUSKWfgcD0qXnnp+NAhf50gX0/SmsxB6jafalBU4AyfpQMUZckMMjqKKin3KwVZDz2z0opoTNzc3UjIpy7iCSuADjmnfMOMgGkDSA4JyPcCgVxv2cs2Qw4FOkWYYwUAGOp6UZVxtIBGe9MARQRtGKYEr7iBtGQT2pVR1Ujbz6GiJgVIyEPbJpB5ise+PXmgY/OFwygj0pvmlG5VcdqSUuQDn60KzbDwCfcUCJM+aoOPyoUCL+8e9NQtsB28+1MkkfpkAD0ouImzvJx/KgPsIB71AD5gG7mpRLGV2Dhh0FFxtE6vnjHT9KiV85zkUwOxPzKoPqBT+Bjp71SYrATIJMhQyfyqVWPXimBuQBkGhiiDcQadwHNyCT1qs6F8YA4NTFt2MZpPU4oeoIjX7uD1pUP7zA5PWkDjOWqZACMj86kGMOTnPFNP0qRiBj+dRMRmkMdmkPPUUmR3pCQe+aQCj0NLjNMGTUo7CmgGqvU04MGBzxTcBRnPeheTk8/hTEQZZskKce9VLtWMbgdSpGPwrSmyBwDiqM+DnH3sULcGcRoYItoPmJ/dj7x5rudNG2K5Rj8wVckH2rh9IZE8pXAyGKncOQQff6V2+mDm5HXKD+tbS2MVucF8WEH9i2D8YFzt9+VP+FYvwpuXXXL21H3ZbcOef7rAf8AsxrtfH9kt34QuyQd0JWZSPY8/oTXnPw/l+zeMLEAkCTdG2OMgqf64/KlH4LDa9657cACSQOnrSDg59KcAPSgckKOTWJoc/4l8UW/hpbZp4ZZXuHO0R44Axkkn6jitWwvbbVbWO8s5lkicA9eR7EdjXNfEHw7Prmkxz2QLXNqSQmfvocZA9+BXmekeJdR0BmS2neHHDRMMj8Qe9aximiHKzPVPiEE/wCELvs56x9P+ui15N4eYr4r0nJbBuowfXG4Vd1rxtqeu2QtLlYRHuDNsQgt9eenf/8AVU/w90uTUfE8U5j3W9oDJIe2eQo+uefwNaJWi7kN3kdB8V9vnaOowMJN/OOsHwRrGn+H9dkvL5mWMwMg2KSckjt+BrT+LHni80wmLEIicK4GfmyMj8sVx2l6HqusuwsbGWYd2Awo+p6VUEnDUmTaloevxfEfRJ3KxpdZ/wCuY/xra03WrHWVY2U28xgF0IwVzXlK/D3xGYGjMMMXAJ/eg8enFdd4C8Mano9w15qe2L92UWLdk9epI47frWcoxSumaRlLqdodxzlCF7mmleMY4qRn3MSjcHpSH0xWJocZ8RYUl8MhCBxcIQfTg1xPg+OC48Y6eYfuozN19FNeq63otvrmlTWFwWVJQMMvVSDkH86xvC3gK18N6g979re7m2FELLtC56nGTz2/P1q4ySiS1rc6kg5HanClbnjvSA5NZFIcATxxXP8AjO3M/hTUAP4UEn4KQx/lXQZ5qtf2gvtPubQjIniaM8+q4prRjaujw/w9dG18X6bKhIP2hUO3rhvlP6Gvc0LMeVzzg4r51laWC5U8xzRN68qwP9K+gtJvotT0y2v4ywSZFYK2PTkfgcitKi6kRfQfcoxkG04A/WlWIbG3fTipfMLDaVG7pxSrG38R5rMoamWHTA6E1JhV4A75zQAPSlxxmkMbjv1PtTXDMuM8+vpSscckYJ96TvwTRcCHHfHA6mjd/d6U4phyVX7xyxzzxTTlBwPfpQAxiuckE8YqJ1yowMAc1PINwwRjnpTVLLj7pA/GgCuE3naVBHTBqbYACMDHvTi2CDgUKdx+nrQwGnrnApjAnFTEdMkYqMqM8UARMOKidxtK7iD7VZxjvUZUE0AQonJPXPelwc8VJjHamsQDQA1q8k8ZvFZeJp4QybJwJHwPuFuuf5/jXrLnkHBP4V4Frt5/aGu310GLLLMxU/7OcL+mK2oq7M6jsj3ez8tbG3ELq8SxqEZehXAwR+GKl3Z6cVz3guR5vCGnM7ZIVk56gKxA/QCt7OKzkrOxad0I5BGTimF1TuBngVHe3ItrKe4ZSwhiaQqOp2jOK8T1HxRq2o3DTNdyxgnKxxMVVR6cdfxpwg5ClNRPbWBHJHTjmlU+n4V4RDr2rwndHqN0D/11JH61s6d491mxkHnzC6j6FZfvfgR/XNW6L7kqqj1tnYNtHTFJjJOR1qlousWuvWaXdrkKPldGILK3cH/PSrxbHVfrWT0NU7i4OOuAKNvHQUoO4Ggg5yRxSAYR0NN2qT1IPXFPIwMj8qTGf5UgAZHy4qRT8o46daQDPIFKCQpFMGNJ546UnA4pMjH+FN3ggFv0oBCn6UjZFO3AyHAIApruDQMjPTpSEAjIp4w2elBBHGMmkIbnHVe1IpO7PX1FOx69aNoP4UAA5XP9KF5OSPwpckHHancgfzoGDH/9dHQY/lS9ccUY44xmgBB1PofSo3CgFyQFXk/SpDjt+FUtVlEOk3chJG2FznGexpoGeM7SYzkcnp2r12bW9PtYfKmvYItqAYLc4/yK8eurlXIWIFVHHJzmrdloGr6gwNvZyEMR8zDaMeuTXTKKe5zxlbY7+XxzpcGQsrTHbwFU4/M1Tl8f25I8uylYerMBj+dYkfgHV3A85oIiR0LE/wAhWpF8OmUr5+ofXy4/8fwqLQRd5sQeP3DcWC477pen5CnJ8QLg/MLGEnP984qyvw7szgG+mJzkkKOatx/DywUEm5nK+xA/pUtwD3zIPju+ZyVt7dRnvk96e3jnUiNqpbr3zsJP86108B6VFIPnuGHfLj/CrKeC9GQ/6mQ47mQmlzRHaRy0vjPVg2RJCM/w7OP8/wCNRN411dfm327cd467H/hD9D3D/RCwBzhpDTx4M0GQ7vsrLt7LI3Tn360c0ewcsu5yMPjvVkZSVtnx22EZ/WrifEG7DAvZwkZ7MRW8PAeiP0SZQQf+Wp/nVV/h7pxYr59yuO4IquaArSKY+IUyEZsVznkCUev09KnT4jIxBNg23nJDgUD4c2rKdt9MvplVNVpPh5tY7dQO7t+7/wDr0JwYrTNRPH2nyNieGWNc43Yzz+H+eK47UrqzOsXU8bl4p5DJHt7Z65rbPgK6a3ZFuInHXO3BH4Vv6T4M02C0238S3EqtlWP8vpTvGINSlozS0CRrnQLORfu7Nq+4HFaIUbT7n0pUVIkSKFQEjGAo4wKdIQeRxz0rJ7mqMe9DNefKRgKufpk1T08s/iG2jk3bkjkf6/dFXLpQ93KOB0U5+gpNLt4xqUs+w7kj2I3bBIJ/kv61stjN7m2hG5s54pUQbCehzzUakgt1BI6H1qWKT5cMB0rA1HFVIC96jVgScHOPag5OQP8ACmgbTSAccjvRtxyT2pFJL4wOmRUg64oGM2jdup4BPGc0YyacvB9vrQADKZNJvOTnjn8afn5TkVCz8cUAOLDkdTSeaUI+Xd6mjIJXacs3WpgixbsH5vagB0VsrM0jjnsDRSxNtzub3z3opgar5LZFIXx1x0qZo8jI7flSbQI+gyO9AiNSh6nkimkc8cU/HfAxSKQx7j3oATyxIwU5A9qmVDsKl+OxNIg6+1D5ZdoAz6GmA6IHBBGSOtDfKOAPpTreMpF8wIOaJQeG7UmIgcNs54poXIqUjNR9Dx0HakMch2HGetSPGH+Zeo9KZlduc06EbWPzEj0oAjRtrDeTUwZW5BpssOWBXpjmlQDFMBSBQuSxOeAPu0oU7j6Uu05zTEP8sON3T2odMjBxnrQpO2jq+G6561otiBnlqe1IcjIzTgSkxDdKZInzHnr0qWhjGclhg9OtBXgHsakSIAHABPWkK56jFKxQ1RnOaUIM09hgDtTSaQAynjtSjGAcikIyKd/DgUARkfNyfwoUYb+lPAGaCnOT0oAHb5CM81mXDN5uO2OtaTBtpwMj1qhKzrIflx71RJxOnoonnVCNxuXB/A8j9K7PRZ1bUri3AO+OBJGOP7zMB/6Ca4q1zHeysSI3W4bpnGNxzVn4e6ldan4n16SaB4hJHGwRgQUC5Cjn2Oa2exknqbnjF/J8J6pJgnFuVwPcgf1rxvwjKq+L9LMuAvnrk4/L9cV7j4jtvtvhzUrfaDvtnH47eK8A0uf7Lqdlcjjyp0c/QMCains0VLdH0ZnJIHan7dq5GMkUpkV84Ix1wozTGI6kgL71FikxAeOlYOteFdG1sl7u0TzT/wAtE+VvzHWtp3VRw64AyTmoVMRXBmQEdiRnFNXQOzONj+Fui7g32m8IA6Bl5P5V12l6VZ6PZra2UCxRA5IHJY+pPc1KLq3i3briEAdzIB/Wo/7d0tAPMv7RQecmdfX60NtiSSLkttDdx+XcQxyx9cOuRT4oYLWBYbeGOJF+6qKAB+ArOk8QaKoydUtBxn/Wr/jUP/CR6MQSNUtCCf8Ansv+NKzHoaxfgqRn8KiZiEYEZBrPOvaSAS2p2mPeZf8AGm/25pT4K6naHvgTD/GlqPQuZIyU5HenJKpA5qol/ZyH91e25b0WVc/zqcTRuvO1ye64zSAsr83Sl6VCGaPGCCvY07dQA7H1pQMGkU/4U7p1oGHY5496RuEXyxnnJ570qktxQQCPkI4oA8K8eacNN8VXOwbUuALhRn+9w3/jwau1+FmpNcaFcac+4tay5Unsjc4/76DfnXP/ABVdW8Q2wCkMtuAffk1qfCS3kUarcEHYxijU9iRuJ/mPzrd/BqZL4j0pUC89yadjNLnFIe4rA0E9D6dKHKqjOxAVRkknApf1rI8Vvt8I6xt4P2OX/wBBNC1YmZC/EPw7Lf8A2QXbrg7RMyHyyfY+nv0rqchuOuPSvmE5J5Ir6L8NKf8AhFNHLcs1lCSfX5AaucFHYmE3Lc0pI1ePAc5I6UwIzKdz5I4yD1pShznPTpjtSOwiJcJuGM4FZmiG4555+tN4zwKc7jeducUcHGOtIZGwOOaahGOe9SkAjr3qMLtJOcjsaYh2Pypp4p5Pr9MVGTyTkUAIeQemaYeme9OJ54pjHjnmgBu7j2ppOfp70EEkjHTjikVSDz+NADGO0Fj90c18/fY5Sq4XcXOAO5NfQUyGWCSMfKzKQCT04rzPwz4b1Ntehk1O1aKC2ffncPmYfd24PPODW1N2uZzVzvdMtlsdMtbJTlYIlTd6kDk/icmrJJAIyD+FO2jPFIV2nLcGsyyCcZUqVUhuCCO1cq3gDRJLsziGVVLbjEJPk+gHXFdcV3sSRxinhAMEDtQm1sDSe5lQaBpdrBshsLcKBzmME+vU1xPxB8O2trZw6naQJCRJ5cojXAbOcHH1GPxr0kkAe/vXNeOlDeEb49x5ZH/fxacJNSFKK5Thvh5qUln4jFoMmO7QqRnjcBuB/Qj8a9YIzk9D14rw3QGaPxHppT732mMD8WAr3IN681VZaipbC554P4UgORg8U3jfxnn2p4PpWJoIRnr2pfxyM0nI9PxpRwBzj8aYDhx1pGYk98ClXrQ3B9+lAEDdaRU4wKkxkk4/Cm5bAHp6UhjuBge9RMhBGelO5wDj8aadxPHIxQIYU4yDT1cscE8imZcuAM9acBtIyvPrQBIfembwDjOKM5HNM2fNuP5UDJh83AxxR1yDyM0xCBxnFOB5zigBwx3Io6fSkHNHX0oARhyKG2uhDKrKRjaw4P4UbuOaB0NAGRa+FtHtrhriKxRZD0PJC/QHpWoycbRxgcVJnA4pRn8KLt7isittdsbiSaeq8Yyal2s2cYB7UKp3bB1oGIYgY1O859cVIpLKeuD1FN9ckGnggkYAoYDWTjqRikGAM5z71Iy7hz+VRgYPQc0DHKykHI57UuSkZbbSrsC57+/allO1QCfyNMQ9XRkC4NIwVScHmmAA4OcEcin5ZjyAD6igBoODknj1pwQOcinjDDGRT9m08GiwDBHgnPBp3zlhgfhUzyMRzj8B1oUlkUqoyecYp2EOFvuXIIX2FU5vkdeTnPOa0jG6YO4DHUetU5gsjg457UAYk7YuZGPILHoM0uivv1G/KliuEUHHHT+f+NDNueYqMgO3P41PoKrKlzLGMky7W+oGOa1voZbs2UVQh3EH8KERMNjHbFCqVBz0PFSRLyfpWTNEN2gHj9KtR2CygSH5kx64NQlBjjrVkShocNnHcdqEUElmhygO0AZyBVPyvLYqxz+FXTKERVOSB71FImT04Pc0OwalQKMk5BHbmhWw1JIuxsAYx3pyxhl3gnPcUgFJ4zmoGXr3FTEs6YHBFRkEcgdKQxgJVh8hxUwJLByobvzTl3DPQjFKFIPTigCUEMvKryP4aKVF70UAbm3IwMj3pgB71OD8nUCmYzTJTIwgANIYlIyGOal2/L3oUAY7fWgZXGUfDfypQMuuTwOc1YIBHQVWZtjlduaBFgzKVGB+BpjODgng+lRhg3AAB9DSKu9ueD2oCwrHd0pqLinkbW2ng0dDzSGIEBfk8GpWjCYKnj0qHqanHzRYbrQgJEIK8jHHTNRsoU/KODTQSQVzz2NM3bTtaqAmAGOKQ+nNRqT1UjHvT8luehpAKpwCM8ZqUgEgnr6UxMFs0TNjg8jFaJ6EMXCu4AYZHbNI4G4DAz61Xji27pFyGPpUkRlkUGYbWB/h70wJguEGeabjB65p49M9aZyckdKGAxjmhRmpMd6CQPSpsMbgAdqTANG/PGMUgJzikAmeeKd1Gf0profXApBlOj7h6HtQAj7uwNV5kBGT271LK2VOKiK5jbnp2qkI4Ob93rd1GSP9fkZx9f611GhWcMfiKW8TIkmttjAHghSMfzNcrqAxrl7tyG81TuHQ5Udq6vw8P+JkpyP9Sc9fUVqzFbmzcLuWRMA8FfX2r5tuili80Eyv5kTFCqkcEHBr6XnKqxY9zjiuM1/4eaPr1412xmt5HOX8o8OfXB6Goi0nqXJX2PM9Q+KGu3iGKBorNOhMSZbH1P8AgK5ybUdS1CUvPdXNw5PVnLGvYrP4W+HLNj5iTXZ7ee/H5LiuqsNMsbCMJa2cEG3p5UYX9f8APStOeK2RChJ7s+dVttQckfZLzvyY2/wqRdP1JxuWzuypG7/VNg/pX0oyK64YZ+tQCARM3yja3U1HtPIfIfPUGiarKVxpV4QSAD5DD6dqvxeHNabppF2R6lMfzr3qMjdjYOeaQoudwHWh1fIrkPBn8KeIZW+XRrkH3AH9aY/hHxAuSdHuSRySAK95IGRSgcjip9ox8iPBl8IeIVAxo9z68AH+RqceEtdU4Ok3IH+70r3jH408HIo9ox8iPBX8NazF9/SrsDviM8e3HeqrWd9b/MYLuMjjJRhj8a+hMDcOMMKa4yMEZHTkUe0Ych4Jb+JNZszth1GYf7Ltu/nWrB8RtcgXDrbzjGDuTB/MV6vd6Pp18pW5sbeUE5O+ME1g3Pw+8PXGcWjwsc5MUrD9CSKfNFvVC5WjnLb4psJQLjSwV7mOXn9RitiL4laLKgLLcRHAzuTP8qpXPwrs2BNrqFxH6LIof8zxWVL8MdWj/wBVd2so98rStEFc6pviF4fBwtzLnv8AumxWFq/xN3DZpNuVYZHmzjj6hf8AH8qzV+GutFipmtl7D5yc/pV6x+Fkv2gf2jqA8vusC9fbJ/wp2iHvHLNHdeI7yPd5lzdSt1HJJ/oP5V674Z0VNB0aKywPMyXkZe7H/Dp+FSaboVhocPk2MIQfxMTuZvqTWlGSRkmolO+g1Gw7t0zRt4yM0A46mlDYYjIqShvXmsvxMpbwrq4XljYzAD3KGtQjjpxTJFWaNomTKspUg+h4oW4nsfMOTnn/APVX0X4YXHhTRwev2KH/ANAFfO8sDWs0kMg2vGxVwexHBr6A8F3Qu/B2lOo4W3WPrnlfl/pW1bYypbm5jJpjjIxgdakK49aY3fOa5zcghRV3Ljn0J7UOo6E06SMMvHDetQozHKucnPGaAKmtavZaBphu76QqmQqqBlnbrgVyKfFPRwDmzu157hTx+da3jbw5N4k0lEtpFS5t3LornCvkYIPp25rzD/hBPETSun2A5Q4JMigH6c81tCMGtTKTlfQ9Fi+JHh6YDfNLETnh4z/TNbFj4j0jUf8Aj11C3kbP3d4yfwry2P4beIGjVilup7hpen6Vm3vg/XrBS0mmyso53RYf+XNVyQezFzy6o91PrxzTSMnjmvE9B8Z6toUqx+abi3HBgmJIH0PUfy9q9X0DxHZ+JLMz2zBZVx5sJPzIf6j3rOVNxLjNM1SO+KQjvS0h65qSjnvF2uSeH9IF1BGrTSSCJC/3QSCcn8Aa53wl43utU1cadqEURMqkxSRDHIBOD+AP5V2OuaRa63pclldJlSQyMDyjDoR781g6F4ItNDvEvPOe4njB8vcAAuRjPvxn86tOPLqQ73OqwAAec0xlBOTTgDjJ60E9qgsavBpmfm7Zz0qULzwM1G4c5ytADCSemDXKfEG48jwtJGR808qIAO2Du/8AZa6lvlGB9BXnnxJuz5lhZGTON8rAe+Av8mqoK8kTJ+6cv4Ttxc+LNNRsgCXfx/sgt/Svagvy8V5d8OLNZvEE9yy5S3gOD6MxAH6bq9UHtVVn7wqa0GFBz2Pak4zyAfSnH0FJjn61iaC8ZHFIeTwMUvTpRnA6Z/GgBQD0A59KOv4Ug6570p+vbtTAYwxkim9utSYJXqaYUJoAiOSpBIPpSB9vB+tK6cio9p69aQxQTuyPlx6U7cWbn86aSByR9M0iZYjjPPOPSgCUdMHpigrj3p4OBwMZ65ppOOTz9TQAbTnn+dIKUnPIzmhcd+KADpS53cd/SjGRSAlTgnvQAhUjihSelOPPvTUBXGTmkIcKBxS9c0uMe9MY0DvThjO7Gcik25PtSgknYV+X60ANLKwIIx6U6FccenpUgi3dAAPc0whomJA60MCZWHQjmmOT/dzimiQcAcA9ciklyPx70AI0chG4Ice3amM/RTk49alRF81S3X1ouEjDDYck5zzTAjyD2xVhVZkyFGPWkEOUGcdKmUbOCOlAComV4wCOaUKAcZP1p4DDBI4x6UEbqYiLYBnB604LsUEE81LsU8H8xSCIgMxLHnoe1FwHksVCkkkjkGopExnb296VUbzyS3yjpTJ5AsLsegU01qBiRlEQ4UDcc4z361Y0ExrZSyIRlpnLY7HPSqyr+7+XJxzj2q3oShNJjYdHZmJHHU1p0M1uav34gw75OKkj3bRwajj3bR8vynoanBOOh+tZs0Qo5OPTtTto4A4Apobg5HPalz3z+NIYjKTxzmpVJEYU8kdTTDKOABnI5pEdi/IHTihICs7Fm45+narMO1QPlOe9NMTISQoGewHFC992cU7WEyRwrZwMGotqAle/XOakUAYJIANKxz2Gc84pMECAD5Sp/wAKeRjpz9aYDt4/X0pzEAZqShF+UGiozKqthjgnpRTA3mjypbHzD1705XRk3A9KaXwKQ7eoGM9aCSZSu32qJm+bikDAHHNLn0oGKKjlVSPenbxnHJPoBTfJzJkuQD/DiiwrkYTIz0qSP97xwG9aUwOp+9uHtSRqRMMA+5oSdwuOPmL8sgX2NM3sp+YDpVqePzIiuAT25qogPIY59PaqasAbup28VKpUqecioXLxt0XFPQhlLBQp+tSA9VwxIpJEWQc8H1pFOxtzH8ulS7Q4yMEHpimDKq5jYjtTvMBcAdO9S+UeTmmJgZwoPuRxSAlGCMrycU0kMRuGQKAWCkYAPqKTJI5qrisKASSFyB60qsFOGxn3pN5I9MUhznDL+NO4WHGXerALjB4x3pY8AcHnvxzTAoOdp59M1GQ3c4/2qdxFoHI6U3yx1B+tMDYHL5/2gMU8bQOvFADCpz7U4KB9aXIIOD+NJ2osBGzZzk9O2aaOnrQFAzil9v1qBkcg4zURJAParJBK4OKqSA5wKAOJ1WPbr12WHBMbAD6YrodElEeqQLtyZQyZ9OCf6VjaupXW5MkAmNG+vUf0rVsPNW5tJoIxK6kgoDjIIOcGt+hh1Oic7XbI4Ymmhhg7eOe9Sy8k8Y56VCQqjODWNzaxXIy3WpcAgEcGoeSxNTRn5elFwHg569ac3I55FNAGdwp5HHNAEQGDwPyprEAYqTJGSKhY/Nk9TSACMDihFYtxjg80o9cUqHBNAEx4AH50zdzkcUm7NJmgYAYk3ZqTcDUZxmnDjFADyoBoBTdgg59cU3fzzTsgc4pXCw4hGX5SB+FRMuDzzzTmfOc/lUZIxmncVgC4bOQBSAgMG3Z/ClByCDzRjJ4FAET7S+Rg1IBgcDFRuQiluMDmiKUSAjnKmgY/nv29qMLnLKMUpINN2570ADjcP3eOeozUKylSARg+9PZQRxSOSRhlDAdu/wCdID578VW/2bxXq0eP+Xl3xnsx3D9DXqnwsuvtPg/ysc29w6fgcN/7Ma828e4HjnVSqkLujOM5/wCWaV3Xwmcr4dvBzj7Y3/oCV0T1gZQ0kehs3OMc+1NXGCT0o5Iz+dMxjgfrXMbCE9z0qKVVK7gOfpUpOe/vik4IPHtmmBWJA4GePWjOBUrRjJye3FROg6butKwhxwQMGmhRinr90ZoFMDmPEng3T9fgbEYt7zGUnUdT6N6ivI4ZtU8Ja+RzBd27YZTyrD09wRX0GQOa4L4laAL7Sxqtun+kWgzKc/ei7/XHX6ZranP7LM5x6o6fRdWt9c0iC+tzw4w690cdQfoavHrXjPgTxSug6k1tduVsbnhjjIR+zfTsfw9K9kzjj8ueKiceVjjLmRC8rK7KI8gHGc05AcZbrT1TAySMnrSH9KkoTbnnPSmE5z7U44pnQ89u1AwJwMg4qN2O4YbNEjiNen1NVuDngfjQBMfm9fwryHxtcG58UXPzbo4EWJcdsDJH5k167FgD0x/nNeG6lc/atSvLj/ntM7/XLVpT3uRU2O++Gtn5WkXV2ysGnl2g9iqjt+JNdyBxzWF4Ttha+GNPQNu3RCTPux3f1rbDZxiom7sqKshCDk460h6c96cT83AIpGH4VBQ0+p+tLjnOKB7elKeTjFMBB6gfjSsoY5GRijGGpSM4oAYQfXrQRgDnNOXb3xTHYEBVzx3oAYyA8c/hUbJj7uc5qUjvgUYGKBjPL3DkH1pAixnvjtUpyUI5qM5Ix3oEMPJ4609ISV3ZGKi34GaniffwSMAdBQFxrDApVTIxjJqQDBBz3p8Y+cE9BRYLkSo0fDDHFNYEnpU8pyeD+GaiJ49Tik0Aw8fWlzTwit8p+8elI6lG9zQMQdKVQACTyaAMmnZAOB9OKYEe5j91f1p43EUbcGpFFAAGbKgkkDgYqTCMuGBFNOF4709CD1oAieHaOhx6iombC7SOhq2GwOp6UjKJs7ueevekBWjTceBz7mlYFTtK80q2zbv3bMeeM8YpoEm/DqQfegZMkgAAPOB0qdGDDjJBqsqEcY5p0byRthgcZ4zTQi4rFgQc8dqac7sAEinK24Y707adpwTigQ0A89h3FWUwO2KqHcO+CKlSQlACBkcUDJCg81iuMVnah/x5zE/3DWgWJOT6dO9ZmrNtsJMHnI/HmqW4nsZJWM2jh87GUjj+laumRrBpVtGBkLGox+FYl8xXTpsPtZY/19q6SJFijVBgBRgVq9EZrctwgSlRyCOoqQ4X5OMVDG5XkcUyV97eueag0HryjAEhs9aYq4Y7m+lNyByvB9qUJkZJ/I0rBcmRgjA89KlBjLBiMe471UAY/h2qfI2jjn60CuK05Y4VQR705BnJYDJ7EdKZGgUcfzokY44bGOaBkjwq3O4njjFMDk9eD0Bx1qAy4bd8xNThS/zMQPYVLGIxK8kcetNMkgOSOOgpXG31yPaomLKADk55FIBkjErj8aKay7sY6iinYDovLLcmXIPYGpMBAFINL5eBkYAoLYGCufqM0hCMJcjy0BHuelS7DsHPzd6TeNu7AwPSm7yQWXP0piHEsv3cZ9SKeHbYSwG72qqQzIGbd+Jpu514BOT1oUrBYtB/UEj1pTOhHRuPaqatjO45zUwA4xximpMLWE3SyszeXLs7A8UBXLD926iplul2lSH46GmmdTwQ5Pck0OwDW3cbY9/tUWSuQVwc9M1KZsLkDaR+NMjPmbt+ST0YikNA2SmchW9zSRb4x8vJJ5weKChcgMRkfxU8ZPbAHftQMG3EDnv3p+eO1IozzkEfypDnBIxmkICcHAwc0hG4YpjEFQ5HzU4S5wCKBjlAA6070x3oHPSgkZ9xQIM7eT1owCMsMilUAjnn60wjvyMelUhCqAgIySCPSkBGNvOKOmeOKYoKf1zTuIco38ROCD3pxLA4OM1XEJDb4jtPQ4qwshXA+8fU0JjDaT0FPWMhTgAg+tOVlk4GcjtUgHGKdhFcxnB4qrKuzAJ61otkfjVS4IbHtS5QucRraZ8Q8JndbDHXsxH9a2NDkUXFkTgY+Xr3wR/Ws3WiqeILYyYCtA6++dy/5/GrlhDILy2VJmRVnBKheWHYGtLmb3Omm++2eOeMVE+Qpx1qW4yH4/IUwZxzWLNSuAelKuc1IRg5IpuOeBQNDlPzDP1qQnJz1pgOCKdwVP6UEsY9QSq+3KgfLzyam9aaSGUg9O9IZAJ3PG0DHv1qYcjIFM2hcDBOaVWXkdMcc96Y7Du2KQCnHGaQtjtQAc/hSqeMU3caM0BccODzTg4xzTOtNzz64pBckYhucc0hHHFNDEfyxTSTnpTELkoTzShvQ01lLCkGRgd6AHsqupVgCCMVEypFwmevNSkjp3pjDf19aAHLyORVPV9XstEszeX86xRAgDuzE9gO5q4g4xnOK87+LdvcS6VYTrkW8UzCQDplgNpx+BH4+9OKu7MTdkbll4/8P6lci3huzFKxwgmQpu+hPFdHklQcjOK+YH+UkEZIr0Dw18Q7iw0K6sr12lmSL/Q5GG7Bxja3sM5+grSVLrEzjUvuc/4vuxfeKdTuQQQZyi49FwoP/jtelfC60kh8HvIx4uLp5FHsAq/zU15D5byzJBEpeRyFVR1JPAH1zX0PoWnLpGiWmnoF/cxKrFRgFsfMfxOTTqO0bBDV3Lf3cjecehpwQsMhsj0xQyg5yKT5lHykgVgakf2nyyV8vJxgsTTWkkcDb8oz2NPwHOT1pApU8DNAyNi3zAsA3YY60yRZyCFRfY+1TFmAwQAPem5HzMsmDgdDTERoSeCMcVJnNQs21hySe5pwPvxQA8kYxnmuB+JuuLZaUNKjJ8+75cg/djB7/U8fga7piQcnp614F4r1Ya54kvL2P/UFgkP+4vAP48n8a0pxu7kTdkYJzjjvXv3hd/N8LaUwcPi2Rdw9QACPwIx+FeLXWjTWFlYXkwwLxGdFIxgAj+YIP416l8NZzP4WMLtxbXDoB7HDfzY1dXWOhFNWZ13H49KViMdKMYzSN1rA2GHnt+VRngnmpTjnOPamNg9DQBC/KHPIqi33wFBAHer27DkEe1J5SE9MUAM58s4OeK8DJOM9zzzX0F5Y29SCK8L1+xOma5eWZBCpIdme6HkfoRWtLqZzPZdPjSDTbeEMcRxIi89goAqyhyDjpmuT0DxVpb6Dbtd3SQ3ESCJ0c8krxkeuRg1R1T4hwxRvHpkJaTp5sowo+g71DhK9ilJJHbS3lrDL5MlzEshI+QuAfyqbk8GvA3nudQvCzmSe4mfr1LMa9x0qK4h0y2ju233EcSiRs5ywA79zROHKgjLmZcC9RR93ikA4OevpS8ketZlh1J6UmPelzg+g9aXO3jtTAYduD1+tNCj/AOvTyAcc00Kf8aAFCE9qCMk+tSLwO+TUbDnIyDQAxjx1qLerjHQ06QepHT0psRWQBcBWA6+tIYDy1OGwefrUmyIrvjzx1xUZiIPUZp0a7PunGetNCZKoG0AcCnAnOQe9NyMA9M1Mq4GaoRD5Snkg59aTB75qYgno3X2qMK2M46cnmkxobg9QT1oI45PQUBs5Geh5p2MjpzSGRnHQcH+dCx5NKBzjBAqUDaeOaAE2g9+RTlUHnpQPl69KkCHaSuCvtQA0jPHp2ox/hQeHyKXbxz170gG/WkIB6HGfSpMDNNIIBoAVZCiqM/N3NRyu7EAnOB2ochVAB603cQeTQAIx78GnElyM00g4yBxU0YDY46daYE0SFRz/ACqViVx6GmKAABk0jyLvwc8elAEgHBYcf1pAME8HsQajVeBtPPXr0pxO5SvP50APY7B8xP5c1m6nIrWZHBV3QHPHfP8ASrcjqIuWy3QYPSs2+XdBECBgydxnPBqo7kvYzNSRt8UShtruAcDqcgf5+ldK4zgdB6Zrnrl3a5s49wH79Swx2HNdHghhnsMVo3oTHcfCiSSfNuXFOdOTgY21HF5odhn5sdsVYALjGASB24rJFkSooHzHPsKd8vIVcZ4qQBQp3KcVAMlyoBz1qxChGA6nFPRwc5OAOMnik3Mp+b64qKRTMeeAOlS2Fi2hMkYLE596hIIbBJ696kRGWFTu4Appyw60mxoNnzZxz9KNrMMY+lAOBjHfmnqoyGxjHpSGORNowSee3pSS7WXCkH2FDsNvWmK68DnNAyFlJxtBJ9B2op+dp54Ge1FUmFjpiQykA9KiIXBHc0qZKMQuT7d6iw+ckFfrUkoAkgOCfl9MU5kcN8hAA60YLHOcU/Y20kH8DQgEkLOoPFIvHFCjfgninlBj5SaAGhVEg+UHJqR8Z54FRY9T0qV2ULz36U0DIiVYcLz60w9MYqTGMCh8DGaQIhI7Zp8bqsWG3Fu2BRgU9FGaBkYVl5I69akb5lKghc048cHvSSIFXcDTAjWMqm08+tK3lqfw6Cng4QFuaa0cRJYKPqDQIiYFuTyKb34GKkDei4FNbPWkMcGZTmplYMAcVXQlwF71KFx3oESZwc9qUEcnAxUClhuJPA7Uq3CvwRgDpmqQrD3+lRHJ/H9KnBBHtioz0zjFIBgyp4xinsqvF90b/rTGyTxQjckenWmgY5IinzBsNU6XEf3ScN6VGCODu/CkcKTkgfWqWgmWchlJHWq8yDd700yPGMqQRjoai+1xzIWUYbn5TVXQrM5TX90PiDT2JyNsmMDrxyKt6bIq3aE5IaRcZ9z0/Ws7xSZm1XR3i25LurKRzyBzn8DVf+0ktrmzhERIe+gt19Blgc+/+NCV9iGd/MRnkj8qizUlxnfyah3ZA6g1k9zRCOOc9ajyV+lSjk01k59RQNDCwIzim+YT2pJFI5Xmo8t+ApDLG/K80n8qrq7Z5OanVgeM0CJNxCfLjJ9aiEeWyeKkXAoI55oGIcCmkAjIpxHak70CYnO0nPSmsfenEfL0pnfFMB4NHekFKTzkUALj1pO9LnNJQApYnrSCjFKMd/xpANPUkUcUp4zijZkc8CmA0Z5OKg1Gxg1XTp7K5TfDKpVh6e49xU5UqpOcjNOUgLgUAfPXinwpe+HL51ljkktGY+VPjhh746H2rBj9Mj2r6hkjWaNkkUOh6qwyDXjvxP0C30vVLS9s4kiiukKuiLgBlI5/EH9K3hUvozGULaom+GPhyK9uH1u5dZBbuUhiHZ8A7j+fFetKOPpXknwq1M2+tXmms/7u4iEqg/319PwP6V6+e2CKzqblw2EJHdQaZlixyox9aew9abg+xqC7CYTH3QMUw8e30pSRnnrQ2T/9ekMiZOeelNwgyeAcVIfWmMNzHjj2oEV2dJXAH3idp+tKG8t9pyKc0Mancq4YnkioW3eZlmyOxpiOd8ea1/ZPhqVUOLm7zBGB2B+8fyzz6kV5T4b0c63rttYnPllt8xHZByfz6fiK1vHet/2v4gdImBtrX9zHjoSD8zfnx9AK634b6MLXSm1N/wDWXTHaCOkY6fmc/pW69yBk/ekUvidbJHZaW6jYiO6KqjCgED/Ck+F0rNFqkOcqrRuPYncP6CrfxS/5Alhgc/auv/ATVD4VkfaNXH+zF1+r1P2CvtHo49qaxz9KceB0prNgZrI0G5HOaQjjgVGZMHofwpwkUjqBQBFsIOSc4PWn4PalPNCkZweMUAIT6n8K5bxX4Tj19VuIWEd9Gu1WPRxydp/Hv711G4Bu3vTjg/4U02ndCaTPDbjwvrdtN5L6dKzf3kXcv5/41U1LSdQ02O3e+tmhE4JQN1OMZ4/EV7wQe/PpmuA+Jtr/AKBp9zniORo8f7wz/wCymtY1G3ZmcoWVzD+HlvHL4nLyLkw27un+9lRn8mNesISehz615J4Cm8rxTEmDiaJ049hu/wDZa9ZXOcfw+tRV+IqnsTBTyMU36HNLkKOPzpDwCwz78VkaAWA9Tk447UEcZHSmAnOM8/SnKd3U8UwFXP1pRnoRRjHbNKOvX8qQDsjk849aibnp061OM57ZqMqUTJ6ZpgVJse/NQDA7VZmUk5wMAYqNsnnv9KVxhFJubuTU8YLtghSDVUEqdw+uKspJGDuJxzmmmBZkhVQOc1JGqlSOeOOagaTecjpVhDlfX3piHMm0detROdiMQM4p8hPvj0phO5DihsCugDMXHGetSgdOaRIwtO71IxpQA5GaAvzZzj+tPUgnHajB6DigBcHuOKcoKr1+oo7YPSnHG30FAEbDvSgd+lLtw2QBTgQe2DQAz3pD7ipP4eDx2ppGB60AQOhY89BUbNtOOcAZqYsA/rmmuuWGBmgBmW6A8VLHux1/KmspxgdalhUgAHOcUASIx5zzT3TzByPm7UBF25pScDJI60ARFQrdceuTTkG4knnAxSOCTntihWVEO3ORTEJLGgxxznPJrK1R8XNtEVOHDHI5x0H9a1JG+VM8YrG1dhFcwkKWZUPTnGT/APWqo7ilsZzSOPEGlW5DNmRizBcgAKcV00oZnI9K5ixE0/iy3PBjhhLkk9Scj/P0rrWbcSDzjmrlsTALZAMg7hiriYQ5xn3pgdUjTKAqecip41DJuydvvxURKY0qXQseAT1qMDacHg9s1KGCDatJIA6gM4X39apsSISCzZ60/ZnoOafFGQD8wb0NTqgX3JqHqWQENHCQRkHqagQgEg4+gq7I6hCB/wDqqgzBmJXkDikANvB3L9c1Y6jzQMY45qAMSMMtPeUkbBnHegBC5PTOc9fWjAI4/wDr0A45/lS5BPHH1pDEEbMcg8Cin4IHG3HeilcDfgkXJQn34p8mGQ/pUSRNkzRKCf7ucU87gRu4zVEjY0fIJPFTkUg4HHSkbgZxQA1yAMimhj1BoK5XGaTFAEbM27oDTnZduOM9QKeRnjFRvHkUxB8xOTx7U4HOMimIGHQZ9jUwXI5yD6UANYYGQMYpQQelJluQVI/rUTMB1pDJpBxUZz0zShht60Ht7UADAYABppAHQ1I69COhpm096BifeHaopBggYNSH/Y6075SBnkj+dMRGi4OSKk3HGRjNCKXPJ+lEiMgyRxRYBSgB3bslhyO1RbPnJp4Ab+IU/hVz1xQAxG2Ng8A1LuApuFcZPSoiT0XrQAm8l+BgGpFUKM9zQ0ZBGeKMA4G4D8aaEwVsnrzUoB3dM1HtRec80glbOByPU0xD5FRlZGA57VnT2KP8yqAVHrV7ZuYtuGe9I2R6U9wOO8SKY5tJkfIxclM9+UbvVTylvjEVZlHmRShuvKuG/pWn4vH+i2cm7bsulPt0P/16pWKhDMWG5gM4z+ntVrTYzlud3dAGTHIqowwetW5wS4BPbGfWqzqNp5rF7miGoxzt9qfkcZqBYyO9PAwev60h2FZfeoGU7sr09M1OACOaTYKAIhgjIxuxxn1qQqiqCQA3GcUKgV8/yoKbm5NADd3zEDgU/tz1prJtOc0qkZI7/wA6AFxig/lRQaBiU0rzTiMc0AZODTEN2gdKUn2pxwPrTcc0AJSilxkGjp14oEHSkPXtUgUEnmhkGKAIh+lOpSAKY2eoPI9qACT7uKQcAUxZXyRKOcnB9ql4pDGseK4n4o2gn8JC5AGbedGP0J2/+zV29cz4+iEvgnUkHXYr/TDqf6VUXqiZao8k8G3H2TxppMvaSUREZ/vAr/WvoDOe1fOuhMF8QaS/QrdxHj/fFfRKsAMDvVVdxUxT0qMhgc4qQ/rTMEiszQjz3pVlGCCvNJtJBJxigoAOM0CG5PpxSDkc0c+uKXPynI70DIi+07uTiuU8ba6uiaM3lPtvrglIQDyAfvN+A/UiupmlSCNpJXCRICzMx6D1rwjxRr7a/rEt38y2y/JAjfwoO/1PU/8A1q0grsiTsiDw/o0mua3DZLu2Md0rD+FB1P8AT6kV71HCkMKRwoERFCqoHAA6CuM8A6IdK0sXsy4nvAGI/uJ2H9fxx2rtgRiicrsUI2RwfxSH/ElsfQXXXPT5GrK+FTj+0tSjPVoUb8if8a1/iku7w9aMeNt2B+aP/hXP/C99viS8T+9aEj8HWqWtMX2j1ZvbuaY3Tj8aceaQDPXpWRqU5AAx4IzSqCTz+dWSoyeBTMDtjigQnTikJ4yelOpCueDQA0AE9P0o70uO4FKABSCwwjiud8a6c2oeGblI1zJEPOUem3rj8M10pxUTjcc9R/OmnZ3Bq6seC6VfHT9Ttbxc/uZAzAdSM8j8RxXuMUiywo8TK0bKGVgchgRwa8c8TaG2g61JAoJtpP3kDeqnt+B4/L1rsfh9rYurVtInbMkQLwsx6p3X8D+n0raouZcyMoOzsdsGBPAzTgQp9++KMDt696YcZ561iajsFzxgdqeFx2oQ8ceuDSkZHU0DQDdnPH1pe3+Aowc+ppR+lJgISSeOgpJcNGB3HalAJ5BNM749elAyFwT05FN25O31NTEY56g02PHPHtnNKwyJkwduRnuTSmIKBzTmJMmMYx360548KMEHvxQIcuRxxU6D5hioRtIUAc1MDx6fjTAkxik2Z6UA4OCeKf8ASkMYI8dTkjvikb5eQOR0qbH5UEAMMCgCFVyc4/GlI7r+Wakz9abjv1+tMQ0ciggKMZqToOvFNwDzzjFIBo9elPFBwaUDigQwnnp19qVsYGBz2oJyMUwg4FAyJyR1600lmPBI47GmSFi3GRRkg8CgCYK/XJzT43yRuGOaIiCME81JuHQ0AS5BGB3qIsB1HX16UMcDI71C0m3PUnvzTsBK67VLBtwH8IqMBucH5T+dNWQM/vUzRnHmRjdgcgmiwhDzjgdMAVkanu+3tGvQRpyfqa13ODgenFYl62/VJVboMY7HpmqihSItAw2tXL/LxFgA9xmumK88iud8Nx7tQvZGwdgVevQ810PTvTnuKC0JoyvAc9/Spml3KQVwD0NU1YeYADjBqZSN4yc/hUopj/fH60BOSWPQ4FOZlxw3I/CgHOck+2KQJEajawDHp71Z8xCoIOfX2qCQE/SmYI4AHPU0XGSzKXPyup9RUBYr0xnv70Z+bOcZ/lTW6885pXGAO4ZANN25bdk0q5yfSnZx2oARSCKNu445oDHOFGB9KH7AEj8aVwFKgNkjkmikBZlZSATngiimB1Vuw8tlYA+mOKjPHWl2+WDjgGmt04qmQgLZGPWgAEY5poGD6VJjPNSAg44zk+tBxSUqqCcZ4FUDAA88U5RwcgU8BccDGKTNADCPQUvSgjn2pePf8aAG96YcH7yqR7ipSAVNRHjORgUDRE2OePypwQsuQePWlKbRnvTRkHIJH8qAJVchNrEGhsEZqM89cfhSnGcNkD2oAUqMcdqEYHg0dRhT+dJxxigCVAA2ABUuM5yciq/mKTszg+tOXeCQzE+9O4hJIVByo/Co14YgipWYh884prx5GQeaTBAAAeOlNIwwcDpxigq+Mnge9LuJAyBQAqEyA+YPpVeSPbIB2qcNtOcg0Kd8u7OPanuBEYmHbNPSMnrwKtEfKMDNRkHGadhXM+VG83G4/wAqfvZOfvVO0YYgkcjp7VXlR0OCc+4pbAc74sBl0+3JzgXcRY91G7/I/GqVikivKzHOT/EMH/Jq94nVl0OWT+KOSNh7fOKjtUDs5BAUjjJrVPQzludjIflRs5G0Zb1qKQqUJB49adGVFnbBRlTEu3ntgU0ohUgce9ZSWpotiuCSTT+w9aUoQMUgGMCpGHJxSjrRto5BpgKaMClHvSHrQIaetMPBqXrRikMao9RRwDS4pcD8aYDc0hPHFKR6UzaaBDTljyKeq4pRxRQAmAORmk2mnkUAUAIRwelJ0pT+lNPFAB1pcCowWBwRUo9+tIdiNowzDPGOajDMDtNWD6VHtxk45oAOa5zx06x+DNTZlU5hCjPqWAro+a5T4kNt8DX3qWiA/wC/i047oT2PHdIXdrmlKeP9LiH/AI+K+h92Gr590NVk8R6Op6fa4vy3g19BYBxzzWlVkU0PBzzSYJNCnbxnPvSsfyxWRqIR601iM+uKduGOlZ0Gs2V3cyW8chDq23DDG498UgsWsUxsYJ9BUhPHJ+nvWfqeox6dp811PjbGpIHqewHuaYtjiPiNr5SGPRLaTDyKJLgqei9l/Hqfw9a5Lwd4fPiDWlEiYsrceZM3TPov1J/QGqN9LdalqMk8u6S5uH3bVGSSegHt2r2Hw5oi6DosVn1mPzzN6ucZ/LpWzfKrGfxO5fitxCqhDlccg1JGTtz6ml34IXgjuabhtwOOO2KyNEcz8RYFn8GzyFSTDLG49vm2/wAmrhPh1deR4xhjIJFzE8X6Bv8A2WvUPEVm+oeHtQtUXdI8LFB0+Ycj9RXi/h68XT9d0+9ZiqxTKXI/u5wf0JrWGsWZz0kme+dFz6ijtQTjqcfhTSc1kaCYppGScClbPBxgHvmk57ZpXGJ1HJpNwxmgt+famgHNAC9sGkPU0ZBOCKMHNAAcYIIoxzxSjpxR170Ac54x0Ma3oziNB9rg/eQnuT3X8R+uK8l067l06+hvbf8A1kDhwMkA+o/nXvbqCOR0rx3xhpP9k+IpdgxBP++T2z1H55rWm+hnNdT1i2uYNQsoLqF8xTKHUj3/AK04DFcf8PdR8zT7jT2PMDb0P+y3UfmCfxrsQQy57ZrNqzsXF3QLj0qXPGTUe3nj1p2eOnNAx+cnHWnKAe9MXJ9eaeOtAC4IFRtxk8e4pxLAYx3o4P1pDI/l2MD39KiVNh6/nU4AFMcZPTn2qQIWOCcAH04poLLx7cA9qnEffimsoPPrQMlOVAKkH2qRQSvOM+wpm0bQPbkU8cDHYelWiRCTmpImAIz0qLnA9qaSeT6UmNF44AzxUWfyqvHMrlgGDEHB4xUisSOmD9aAZKMHg8io2O2XaWyDzQGwcg/rSnDMDjnOKBCZIHPelwTj+VN2sADx9KlHOPSkxiLwoHQ0m7mlYjoaZk7qBDj1znihSAcgA+maTP1o3qBhlxjgY6UDImG5uRxTGx2FSnpwBUb8DOcUANR9p+YHNSh92Dg88fSo9yMMd/TrQrgHBOD2pgTmBmQsAc1GISyqxHB7A81NCxOChz0yD1p5lWNjnAJ56daYiJbcKvmZHHSp2vIwAGBXjg9qPOSSErxuNRqkMefObKHpkd6YhgVWmJD5z/DXO3jRm/nLNkM2B3xj/wDVXRLJG8pEaAY6e9ctLjzJGP8AFMxyP0/z9KcRSehpeGkVIrt1IO+YjrnoBxn862SSeKxfCbZ0yaUMCJZ3YEAcdvx/+vW057+gpy3CL0AlgQijOBmnqGJBIIIpbUMFLdAemRUpXJwxJIqCrkZGSS3WkM7O3XA6CklzghQeuKYoJGPwpDJvMKngCo2lZeoHvinYOOKhZ3GMAY6fhSGK8xKE5BC0xZuQCDmoH3hceoyM05ZMgBgcjvSGTrcDdhhgetShgVBU5HvVBnJbinJKY84HHtQBezkjr60OQCDhjxTFO9Vb+8KccnBwTigBwwQGAxnkUU5Tggr16A0UJCZ0ztlDzzTRnaM9acVATAPSkX5ulUyLjSvOaaC3TPFSFaUKAM+tACBefenY59aUcH2pQKADgDpSDrSEHPFLTAUgdjSfWnDnvTW5oAVQOgNIWB+XbkZpccc9aORmmBGRwO9BT1qQ4HPSkNAFYjHrmlILrg9qlUE5yOaY4IHTikFyLyypxnqO1AGDjpS4IPNKenHJ/lSsMGULxnmmxSl5DG3foabuyeec1EyOrhomwQcgUAXgxHyOKJIyqh+lIZGMe4KC/TrxSNMejD5D296oQ1Jtx2tjj9aTBDd8UhSNjuXj6GmGYbyAc4pDHOMHNSKU4PQ+9RKcnmpQqk5IyR0NCBlgHj2pCQP8KiWRS+zPNOJxVXJA9eOKhlXNPJLcCmbSD+tDYHO+KgU8P3hG3ICkZP8AtCqlmVaIYzyOgrW8Rj/iR3mBk+Ux4FYGmzRnyQsisu0L1xj/ADzVx2Imdtb7X060ZeV8lMH/AICKXAXOaS2GNOtlUHAjAH0xQBUPctbEUnJJB496BwKkbgH3pnfNSMcq5Axz60MhB/xpMkdODTyQ2FPB9fWmIZjHJpHOBkdM4pCCCfek5IB6UACOp4zg+9PzUWxWPJ289acgIGGwfpSAd3pegzSUZ9KACkJ5z2pSaTGRQAYyaMYOaUDFFACdaOBQPYGlAoAaaQ5zk07GaTGaAGHB70A46Ggr82e9HIqRhuxmkGM0jMCOtKp4zimAEVy/xCiaTwTqKopJAjbGOwdSf0rqM1U1OzGpaZdWLfduIWiP/AhimnZg1oeBeHnSPxFpUkhARbuIsT6bxX0G2Acjn0r5wmtriwvZbacbJ4JCjgf3lNe6eHPElrrWkQytcRrdBAs0bEKQ4HJx71pUXUiDNk4IyABSqcjB/WoIb20uJpIoJ4pJI/vojglc9Miph14rI0DJFZcuh2h1NdQQMtwDuwrYBPqa05AykenXig7VGCenU0gIW3EAHFcp4/stQudBj/s+EyvHOHdFGTtweQO/OK6tm56UNuKDaoyf5U07O5LV1Y828B6BLLMurX1uU8sbYFlXBJ/vYPbnj6+1ehEnOARz7U4Lz04pGH6npinKV3cErERGZApye49qWRduUI4P61IhI5UnJGMUpO4bWHOOKRRXOSDzg4xkV4h4o0o6L4hurZVxC7GSE4wNp5x+GcfhXuDgj5gOnWsLxJ4etvENjsk+SaMExSgcqT/Me1XTlZkzjdEPg/xHFqulQwTTD7bCgSRWblscBh6/41t3l9Z2dq9zdSrFGoyWJ6/SvEr7RdX0K7IkikBVsJNFkjPsf8aZ59/qLojvPcSdgxLcf061bgnqiOa2jOnj8YXtx41t5Y5pRYTyJB5DHgKSBnHrk5/SvRr6VdPs5rpwxSMZIHU9gP5VxnhPwdNDdxalqcYRoiGiiJyc9cn6V0vimYReHLoPyHARfc5GP8fwqKjS2N8PDnqRi+rOPuvFmozTkxSiGPoFXnv1JPNd5p9wbzTba4ddryxq5weORXkvTGDyfUV33g26e40t7ZjuNu2FyP4Tz/PNc8JXZ7mZYWEKKlBWsdH2J/kKUn2z+FRuSuT+BFKsmTg1qeCPB4opKM9qAA/drh/iRaBtLs7oH50mMf4MCf5qK7f1GPauL+Itwv8AZVpa5w7z7wPZQQf1YVUPiQpbHL+CLjyfFMERHyzxPGfbjd/Na9WCYGcV5N4Pid/F9mV6RB2f2G0j+ZxXrg6fUdKqpuTT2EHB9aXIwAaQg4zQOgPIPWszQATnAzxUqjAzn680xeOO3pUi8Dr9KAAkfWmHGTgcn0p3UU08ds+lIBAeO1LgHr1pOPoKaCccjHfIFIQoXaef0pdiswJzj0phc5PNOxvXOec9apDHMcH5fypeAOnJpgBXnqcUrNjgimIC2KZv5Bx9aU8nHSkK4HB/KkMa4jJJVdpJ5xxzUsRGAobJPrTCqsDx+Ap0aYYnt24pAWVjyMkYOeKeI8DPfPGKargLyaeOSecD0pgM8tlbdu+XHSl2k/SpNuR07/nQB68UhEJ+pzTCDuzyfpUzrzURkCnbznp0pjEXqCevpS4AB460jDntzxSlsYGDj6ZoAa6Z71D1+nvU65ZzgEAe1I67yMLz2waQFPGXxj6U7bISCOh4yateQsnzRkg+/Q1G2d2NoHFAh0YBAVSC3fBpJ4twDKxyDzzQiANlchqmbmP5fx5q+gitDJyQ31okkJXGc/WpPLG3LDFOZEkZcKeRUjIrfo2SBxn3rnHiE1syyn7yE8nvXTSx+RbyyL8wVCw79q5SV2Fm5U4KJ/8Arz+FXEiZs+FoxF4fhAxlmZ84HOTWvuJ4XBJOPpVPR4lh0WzQEf6tc49cVbGBIRzQ2C2LW75cYOfrRkjn8cVWaQg4I6e9AcyH5SeRyCakuxIXDEn5Rio84zikl+Tk/pUYO8HAxUsZKWJGA3OfWkCbSATmmhmByRwKUS5cbgCB09qVxiPxncAeSOfSoWClTjgetSyP5hHGPwphULwBwe1MZHsxgg5z+lIM7iDn0qVsFwoGMCgpkHnmkBNGwBGCKeeD0JH8qrRODjtjmrOGJ2hjk+lICRF980U5BwvUjGMnvRTA6VtwXk9aQUkjAnApqsc4qjNEhIXr+tG7J9aQMOlBI/LrQApb8KcDxzTCfWlDfKCaAHnBGQfrTQcjpSbxg4496QNnGKYD84zQOvP51GODyeKcCWWgB5ozkf0poPFAPPNMBrdevWnZz3prRljkdKeo4pAMyPWowxAwBUo256UEZPFAECk856+9KFyfvYp7JkntTRuUYJ4HQ0DIyNwPynd+lMX5cg8VYZhsyVPNV9hUE9Qe1ADBMQ/DYFTNyoZuR6g1AYN8nyMNp/MVOuEYxnkY4pIYw84Kt9fpTTGoJPOTzSkAHA7UIxyVbp29qAJEC4C5OT604/IevHrURGB649KVXOAM0rgyUEdxS7twyDn3qFVIJ5OKljQDGDVEjlZt2T0+lIybemcVJ7UxyR1FAGVrKb9HvVxn9y/8q5jTPLxCxHzeWMY6du1dZqI3WFwoIG6MjJ7cVxemHy7S2VACBF/nFaw2M6h3tm2dLt2yeGYA/QkVIxB9qg0k/wDEkgY5By2c+uTVgjgEfnUS3KjsNbpTA3rSksc4wAacAud2Bj0qShuOc8mnbcinINxK4PIyDiiPKttPSqsK41hgfWmg06UrjqBzUSOWJA6UmA8+9GOetKTgDmjNAxuaT8KU9eRRyelAgPSjPt+VDDJAP6U3G3HpSAdn/wDXQfu5owD0PNI2Q2CKAEzjrQDxTGYhie2eBTkOR2waBj89iKTt0/Kjjt2pO2KBCdTSEce1K2FwGz+FLgHoM+xpWHcgHIHQ00k/LjG0GpdhQDpyOtJk+lAAp/hNL0/CkZO4ODTee6k0Bc4vxn4IGsy/2hp5WK924kQjCy4HH0btmvN7nRdZtJjbvp90smcKEQtn6EfSvfcjqelMIXbxj6VoptEuKZ5x8OvDWoaXez6nqIaESxeWkL/eOSCS3p06e9ehht/3emeuKCVGOPxzSliPmB49qmT5ndlJWQp2555phbvjNB+bk4zSe1SAwjJOaTABz6084GQTTF2tIVJ4AzigBgQ8PkgbuRmmZXcULEMeeRUoIhG1wWOcgkVEzBnYgYJpsESErtAAxj9ar4w/BPHQUvOee9PABpDE+97GozhSQ4+8ae2B3xQQCPUUAV2jVvvr8p9aVLeGMERoqj0AqU5ZNhIIHFRg449DTEPxgc4xXIeNbvL21l/Cv71/Xngf1rrXdUBYnCgZYnsBXmep3IvdRnumc4kYlc/wr0H6VnUlZHp5XS56vO+hnm1kEfmqh8rdt3Y4z6Z9a2fDN4bXVkVXCpMvltngZ7H9P1rpLXQEl8NLaSjbLLmQnurnp+XA/CuLCMrEEbZFOCO4YVmk42Z6sa0MVGdPtp/wT0iSGQMCTnnnnFOT7wPIqvpt7/aGnxTHl8YcDs3eraxkdenpW9z5qcHCTi90KQ2fvAjFJtdV4Cn6Gl2ZODzUojwoDdfzp2JM251O2tLmG1uZkglmBMYdsbsV5l4r1EalrU0sbBoYR5UR6g46n8Tn8MVrfEzT5he2mogMY/K8vcM/KQSfw6/pXNaXa3OtulnDGS5I3SAHCjPJJrWMUlczk3sdP8N9MfbdarIhG8+VCT3APzfrgfhXoB7darafp8el2MNnAMRQoFHHX1J+p5q1yfyrOTu7lRVlYQ4J4yab07HFSKPpSEe30qSxFPQgU8cjimjg5OKk6DOaABsY5yGph6+3WnnuORUbEDjrg/WkAhHGaRk4OD+dIcHpnHuKduz35oAZ04IPNSlPl4GPUVG2c7sjjGARU+7dGDggntiqQmNVflz1zzmonZSSBnI9qmJYjA5PtyarKrHkjg8HNJgiU4AApuOfehs7Se9MA+XcQfpSGS7eM+tOHHSkBAHSl57DtQMfkDrT0bA45HSocc9frTgxK7QaALisu055+tNJBPTGaiQnbyc+lTIMsKBEe9Q5XBz16VDK6AncFLdelWpQFAUAAHmo2jQ53DPvTEVwctjmpApqUQCPkgdMj2puzDZPA9KBgiECn8EYHB9TxTXbAHzY9qbuB74+negRIgK5XGO+KYyAknA+tOQ985NK3bIoAaowB6ChQAWzT89OKAAA3fI/z/OmKxF+BpoUk5GOOtOwenFKDhSOvHIxSGVL6Ty9KuG9Izj8q5PUiUspXGcbMDH1H+fwrptVDrpVwHBKEhccdzgVzuqsHszHyu90XJ6DLD9KuOhEjrLQCOytwVAAQD8hT2di+RgD0FPEeyJR6ChYlYElfm7ZpMpEag+Zwuc89KcMo+4HC96I2bGAuB0607hiVB7VIyu8qO7Kc/XFMAQOCGJPSh4gjEE+/FNHB6VIyQxswJU7eeCKaCd2G59cUxwW56EDj2qBQAT6mgaL7AFcqOewqBtyNjnPvSwu7yRrkkdcGppwjTFgnIGDTGRBldeQ24enSnBiQR3NRnMbZxwalH7yPpj3pARkeWOejd6t2oLLvb14qpnCYzn2q3BkJhjnHrSAtggj3FFIi5+6ce/WiqQG6OTT1Xjp+OaaOD7U8H5elBmNEfJzTtmB1zQW/wD1UbsgcGgYm3NIBz708HknFNHDHPemAjEL25oXdtyQAPrSlirnbznrQPmHPbpTEGB3pcdeSPajjpmhm9etACgbR0o5pFYYx3oJ4oAXfS5J68004x1pwHyigY1SpbinE96UKMnAxioyWPJwKQMHy4wuM0LE0a57+1OidR1Bz60jS7nwOmM8VStYRHuYkZP6UrKKXOD0ockg7RyakZEseyTcD+Hao5lO8MOMH86kVyuQeo/OockZVjketAx0gG3czc4xxUSZLjHNOM2zAdSV9aeQFdZUOQTQBOEG7igxocZFNEgVuv6U5sEcmmSNAIyOoHSjBzkNgilABHXmjGT059qBignv1pWZWHJ/CmPA5yc5HvTDGeoJA9KBEdyqPE4BySpGPrXB6LFKlrEpIJT5MemPWu6cMATjIHWuT0pQqRnbllcnH44x+lawehnUOy0o/wDEr2HBKuRnHTnP9asMAQMCqWjMzQXaswIWbIwuP4RVzqO1TLcqOxHjGaQd+oGafjOfT3pp+X3FQMenqOgppwD06mmqRwO/rTt2cDsau4iOROpFM8st8wADZ5qViQAAOKRQp+YYz1FKwXI2JGAQQacCSOaewzwTUDHa3GSPWk1YaJCPyoApitkZHSnUAKeaQ0oz2pT+tFhh70SFhHlQKMc5707aSOBmgRTJlWQBkOe+BmpgpGCO46e9SPwMnP4011yMgfd5osA3qCD/AD60uOgApvIal3BQATzSGNcBmznH40nnorbACW74pwBkB6huVye4ppYBjGqgEj5m7/SgQ4MXJ9qTGP8A61KuMdKU8n6+tACHoetL3YGjnpQducc0ICJ2Knp9MVXLDnvirbJuTGM1C1sMna2PY80MaK+7OcdcdKeZZAgCKCe4NNKiNtzNwTgcU/KnBzyOOlAxiyAhWKEFvyp/UDFPPlugAOfWq4Yo+3HHWgQ5hjrjNV2VUmDgkHGODVh8Yz2Hb0qu67gSB+FIYHexBZiwwMnHWgrjkcj2o81Vh2bzn6VFyWJ3HHpTAcS2cYyKeBkcdaZncOnNKpK8nGaQCMOwpBhRz0p5Oee1NOOKAGL/ALBHJ701sge9DqAcDFEoyCRyCBincVjJ8Q3pttIl2tiWXEakdcHr+ma47SrE6hqUFswPlk5cgZwo5P8An1Nafie5d75IAGMcS8j0Y9/yxU3hZ7a1M9zcSpG7YRQx5xwT/n2rJ6yPew6dDCNxWrOuNcZ4o0sW94L2NQEmPzY7Nz/Mfyro5Ne06MZ+0hz6KD/OszUdd06/spLYxTHeOCRjB7H8KcrNHJgoVqdVS5XbqZ/hq9+y3/kOcQT9MdA3Y/0rsDjPSvORnGQeQeK6GPxDcwwr5xjZjxyvWlFnTjcJKpPngdKDj8KXzD35xVDS9Si1K3Z1wHQ4YDp/nrV7HzY/StUzxpwcJOMtwnjWeIq6K6ngowzxVCGwsrDJhhjt88sUXGfrWgrHHyn68VHLAtwp3Ehs4/Chsmw1JRKT8+R9Kl6DmqkUMsMwRQSAcE47Va69B7UAGaMnFIDkkUoIxQAgBBp3IxQRkemf0pwOQT0JpDG9M4HWmH61IcDkimHk980mAgHWm5XcVB5p4A9KbsCnIHJpXGNODyeKlxsGAT9DUeCrDjvipx82cetUiWCnA6Y7CoD5u45AI6cVO+FXkZ9c1E0m1sIQRTEhilgMsvNCnJOepqRlyOMZxUPXn8MVJRL2FKD6fpUae/XvTv096TGKx56+1L3zRyeAPwpaEBKvSnq2Dx+NVw+1c5NKGGDnrTsIubw+AcHBpFJHAzUcbgZzjFSBl3YzkHtTEKcsCzfdFDKpAJzgnio2d2yqcIDznmnBBjjtQMiKMWyenam7Du68VbQLnJzikIUtwOKQFXLLwuQeopxkY9MY9e9SlBzkVH5Y7UXAamecGpFfjDfSkYAKeKbjJOcUCJDxxjnsaRsmIgYJz3HWo9xHvUgI2jGd2eRQBna0G+wBQSMyp09mB/pXL6lMy32mwIxzJdxh1xkY3Z5rpNcG6K2Usq5lOM/7prn4I/O1myIOCsu9iMZOB3/StYmUkdpIxAGMc1KjLt5HGajO7BC4H1pUyUC/KT1yKnYtBKoXDcAEYIqPZycdTmpydxxjiozx3FJlIhMe9uuMULAiZ3gdOlTBSxyMH6mggY6ZPvxUjIuq4AyoOKY8IdNu3DZ9f8/5FS7Qpzzg9aR2GQM9fTigCMIY0GUA9cCo3Ku/IOcZBB6fWpQEJ+ct7HNMGPX9KCkK0S7RvOTjnHQ0OqEqIxjHXjg/iaYCQXVzkdj6Cpc4jJDDA9O1IoiZVQAA/rU8WGXGcCooHBUuRkg96thQRgAfWixLFiZsAYzjvRUpiJIy3PrRTSFc3QBnHIpwC5wWxUaSE8GpV5x+lMkNuT60YxRyrE/w0uQee1Ahoz2pDnIpy525I6UKMjPYUDEA55GKdyRzS5zSH1/nRcACjdQcD3ppc9qTJOTnmgB3bjoaQEbqTdgUhbmgB/y9/pTyduMfpTQuO1PA9TTAY/LCkOPrTzzwelRkDPvSAcCCAMdaY6YyQPwpSpI46Um5iMZ4+lMQ0EqwyOtPJGDil8remM+4pjAo2DzQFxmBnPehuQeOtPJ3LnpUZ3AjC57E+1IZEwO3aw460ws4wBytTyDceKYcd+fSkA6NkPDAh+3vUoxtqEMVkVvwwald23Z7YFMBR7fnTx8p3GoA4JA9KcTxgdaAZNJMCMY4xVZC20s5wOuKfwwBPX0qGaN2GCwwDwBTuJEbsr52kn1rlLDdG7KMbvOkGD2G811nllEbA6n0rlYAftlzwSy3LHrz1z+FXDUiZ12kKBbzkDq4/kKnZgCADkiq2kSFobnkZBBxjnpVjAIHAP40THHYaeeT2FHP6U7cevIGelPCgj5jyalIY1eBTDIiMFdcZHB7U8oVPqOMCmSxLKh5IIzj61VhDz7AUhGe2MdCKYiMgAZtwx171IBuGM8+lNCIxkAgkUBN6kEYHX6UGMgA5yTSrwhUHHHSkMrbfLY9smpVyecUske/vzUYJVMdaViiVeaWmo3PXANPGNwzj8KBC54NODUEgHBpuRgDnOM9KYhWJbAA61GrDPOQaa7swwD1PWmYAz61LkMkLhztBX61UeJ88qSPUVOPoKUsVIGSB0o3AVXKxHI+bb0xTMZYsx+Y8gU+bccAdufTNMAIJBBoYx3sDRjn6Vm6rr+maIobUbpIc8hTy35Dk1xGqfFeNC0elWBcjgSzNgfgB/XFCi2S2keknj1qMyxo2HYdM8+leG33jvxHqblFvHj3f8s7Zdv4+v61UGneKb8B/s+pyhxuDvuwfxPWr9n3ZPP2PdmvYEHzXMS57M4FILi3c4W4iY+zA14UPBniaRv+QXPk8Z3L6d+abJ4O8UQZ/wCJZcn2TB+vSj2a7j57dD3kH0IYe3NNwDnivAV07xLakH7FqcYxjIjcACkh8ReI9Ok3i+voyDgiXJ/n+NHs+zEqnke/AAjaD096B155zXidt8SddthteSGfnkzR8/oRW5Z/Ff5Qt7p/zdzC3UfQ0vZSKVRHp525ODyT61EqkKc4wR+VclbfEbw/cgebJNbkHgyRlv5Z61s2XijRbs4g1O2J7qz7Tn6GpcWtxqSZoIP3hB59PanyFB9/17UzzYJSSkiEEjkMKY/Enfr0pFXHBVY8dOtAxzg/nTQxJ5FPAHXFICFshjnp7U4HNSFSc4Gaj24HHSgBrqSMj0pQAFC9aTd2x+tNBIIwRxTA5XW9Hu5bud7aIuJBuBzj0OK5rZIrbXXaw6gjB616eBxnP5VXmtYZwC8KMfdaiUbnqUMycI8slc87Q8ZIxRktx1x0rtZ/DtpO2QXib/ZPWqP/AAiQHW6zz/c/+vUcrO6OY0GtXY5lTggqMnqAB1rattCudTst5JiXOY9w+9x/Kt6z0GztSH2eY453Pzz9K0WPOBwBVxjbc5MRmV9KX3lHTNLi0q08pDuYnLt61eOKTjPX34pScZAGao8uc3OTlLcBwMkUmWwPzowPQgUjHAoJAHuD+NIuc8nn1oGDnHQ96XaDkfrRcBGBzk0oFRAsjFCcjtmno3OMcUASYyAKTuR70oJBzS4I6cmgBhHA9KTJx6HHpTyCeaa3WkA3cc0HoTTcgkjjPvT1XeO4pAICpOPm3Z4xU6KFGOck5NKFQAkAbhxmoi4AOflHrnpVLQRFdPuAQHk9RQseBu3c+5qLBklPXI6+1TAPt5BOPWgaHgk89MdKjKh+QMNn86crA8E4NMZD5hIwPSkAwsyH5kI296cjhgWpwJPU1GdqsQwAGf4TSsMkRiT3AFPJGORn6VGqAHcrH3GKd6D1piGeduJHQdvapU6YB6DnNRiFVbPT29akBLn5V6dqAH7tuAuMU7eMAkHH5moGl5Ix9OetPjOG570wLa4IAJz+NSdzxUA4xn0qwvzKCcH6UARktnjGPrTsgZpxBzj29KDj7p60gGnHFAUDrSjjp0oyTwaQDSuRnqKYw4x36VJ3xwPrTtvBznNAFYxliASSAaR224HX1qw/B5xmorkhUUkYIHDf0piZja2FaW1bAJAfvjHSqelxodVjJUllU4Oenbp+NXNZZTNGjY+4Sfz7VX0ZM6kwHC+XkD15rZbEM6BmweKWIlslhgAdajG4yEE9TgcflTwxjJRs461DKJCSRgfrQqhGIYZwOPaqzS/vQrMMHnHvTiWGWGefbrU3KsTjJHIFDorArheemR0pokXHUA0zdyfb0pAOZzGDvO4dKbIkb4IyH7Y6U/eACWGRUUk53fIuD/SkAwqQQGOAtLhX4zx3p0gEgLDlvemhH4OTt6HHSmUQthgTjipYSoGAVJPGDStGMY7jqOtIipHuPJLdKTHcaYSqnYNr5796lgco21z8wH60z7qDjK/3c4pzxEgNEy+47ilcRbVty5/nzRUAMg4Ax7mindisdLGu0kkY5qUNnr29aiYg45+tN5JyO1MkmYjlT0703G7hPz9KaDkdyTUiFcYXGR1piGs2wbdrflTuDkinE+2RTWbahx1z+VIaG4YPk8ilJOeePamqcnk96cetADQuSSDTecYx+NLzn2PrQD+tADSDxkc0o5NLj6596XHIFMB6jpg07gDimBsHk8U/IIoAaWHOTSHPPtSkDNNLNu4xjFAAAW5DHFBzuAwcd6UD0pzZCk4JI7DvTEKm0KXJ4AJNV5GWSUyAnBHAIxUw3MhTgZ71AeCc9abBAWAwACTS8EdKFB7Higx9sn8akYmOR70bQSaUKQw+8PxperkEHnvSsMYuxWA4PoKbKTIAApJFSeUmCWY9M88ZoQbgcHHWmIgEMgbt+dSYKgcHFPj+dcHj0pPI2j5G98UwELsuAFJX1FIxIHUn9afsIXkmlJ3RkjrjvQBVeUFTjv61yXzJqd2ucbbjt3GAf64/CusVWBIZV56HFcleHb4gvFXG7zF59BtHH51pAzmdfouGacADlVyR+NWVjRlIzketUvD6svnbieUXH61pbQoOcLj3okgjsMZBtJHU880gbHLH86cRnoc+1N2ZH3RSGw3Z9/Sk4A6fWjbgcAdKb0BHrRcLDlJP9aQ5HQZ+tMLfMQKcDkd6LhYOoxkAD1pCoYn3GKCSNxxxwBimq2T3GKLjB1xgcY9KcY1Kjseh9qDuP09aVHUYG6mIiRRjdn6DpT3YA+9LsO7rwKY4LGpegD1kz95QRnqKRpHLHb93t7UAYXA/WjA7jrSuUkJgZpCOcfyNKwyuAeahaQqvzZyTgcVNhjuByfypQ3cnjqKhZ3xkA9cHjtWH4j8WWfh213TsZbpwfKgXgn0JPYZ7/lVJNktmnqupWemWrXN9cJFCD95u/sPU+1eYa/8AEm8vGeDSwbS25XzTgyP7j+7WHJJrnjnWwqq00x6BfljiXPU+g5+tek+G/h/YaKY7i723l6uDucfJGf8AZH5cn0rSyitdyLuT0PPdL8F+IPEMi3DRGGOT5muLkkbs98dSa7rTPhdpNoA9/LLfNjlT8ifkOf1ruguBjtS+341DqMaiihY6TYaZGFsrSGBRjHloAfz6mrLHOMqeKkOAe2e1NbGDlevIqb3KQgVVye1CgZzmhSPTFKRjimAxge4DD3qrLbwumx4UKHjBUYq1/F/9ekcEqR68Uh2ObvfC+h6hkyadb/fOcRgZP1FYt18NvD04HlpcQOOCY36/geK7kIqgk8/hUe3qRjNNSa2Fypnlt18KG2n7Jqff5Vlj9/UViXPw41625jFvNj+4+D+v+Ne1Mp6Y4qIrk1XtZC9mjwx/DvijT2LRWV2oUZ3QNnoevymkXxP4m0tisl1dxMD924XPb0YfSvdjGQn3fzqtJFFPGUkRShPKsuQfqKftO6FyW2Z5RafE7VIcC4hhnA6nG0n3z/8AWrptN+Jen3txDBcW0tu0hC7wQygn+lbV54W0W+bM+nwvzwVXYc/UVj3fw10S4Ja3a5tZOcbGDLntwRQ3B9BWmjsVuoXhWXeCrYwQDUK3SMQUIKnke9ctaaHr2k2xto7mO+tuSBny2575z/Wobm+vbHBOnXwbbyETeoP1H5VHLfY0v3OtEyK6k9O/pT2CtkDkHg15nf8Aj68gLpFpzRsuNjyggdeu38+9Za/EjW1kdttvhuduzgcVXs5E+0R7Cud2McGgLg89K8kuPibrEtvJEkdvGWBAkRSCvuMk0/wV4s1EeIbeyvLiS4guW2MHO4qeoYE+/X2odJ2uCqRvY9YZcnggUgJBKt+HFSYAyOeOKjkJxkdOuazLFYkKcYzjiuD8S+LrvSpHiju7NXGcIil39MHsCKzPFvj6QmTT9HnAjA2vcrkE+u0/1rhbO0utUvUtreNpp5W6dfxPtW9On1kZTqdEdVYfETU47yOW+JnhXJMaALn2ziuss/iNo1yQLjzbbvkrkViWPwskeAPe6h5T4+5FGGx+Oajv/hhexAtZXscwzwrrtIHvSfs2xL2iPRLHUbLUIWltbmKZOvyNk/54qRpVkLLG/TA+bivDHj1Tw1qoRjLa3MZDAjofcdiK9Y8Ma/b+ItMMjqiXsOFmUcduGHsefyNTKnbVFxnfRm7HzkdjUpOOeeagjHzEZ5zx71Pis7FjXUMwI/KmmMoQemQcg1NgYHc0xoyX3ZPTp60wHqDxz1FOwSOaRevuKdkc570hiEjGe3rUZJPbvUjdxSKAH5zn3osA4qmASPu9OeahaTOMAirDAMg9qgZ1i4A5x0xTJBpcqPXpyOtMDB8gkDNEo8xNwIGOuaI3dmAEB44JPpQMadsb7Ae2af1XG7rUlwq7AdvPr6VCifxdKkYARj74OT0NIzKuO/0p7DBA5/CmYB9j2oAA4Py7SCPWkaPdjcRx0PSnnGRxg0089KBihVBwD0qSPg56jHPtUYGDg4oPPAJ/GmITzQ8mRzg80+RhhSBSRW4iUkHqOaXqSG5HoaTAgnxgPEPmzjGccf5FOSU8RPjIHepgq56fTFIFORz8o6igCQdME96sI/y8fjVdTjH+cU7dj/E0AWge45pGyxz1x+lRr0OTTlOOtADhkD3oB5wRzQSQpGOtIMAe9ACgc5z17Up655yKaCeR+XpTs8cUhDs5z3xTZT+6B/yacxyvJz9TUMjY4b1poDnNY2tqoRT8/khiPxNLoOJL64bdnai/h1pmpzLHqs8xztWMKQPbJ/rU3h2QzzXcpxg7QMVvsjPqbSoocEMzc7utOlB34x8u3vTM7JUYN2/Kpo5FlO7cC2MmsmzRIrNAJFG7Bx605V2Rkbs56A1MBknqPWjbwA3UdcisyxmDIM4x2qLcwJBXBHerKJg5HB9qedzPgnI9DRcViEIcDIBpkkJ4Kj64q2AoGB/jSFDgjpQMhiUE7f8AJp7uFzuBIxTN20kjBxUUzhmOV/8Ar0XCxKqxtll6nA+tMJQMVGeDjpVdS4UhTjvVmMhlCycn1ApAMJBPJGKRh83yknHfNOVCuQ2CMcNQmUYlRmgB0Erbthb5R1zRTeCu4HBz6UUDOkjcMvzFcnt6U94uh++OvpUeFTBxk5wM1Mhyp3DirRmMZ37Y4oVtzhm7UFNoySDzwKYrEkk/p0pgT9G60h4J5zSRscYbn2pT1yCSKQCbjnHTBozjqQaacZzjNLvyenagBSeMjrSZyMUuOMUdDkD86ADBz3/Olb9KaGI5xninZB6dO1AXHJyPpT/bPamgc+9KMk9OO1MVxCMHIHNNIYcr+IqYgUw4/OgYi/MaON1IygdKcq9O+aYhSRjjuKj2YH1qWTaAAOKhJyffpRIEJuZiAKASCR39aUcH3o75qRibsHBHGOtO4PNNP0pydwQKaBjXyRgc/Wmx4HytwegxTmxu46UxMFxn1oAfgqfalywqXGMrgZxRs+pphcidgQM8GgfKnXNDxtnhTim7W2nPSgQxgM9a4PVJfs3iy9+QHzBGx656YzzwOn6V3px0NcL4lKw+I2HzZkgTbgZ6FuT+da0yKmx0/hy68y6liAyGj3D2wf8A6/6Vqlg5I3A84PauX8JGVdZYFiym3bI99y4/rWvq19baTbXF9dv5dtAMuxGSTnHHqTkCpmENjTUdjjn9afJkjC9hXEaV8TND1XUYbJorq2aQ7UeYAqxPbINdmqYJKcgGnZrRjunsJ5h4DDkimFg3y/5PvVoQmTBAxjn8KrTRtGp5zzjmpaY0NCAc+lPAG3pRCAygEEd85qcQ89DRYCufoStIFAx1qVoxnHXHemmFv4ehosAzeMU0j58oceop/llf4TTiu7nFMQoO5RuGCRyM9DURPPQ5qZxgfQUhjwuRg55olqCI+frQTn+VOAz160vl57fhWZSI+Qw4yPShtoAJwPqakMfH9KzNc1W10XSJr26G7Z/q0HV37KKaQNmN4q8Ux+GbEGMJLfSg+RCTwMfxN3x/OvLdF0PVfGusSytISu7NzdMOBnsPU46CpbLT9T8Y+IyrOzSzHdLIeREn0J6DsPevbNH0a10bTorO0QJGgwTjlj3Y+pNb6QXmZfGyvo2iWGhWS21jAsaqPmf+Jz6se5q8SWPJyam8rJA5/LNVLu/sNPbF1ewQEnjzHArF3ZexLg+lLyPQetFrcW99GZLeeOVOm5GBqVoTnPT3qbDRW8s45cD6DNKclSM5x04qfycU0rjGKYyspwxByB9KkOPwzSOQHxz6UoGBg0CGnNNP86eVIPrTG9DTHcYy7hwfeo+QcAVKQT06U0ggZpARt0qu33uOKskexxUEnLZ6UhjSxwSM5PXmoHzyc1PkAdKTYCRkdDQAwDOPpTWBDHntTvuvjPel8sH60WC4zyxxkCk2kcAAntnmnkc8j8aXkD1x6U7BcqyWkEuRJGrn/aGc1n3HhzSZkcSadbnecnCAVsMhYjHSo+VIB5B7Zo2E0jmG8C+HHIJ08AjPR2GfwzV3TfDOj6TOtxZWMaTKNockswB9MmtloyDuXnnoKAAD7mhyYcqE35/lTbm3F3YT2xYr50bR7h1GQRUm2lHXAqRniU/w/wDEC3zWyWyuobaJd4CkevPNd54Q8Iv4ZknkuJkmmnUDKrgIBk9/U/yrrpMDoBmotuc8dK0lUclYhQSdxxbbgdfw70E5A5PNAXPbOKcVGORWdiziviLpX2zQPtyLmazYHIHJQnBH6g/hXE+CNRay8U2y5Iiuf3Djsd3T9cV65q1t9q0a+tsHMtu6Dv1U4rweznNrd29yg+aKRXH1BB/pXRS1i0YzVpXPoNEwpIHPepVII5OKQYbkdMUvQ1ibCEZBwe1C5Jxg4FHOaN2FPH60AOH1PFJg4z+lM8wlsEdacrhTg5xxQAjMwyBjPvT19Tyaa0yg7WXJJIpqEMe/FAEjElfSmSKuQTyT7UvQkMwxjpTtoJO7JzximIay5GVAyPbg0nmkA5WiSTcgUDjOM01EIBHapbGhMNJknGDxTyOMcY96XNNLc4wc+lIYjjg8ZqNUYtuJP5VISW4JFAUjqeKAGhTnBHtQRxgYyO1TBSe1NaIgkjqKAIlVzkcY/nQ6lCD69xUoXepwCD61KUAjAx16ZqkJsQnKgqAeKhPyybex6VIdwXK1E6FjnOTSYIlxkZPT6YpuM8Zx9KaknHOd1OVs84wc0hi9Bg4/GkHtx7Up9efSlHoen8qAHq+KerZySBwahGC3WnqxCY4z60ATghh0xjrmlxzjrUSk8eo707eAOf0oAkHTgjFJx2OeKaXz0FJu56UASemelR8E9eQe56Uu/A57DiowCT0/WnETOVvpd9zdkhlPmsqAjHQcGrnhbKafckjafN4GMcBR/wDXrPvGL/avJZTJ5jDD9Ac+1bmirjSAxUAlmJx9T/hWzehmtyfaWlHc9OatrEIuc9umOcVWQA3B4xjp61ecqVAzk+lYM2RGcdachG3OP0xmhemO2KOhADZA9ai4wVvm78in7vQ0zJD5A475py/MemQOTTAkAXGd2T34poXlip680vsAOvPFAyCM8kigBjRg8DPTn3qN42RDnDBsYxVkZ/pSNwhxyc9cUAUxHg5I69zUgQjsMehqYZ+6wPT60pUYP9KkCEADqOMUhQFeBj3pxBAyacOXwSapAMji+fnJ/rRVkLgdB+VFK4GsB+9OGI46etI6bSXLsxPQGljBBwcZ5pzNtOF+8e9WSD7Fi+bhiefamlMITngVGMqSWYHnPJpwOO/FAhA2zqePpUqyDn0qFjxkDinLyO2ewoAmG1mJpcDrioVZhjsDTi/v2oAfSA4BNN3Ep8vJFOQkpuIwaYCk96MUnTnj6UHG72oESg5NKcgU0cLxzSHORk8elMQvPr+FGc5yacDg800DH3enpQMUg+lPHyHcQeO9MjLk8jHv61I3zRY6ZpoTIG65BzTQACaeR6VGWAYjNSykJ0OKXJxzQG59aN2TnpSAcg4Oadx06U0HtTuPSmAm31qCQMrAoasYz3pCu4DrQBJGAUV+p70/nIwTzUMbhV2sM9eakD9sGmIkO7AyOKaVBGBxT+cc8/Wl4EfWmhFSWEht3pXAeLmC61E4VsmHA56jd/KvRn+b5a8+8Zx41O0yvytG49zgqa0huRPYm8ELdR6uyzSJKn2V8Nn5iSy9sY4x/Krvj/T5tT8JalbwRlphiUAdTtYMQPfiqfhV2XWbbADBw6k+mQT/AErspCROwwMHnFE3azFBXVj5aDHgo2CDkEdvevpHwjrH9t+FrC/Zw0rR7ZTgD514bp7ivEvHWif2J4nuYVTbbznz4QD0Vicj8CD+Fdt8Hr3OnanYnGY5VlHOc7hj/wBl/WtJO8bkw0lY9U45KnB7GobgHyzjliO/tTs7sdV9x1qQpwc/me1ZGpUglDNg4wVyDV0n5cjv6VRmgaLBVQVHH0FLE+PusfYZ4pAWSBk5FAOPcdqYCcHJJ+tKrYOKQxx64xx9KaO/enMcDmkByM0wEdQy4xyO9AQ7QMdOtPB7U4EY9KBDBGAOlJ5Z6dqlpuc/Qd6LAJ5RfJyOuK8X8aa1Jr+tGG2f/QLX5YsHh27v+Pb2HvXofjrWjpXhx4onAuLw+SmDyq/xNj6cZ9WFcV4A0pdR15LiUDyLHbKwPd/4P1BP/AfetYRsuZmc3d8p3vgvwj/wj+iRiZQL+cB5+MbfRPwyfxzW7eeVp9nJdXcqRQxjJYn9Pr7VfRgRXkXj7WLy48RzWJ3+RA6rHEDgZIHzH8f0xShDnkEpciJdZ8Uanq7GDTZPsNp/FIeZG/w+g/OuNs/COt61qUlvawSXUmfml52rnuWPAruPB/ho+IbpmlZo7C3x5hHV2PIUH+vbj1r1+xs7awtVt7WFIYV5CIMCt5OMNImavLVnzfb6fr3hXUDLCXS5gfEsWDyB2I7iva/D19H4h0OK/RRGxYrLEOdrDqM/TB/GuV+I4jj8SjYADJbIzlepbcwyfwAq18MJnFrq1uSPKSZHXA7sCD/6CKmaTjzDg2pWOqNuRnB/Piq0kTISe2a0JW+Ynk96qTtkHj8TXKzdGfcoSrMDyMfnQpOME896fOd6kBgCemahWQMoP+c1Ix+fzqMnPWlbcCSPwppB55oAQnPQVEWIzzUnQd6gkZfT86BoUSZyppsigjg1FnDY9akQcHJNIZGBz2xTmk2IRtJHHIpxT5j15qOZTtBXv1oAj6YJ9c/SnKwOaR2BPy/qOakjHAHGKaBhxgcZzTTyODUhHt9BTB15/KmITv6VHIOhGMfSnnrzTWy31pDG7cj5WwOvWmEkHkjPancrgD6U3OR6GkxiN2waVSCOOvWmYYtuA704gYztzQIHA7nmmbcc4J/CgvwMKTShOuAee9MBAu3kdOwNOJypxyaNjH3HemkFFHc9PpSC4Kv97qelfPt7b/Zry6tlJ/dSvGD06HFfQSAk7j9ea8P8V2v2TxZqkYzgzF157N839a1ovczqHtGmS+dpVnPncZIEbOMZJA5qy3K4H5VheCrtbrwhp5BUmNDEQO20kfywa3Wyc+lZvc0WwhOSexrL1nxFpuhRqb24Cu/KRqMsR649KuX95b6dZT3ty5WKFC5I5J9h7mvB9Z1abWtVmvrjguflXsi9gK0pw5tyJz5T3TTNSs9XtRdWMwmiJwccbT6EHvV98gDA6Vx3w7077D4XS5533jmVgeMAfKP5Z/Guw3kjBOaiVk2kVFtq43G7k/N71IqDaSeB3pgBQ8dKcmWLEn5QenSkhj9oyCTxTHfYOF98mh5EycEfgajPLg5yPWiTBIB8xyfWlbjoM/WjPOMc+tIRkdOakYgJDDd1qK8u0s7Wa4kzshjMjY54AycflUw5GG5x7VHPbRzQPBIu6J1KOp7qeCP1oA8tn+Juom7Z7e1gEO7hJMk498Guj0D4i2OozJa38f2OZuA5OUY/Xsay734WphjZX7AnJVZVz9BxXm7IUcqcblJH5V0qEJLQw5pxep9JggDGQRQDj3FZnh+SS68O6ZNIS0j2sbN/3yOa0iCO+K53ozZO6H7xnApzYI5OKiVDvO70pzBcgFsZwBTTExM/LjPGfzpgQFgBx14qUrgEZNIvQ4zmmAjxrt6VEAVOCOO1Shzkgjn19aQRZJ9+1JjTGhiQenoM0/IJwBg1GYyjcnI9RSg9Dj9KkY7kH8KVOQTxxTfXH60owP8ACi4D+nfFLnPBNIPmI45xzSEovfJzxii4Dxk0oHb+dRqckc9qdv5BHekA5m6hRz/KkGSx45wcUMQOcgY9KSRh5L4PO09KpCZxSOWm+UsAxLZA45NdFoQkTw/b+Yd0jLu5453H/P5VzhYLHu2nbs6EdOK6qxy+lWfOf3SZJ4I+WtWZx3JrVg05LdB/Or06qFHI9h+VZ0EoWbOce4q3LvkQEPg9Qce1Ys1FHyk5xS5DLjd83tUCgq3zEknrnvTweMbSKkoeOuPbFSKcYzg44quWLDb0x/d609SeuOaAJyQDzTSyo2cDNRqenpTgw6nG2gCcNnkjH16UZB6447VA8nzDHA/rQDxkHr1xQBMSNwzj6UmBk/N19KjPXpzQDg5xj1pWAcwyDzn2qOHcGEbEex9RTjknOeooCAk+vrQMk+XBAI46YoqEnqMZPpnrRQI3HDrj5ue2KU8ICTk8dfWne9PCb4yMgH1xVkjB8y7T3qHDA7SP/r1KVIOCcn1pzoGUeooAh5BGQaXjPFPAA4PFJjHNAhm1CSQSDTlAHGabtzzSlcCgB5IUYNNJ+YEdKQjJ9qeBge1MB45GPSgD6mkAHc05SM4HrigQ5c7T6U9RgD1oGT3pCcd6AHADoaaQF6YxS9RxSheQfyoAVEBHX8KGG1cU5Dxljx1qAnJJ5qtkLqBqJ1D+1P3Bjg8EUHIFQUMGAMelOx8vWm8dCeacgOOuaAA8etKvPSlHLYIx35p5z2FMBoHenDrzSY4z0p2O3FADcYYjAwaeORk4zTHXYCSeB7URyLsGB1PX2oEyXd6UeYwAA5A701j27+lCgkHPSmgH2/NyuQOT+lcP42VReWj8BQZVx6dO/wCFdumPPXnnNcf44AD25xkmcrx3yp/wrWG5E9il4ZEY1eyPzAhnIwf9kn/P0rtJjm4c+9cJ4dOzVrJ8kDzNpwRjkY/rXfTLiUnHOKKkRU9jyr4wwZXR58nOZUJ/75I/kazfhHMU8T3sJBw9oX9gQ6gf+hGul+Laq3hmzbIBW8AwfQo1cb8MpWi8bQKHYebDKhA7/Lu/9lH5VcdadiXpM9yBPUH3qZDuUgnrUIyMdu/WnJwfUDtWKNWTnpXg2v8AjTxEmt3sK3DWIhmZVgRR8gDcckHP16GvdgVxgjrWffaHpd/MZbqwtp3JGWkjBOR0q4tJ6ohps8Qg+I3ia2kB/tASqpyVeMYP9a1rT4t6xG48+ytZkyD8hKHryO9eop4X0NFCrpFmNv8A0yHP1qvN4M8OXpCz6RbDAwGQbPyxV80HuieWXcxdI+KOjagRDeb7GU45k5Tv/F/jjrXbQSxzwrLE6vG3KspyDXl3iP4TPEklzoU7ybQSbaYjJHs3r+Ark/DPirVPCeovC4kMG8Ce0kOMe49DQ4RlrEOdrc+g/wCXrTGbBGM+9QaZqFtqlhDe2cwkglGVI7e34VZMYOWJ2nPArI0JG6Dp9KbnI6U0EngjmpACRjHFK4HkXxDvnu/FBtVyYrSNUHOQWYBmPt1A/wCA12/gPSjp/hiF3AD3TG4J9QeFH02gH8TXAeK7Oe08QXxmgZBLK8kbkfKyljjmu3+HV/qN7pc0F7GvlW3lxwS4xkBcbfTgAfnXQ37ljJL3rnbQ5281nal4W0nWrxLm9tsyqu3ejFSw98da01BxntUqtk4/Ksk7bFtJjdN0610y2FtZQrDCDnC9z6k9zV55FhjaSR1VEBZmY4AA6kmmJ064rh/HniEIv9jWzHcwDXLA/wAPUJ+PU+2PWrSuydjg/EusNrGsXV8oKiRtsYbsg4XP4DP1Jrt/h7YtZ+HHuZF2yXUpcE8EoPlGfx3EexridA0KXxFrK2se4W8f7yeTrtHTGfU9Pz9K9caMQKIEjCRRgKijoFA4AqqsrLlFBa3CQjiqsrZB61LI+cgdPWqrMS2PauZs2I8DuOgznFVZmjGQoI35YD19f51ZJxn0qtMMKzbdzDG0j07ikxoI3L8HNPPBqHcN5wfl6rUu/K5HOaQEb7iM5/DFR+oC1MW6jFMwufrQBWZCW9B/WnKpCjk4qZsFffNMJ285oHcYxYY4zz0pjEsuMcZ4p7NnjtTWbK4xx1zQK5G/IBznjmnIflBpm04JxgA0RuCDzxmmDJScDPamHD9e1Kcn3B9KaSOCTzQAhGehxSYxmnjGMionJzwaTGNfG78OtMwQ3t1+lLgk5J/Ol2beM9aQxwHy9KTGOQKVH4559KGOaYiMj054pRwvAwfejoOlC43c/UmgTFVX5Ygceppj7WBXv64qR2yRjim7AVP680AiLeFAVh9DXmfxM08xalZ6kowk8fksR2ZeRz7g/pXp2wMeeRXPeONPW68JXpYpmAecjMcYKnn8SCR+NVB2kKaujnfhhqA/07TXcZ+WeNT+TH9F/OvRsE9a+c7e+urS4E9tPJDIvRo2wRXuHhTVLzU/D1nc36YndTuJGC+GIBx9MVpVhb3iKcr6HLfFDWwI4NFgOSxE1wQe38K/1/KuW8GeG/7e1fdMv+g22GmJ6N6L+P8AKszXL9tU1m9vic+bKSpP90cD9AK9W8F2I03wrbDaPNuF85zjH3uR+mKqT5IaCS55HTwKkUaxRqFjQBQo4AA7U85B3Y47+lMi+U9DgnnmpWcbCFOTjj2rnNgLr0xxjpULFpDtXjPXBpOelPTj2pDFMeQBx9fWm9wCCP61MCcZ4pDuPPGKBDcZxxSYxyQfapMcc9OtMJ3DGelAxpYluMZ9RTgMDihQAc4+tPPqOe9AFe4lS2t5Z5R+7jQu2PQDP8q+dxE91chIV3SSybVQepOAB+de0fEC+Nl4SuDGxDzukWfY8n9Aa858CWCX3i2zWRN0cAacjGeVHH6kVvT0i2Yz1aR7VbpHa28UEf3Y0CDtwBgU4sTzjFJjJ56kdutNZtrc1he5tYcCM9c+tNmjEibTwc5B9KdlchR19KU/LmlcBkDvt2SjBBwGqbHOPT2qAH5geoz0xTwwP50+YLDmQFSTwe1Abj0NI7YwM9aZk/j3xRcLD+cE8HvTAfXk+pqRFHcAU0gA8DHfGaAEB9aU9QAOfShep46UgYtznvxxSY0PbcmO/vSbcnI/GnbSQCcdaPMwcDP40gGrkCnAgjIHWmkE7utIAe4A+tMRIOuD+dVNTbbptzjtE33T7VaUMSTg8HFU9ZLR6VPgnJwv5kCrjuTLY5S6V0tJXJG3aQPywK65V8mC2iwcLGFwecYAFcpqqh7PylO1pGCqQcAcj8xXXSrlVB6gdO1aS2IjuViVyfXOQa0YjmBck9Mmsxj64B/nVy1ysXzdR/KsTUduUE53D6ilJ5z3NOk5cYzwcU0cHrnvxSKGgE45b6etSAkfLycc5NM+Ve44OcYqTjGSe3Q96QDvpz+NKPl5/pSKDxnFLnHXGKQDtg2ZPp+dIQFzntnIxQG+T+goJGM8UwAEgjgjPU4p33jk4/DtTQMA5OAaXBA/lzQAfzpQc8jijHbIHtTSQAST09TQANHuIyeBRTl+6eevNFAHQMOKau4ZweO+aTfle9KD7VRIcnmmgkc5qU9P6Uwr+ZoELnI471HgqSKcDigHPWgAxSd6XoKawLLwcUAKR2poIU/NSKeozS9Tk9qAJhtYgrjNN4U9Me9NB/OjnPGT70XAmJx16UoOTUR5PWpEBAw3FMQ5hkcE5pCGPfmlJzxSMCykDrTQEw4QZqGQhcfpT5XI2jcOetNbBHzfhQxIgwd2eKXf15pTTCpqSgXlvephknpUKYWQDNWBx2FMABIc7sU7IphOfcUN8pBHSgB/brSHjnnBoBPzfKR9abJjZigBHkwuWJwKjEjEgrxjpxxTXPyjkD60KwGe4oAsZ3tnHWpgfkyKhTHWp0IKlapEsh6SqcdDXI+OVZoIiAcJcjJzzyD/AI11x4b1Oa5fx6h/swsNo2zIRn/PvVx3JlsYGizpHfWm4tu86MgHHdgM57V6JMpE7eteaaciLqVk25j+9j+gO4V6dMp87ODnH1qqmqFBnnvxaZU8MWqbwJHvFIGecBGyf1FcT8M0Mvje2YDiKOVnI9NuP5kVo/FHWEvtfjsYyGhsUKsQR/rWwW/IBR9Qa1fhBpRT+0NYkQANi2ib16M3bp939apK0NSXrM9PJAGe/vSZ59RR3x6U9QCvTv2rE1Eyfcil6il+hoGAf/rUANBKttIJyakPsKUJk5HalUEcZzxTQh8fyht3T1rzD4s+GbVrJdftkWOeNlS5Cr99TwrH3BwPx9q9LuLmC0tnnuJkiijGWdzgL9awdau9N8ReDdYWzu4bmMWztmNt2CASOnuK0jo7mcux558J9Ze21mXSJG/c3SF4wR9115/UA/lXsT8P1r508JTNB4r0iUNtIu41YgfwswU/oTX0Y0T54HT35p1VrccHpYagz2x7VNwBikWNl5OOPSnbuSAOaysWRSW8M4xNEkg/2lBxUsMKRRhEVVTqAowKAOPSpEIz0piHAZOAeKsIgx1qEDkYFTgAChAZ3iLWo9A0h58obh/kgRv4m9T7Dqfy715Csdxqd6ETfNdXL9SeWYn1rT8Y6y2p+JbiMMfJtC1vGp45U4Y/iQfwArqvAehLBanWJwDLNlYAR9xO557n+Q4PNbp8sbmb1ZuaHodvoGmrbwhfNb5ppB/G/wDh6CppWznuatTHb1NU3IrGTuaJWKztjNQkc5qZ8E8n86rsSRyKyZQ1xkd6iI4Izipc8cdaaenvSGVMFPlxkDpjtSK4J2kfnVmRRLGVPUjGarsDGuCcn+dAC7hjGP6Ug5+lN8zJwf1p28bRgGgBMAGh+mR60hcdWB+gpuTtxg/jQBGeM00gnPQ1IeTTSpwGyRk0ARMTgKSeT+tQcZ3ZH4VMwHYlqiRtzZKYGT1pgSo42ge1NyW57UFsjnH5U3KtjP6UgBiQBk5FLnaCSCePSkDAD9aXzFIxt/CgYYjYAU1gCOOMcdKMgZOKazZBA6ntQAmGSNjHtY4+UMeM09QVjXzCN2BnA4zTFaTByOnFKzMVH5UASFRtI55HpS7cZAAGfamKSDn0pA3J6nimJikHnnmkV8cEHH04p4Y5PzA57U1mw3Hbop6UgQjgsARxXCfE7UPsuiQWCnP2uTJP+yuCR+ZWu6UjbkgY+vSvHviRetdeJ/s5yBawquP9pvmP6EVpSV5E1HaJy9hYz6hciC3iZ27gDoK9u8PQXEegWtvexbLiKMxkr3A4H04xXM/DHTI10u71BxmSaXygSOiqByOPUn8q7oDb054p1ZXdiYRsrnztJG0TyRSLtdCVZfQjg19BaTJHdaPY3CqoSS3jcBegyo4ryDxrpo03xVcbQPKuv368f3vvD8wfzrtPhzqj3Hh9rAHdJaTFQCOAjcjn67qup70UxQ0djukQyNyNq9j61DKzRnGRjmnu7BWw3QYFRsSVwVwAOtc5sOT5l3Y49aeuCOOPao1VlXC5K9eBTlPGR1pAYet+M9J0K4NtcySST4yUiXO32PpVKy+Img3k4iM0lvk8NMuB+Y6VyXivwbrMviC4urSFrmG5YyKVPKZ7HJrldQ0HVNJVXvrKWJG6MRlfzHFdEacGjGU5Jn0KrKybgQynoQaQDPIzx1rx3wR4wl0m8jsL2UtYSHaCxH7knuD6dMivYkwQCMEHoRzmsZwcXY1jLmQYIzzS4JHP3aUjHWkPHTFSUcH8UWxotkgPH2nPX/ZIrA+GAH/CS3XXItCB/wB9rXTfE21M/hhJgM/Z7hWJPoQR/MiuO+H91HZ+KohJwk8bRbs9CcEfqAPxraP8MxfxnsYyCMik6Zx1rI1DxPo+mTGG6vUSQHaVGTtPvitOGeK6tY7iB1eKRQyMvQg1i0zW4q/KR1z7U8tgdBSFQDRxnOcY/CpGGQBxjNA59aZht2MEikkkWI88Z/MUWHceW3yFVzjtxTyCHOe/vVSK4y/TAPp1qdD5h+aQnB47GnYRNgBCT27ULmQjcCRggn0FMVmTjaGB4P0qUgqSAcZ7YqkgIVDKxIYgd6fliRnimgMBhmJA/Wnk4xtGfU0gAMehNIM9QMfWkBGM5HFISD0/HjpQBJ26j6YoO4nIqMSbh9Oo9KepycjpQA9BwR+lZ2uyFNOQEcvMg6e+f6GtNDjknn2rH8RMBbW6nG3zs49sHirhuTLYwLhtt1aKQzF7mIADGQdw5rsLkHDZzjHb61xVuZH8RaWrRME85mwGBztXIP6ZrtrptsbZGQT9eauehFPUoAE4A+mavwjEYXJyD1NUov3kgCZrQjXKncuCRXOjYapLdeacAMknFJ0HQE4p3OevXrii4xCAR0+lJuUde3rStwPmHXn2pm1iSeuKAHAjdn2HvmnngZxxUCuRtGBtbvTmzkhfxycUgJQMkkevanYA/wDrUzb2BP49qdu/XtTAfy2f1pQO1M9OPwxQMnPSkIXcce2KMEjPp0pvXAyM1ID0HFMY0djjIop6jB49elFCYmbAAAyTz1FLuBwTQwzzj6UwZHrTuSWAaRumcUIwZemD0pcg5FFwK5O1jjv2qQH5eaUoMk9/SmYIbkUIBwwwIxQVz1zTmUBcrSghhj0pgRCMY60HCKaeVI6c0hU45FMQ1CrJkcGnAZ700LinqATzSGB9KegGMYpCozmjdg5FMB/ODxkVJCrc8ce9NDZHfNSqx8ptqnNNCZWQMzu7+vHFDOcYxmpFACdMCmYyMg1I7CYyKQj0px+7zRQAihT8235qk6HAFNHHTkUEtnJP4CmAuT0NKy9RSZCjJ60uRx60AKBxg0jDtijcPWlGGFAFVl3Y5p8YAbgDHpTnXaaRBnPTNAEi4A+XpUit8rc81GgwR0zjnFP6elUiRF+/x/8Arrm/HcKnSpXKhiuxlOM7eQOK6BpAJBgHPtWN41b/AIkF2VH/ACy9Pyq4iex5zYTv/almxZvKWaPcu7IOGH/1qz/F/i7XdJ+JGpi1v5USNlVISdyAFF7H8/r+Natr81mjMvzBA2VPLHI4xWf8YtL+yeL7a/TaI7u3Ge2XTg/ptrZamMmc/pun3viTU47WyQvNO5MjschM/edvbqf/AK9e/wCi6PDomk22m2xJigXG49WPUn8Tk15v8G5Yt2rwFVDgRyB+5HzDH04H5160mAoAOazqPWxpTWlyMrt+hpAvTt3xUxHHfNRsMDjis7mgY9s07qeBmo0OTyOtOV8H2JouS0S5AHX8Kjubm3sraa6uJUihiXc7ucBRSsec9a8g+I/iw6jdNpNnLm0gbExH/LSQe/oP559quKuyZOyMTxj4un8VajhQ0WnQMRBCTz6b29z+n55t+ANN1K41G7voVZLCO2lSYnIWXKHCD15IPtj35h8EeDpfE1+09yHj06BvnYceYf7oP4jJr2i4t4tO0K6S0iSKOK2k2JGNoGFPStZT5VyozjFt3Z88aU4h1OykUgbJ4zn6MDmvpzHQrkqe+a+YbKMm7tVB/wCWiYIGTnI6V9OIxBI7dsClUexUBWcZ565pocZA2e5NKxzk4z7VGr4yNhH41kWicFNwOOfSpRhsH3xVbaJF44J45qWNTGvXPfmgGWEGBzUy/pUCtuHK1LHkCgR4t4q0+TTfFN7HKSVlmaZGYYDKxLAj6ZI+oNd74R8Tac+gW9rd3kUNxbJ5ZEjBQVH3SPwwPw962fEHh618Q2IgnPlyocxzAZKH+o9q83vPh/r9uzCJYblQeGjcKSPxra6krMjVPQ63WvG+l2LtHbsbyXB4jPyf99dPyrN0HxtHreqf2fLbLFMwLKUY4IHOMHoce9ec65p97pd2treIIpTEHKgg4BJ9D7VvfDPS5LnX7i7ZQY7WDAYHoz8Dj6B6HBctwU3ex6gVyPftVedNuNoyB6VYYbSVPfpUbLxyK5mbEAGQAaQ9etSkc1Ew7jmpGMPWop4PMAdTgj0p5bvn2pmSrdefSgCu2W+XCHjGe9NLbfb2qw65AYHDZqNQkinu2MGiwEWSyg9acSQPUVPI6rHtwAAMZPOKrAl1DHjPQY6U2rAhAM9x170yXthtoH65qTGMZHFROCwxkHP6UhkWHUfLngZpV3sRuORQzEu68cYxTfm7GlcQrIw+YDIFM5IOMYxmpF3HALH3poj3cE0DGovzkEYApZE2gNz0xmpVjCnOfqKa0YGdvc5J5piuRDnuPzoKbcnOR9KFRV+nvUhGenBoGR7sHrn8elKOQKeYxtOR0700EKML+Oe1ADDnccDinAkDv1pSeMULQAoX1ppTjpzmn5wM0mQc0ARAr3xXinjhf+K31NR3KEZ9PLWvbGQE15D8R7X7L4sEoBxcW6OW9SMr/ICtKPxGdRaHaeAEVPBdltAy7SM3HU72H9BXTDH/ANauO+G9yH8NPCcFoLhgcdgcEf1rslQHneQCAcVE17zKjsecfFK3XzNJuAuCRJGSO+NpH9ab8K3UarqcWOsCv+TY/wDZqtfEto5DpkCMCyGRz7D5Rz+v5VB8K4WbUNTuRnakSR5+pJ/9lrZfAQ/iPRmX5+cgZzUq4GOOelMmHCnvTojkD1FYM1QpHBOaQfSlLDOMUjDk9f5UgEOT781BdWkV7bSWtzEJIJAVZW7/AOc1YxkEGjv05oBnz/4g0htD12705slYm+RsdVIyP0Ir2HwTqLaj4Ts5ZCTLEDE7HvtOAfyxXCfEyDb4pilC4Etqhz6kFh/hXSfC47vDt2p6LdHBP+6tbz1hcygrSsdx1P8AOmkHHXFByFzzgdcU1jlef51galbUbGLVNMuLGbBSdChPp6H8DXhuraXf+HdQ+z3KMjKd0Ug5V8HqD+Ve9Iy9M15p8Vw32rSs/dMcmOvXK/8A1q1pPWxFRaXON0uyutXvxDbxvcStnIyT+JJ6D617jpNgNM0a0sxj91GFPOee9effCiZFv9TiJ+dokYe4B5/pXpzDIBPSlWk72CktLiDrgGmMGyeKUP8AMCDThgqSBznnNZI0sRXLmOLAySe54pkMYKb2XcW+Y5qbzN2QY+RwDkYoAc8cj6UwEwOqhfpQoOeVIx1qVQMZFKxw3OcelK4wUAcEj2ANP3hMjPAqEuCw4yKDs27iwGO5ppkj9ykAA/hUUmdoGM9vlpyjY+ePqO9KHySCCuO9AyHzFKcg46H0p0TEHbnPPakYKTx8wPt0pEJLlgSG9O4oAfI2yfb689etTLgqPX1qAB93OwL+NSLuxnBxnrSAlU8Bq5/WnmnureEhYzHK8gXJO9Au3kfVs10C5A5rE1YB9XixwUgYEkY4LDnP4GtIbky2MTTpo7jxla2w3GS3id24+6SAAf1xXaSfMNo+vFcjoekJbeM5LqNwYvsPTcSc7wOf0712ChdxbHOTV1LX0JgRxZWMkZAPTPFLvyvue9PPzfKVyv8AnNBRCTtwCaxZqIDuIyTxz1pSAQBjimgFeeBj0peTwOvapGL3J4x6U48EA8egzTRznI6c80oPPPTHFAEZTefmzz71Lxu2kDOKYN3OTx0pxODzjP8AKgGLkYAPr0ApB1wD+dJycc07B9DQApz0OaXZ3z7Ug4ydo9s0bixwMUhC4+Ymne2KFXJyPy9KNuTz69hTGLuHTp2opu0dKKQHQcUhA7UA0hbI6c1RJEAQx96kXIFNKEnOcGnAVIAWwM0de+KGX8KbtIPFMQoB9acoPUULUhGVqgGhh60u7BxUTqR8wpu4g4xntQA58D2pQdvcUEhhjHNNdQOR+lAD+uee1OHFMHbFLTAkTJNOnzsULkDOadEQcDPNLcFM47gU7aC6kHmArjHNIGOfak3D0ozUlBk55p4IB61Hk7s4NJnnpTEWD0phIYYB5zTVJHOOtPDZoAQ5LcgYoXBbvQeBxgmhRke9ADiAT0p6qBUZ3AdKdn14oASXnGM9aYmByRyeozUp6VGVPXFAEkSfJTyo7daE6ZGRntTuTyBmrQisyHNZnitB/YVzhT80B4znpW5tBOcfSszxAg/syfjJMTDHrxTjuJ7HlahlgGxskcqAcZOR1/z2rW+M1v52h6Le4GVlZOv95Qf5rWYMKm5hkCt34m7bjwFpEz7w7TQkAjp+6Y81tqjF7GB8I3MfiDUIAOGtd3X0dR0/GvZAPevG/hNGh8TX7kncloFC+xZSSfyFeyLWVT4jSGwe9NI4570/oeRSAj09qgsjAwevFKF4pzDjIxWZrms22haTPqFyflT5UTPLueij/PQGhCOe8f8AioaHpxsLV/8AT7pGAIP+qQ8FvY9h+J7V5T4d0G58R6zFp9t8qH55pcZ2Rjqfrzge5FQX97d65rMtzKGlubqb5VXnrwqge3AA9q9u8GeGIPDOkLGyA3s+HuHB6nso9hk1uvcRl8TNvTdNtdJ0+Kys4/KgiXCr/U+pJ5pdRy2l3yoPnNtIBz32nH61ayRjjihkDBlIyGGCPWsiz5jtZPKuoJFG7Y4Yfga+nRxgZyBXzPqVk+m6ndWLKVeCRlGeMjPB/LFfRWiajFrWiWd/CwIljBbBzhscj862qrRMzp9S+Dg8mpDtI5FRDaG657VJwQMD8ayNRdoKAjtxT1JxhvzxUaudwGAKnB454oEOXjpUsYJPHT3qHJAyqlucVYUEenTtQiSQRdSCKZKBEjNJgKoyT6CpBkZx0rlvHGqfZdHNmjES3mUPtGMbz+OQPxPpVWQzyTXJX1PVrzUmI/fSMyBuCFzhQfwAr03wJozaV4ZhkdMT3X79jjqD939MH6k1wWmab/buv2+njIiZt8rc8Rjk/mOB7kV7PLIw7ZB/SqlLSxKWtylLlySR09ulV2UjqePep5bhgcADFR7i/Vee1Y2LTIHXafao26/WpZI0LElnGPQ8VA/Hc0WKuQyZVuRx0po6ZIzg1OwUrzioZFABCYPbBpWC4IQXABB9s1DKrxONvT2HaiGPa5Zgc1Z3qRnIyB0PahAVwxK/dV19QaaHU8HAJ7GiOYh8bQFPt3pJOBgcihsBGbAIBB/WoScjg+54pwjGCWwCacOM55qSrFYr8zZILEA4pQuR05p8oUODjkIATTVG7+LA9qQC7falCgGgZx60nfBHPtTEP60wjjrTgv8AkUpHNMCMDnn86a2cVMAMd6YwyKBEe84OfzqFWBJA7HFTEY7VC+0PkDGTSGSjB60/aF69ajj5qYnjBPNFhkZNRspHOac5zSHJGBQAu0Hr6Vx/xA8O3GradDdWSeZPZ7jsB5dDjIHuMA/nXYgClJABPtTTs7oTV1Y8T0PxHL4daV4oTIJgN8bHAJGenp3rtNX8df2Xo9hcrYOLi8QyLFKNoUAjOfrmuqk0uxmnEz2cBk6higzVTXvDeneIraKG9jO6HPlOhwV9Rx+HHtV88W9URyyS0Z4tq/iC51m8e4ugm5gFwvQAdAK9T+HkNgPDAFpdLLM7l7jBwQ3QDH0ArkvGXgS20LShqVhNKyLIElSQg4B6Efjj86zfh/fT2Pi+0ijYiO6zFIv97g4/HOOa1aUo6GaupantHlgEhvmA7n0pqho/cVMDuyCMA07GPQ1gbpkCvuf19qk7mmFOwOG7UB+zEZ/nUDH9T60rdMmkB9v0rnPGPiEaBo7GM4u58pBjse7fhTSu7A3ZXOB+Jl7DP4mRIHDmGARvj+Fsk4/UVr/C3Vlzd6S0f7xv9IEnqBhSP5fnXm8rySyl5GLyMSSxOcknrXrXw20q3ttETUvLLXNyWUs38Kg4AHtxmumaUYWMINudzukGFOBnmq0pkQb/AC+M9KsAmht3+RXKdBAqhgCOnUjpXF/E6y8/QorlVyYJgS3+yeK7gZxwAM1geLoRL4V1KKUDAi3A9MEEEc1UHaVyZK6PN/h9cm08YW6KcLcRvEeOoxuH6qK9jlBYBSTu6D0rxHworN4t0kLwRODxwcDJPX2r3HYZBnGCOlVW3uKlsQcB9g5bvipeWG3gd+O9IfkkwOGxgnFKvHPU5rI0FChOR+tPHX2pN2RnH1FAbk9iKBCg+vIzRgNySMenrSAg9zTdyl6GMDkED29KRgdrDqCOhFPGeOMf0peMEEDBoEyLafJD8HB/rTclgQBgjj6U5EQ5ABx7cUhjGSOeD0oAYvyAqV7en+FSHb1DZycc1FLJHbxs8sipGoyxY4A/GsKXxdpiLhVmkIPVFAH61cYOWyMqlanT+N2OjDZO35T24p/07GuW/wCEyslbIgmJxyTgc+361PH4yscjfBKpz7H8afsp9jH67h/5kdMpGMfpisTUjuvZdpwwRR0+talle296heCRD9D09qy7oI17cvj5shTk9scUJNG/MpK6IdFQJrlwVUELAoJz0ySfX6V0S8evtXP+HlVL/UZQDzsUYPHAOc/pW+HCrkqfoBRIcRATsAGB7VEbiTJBQfhT2IHUgHGaTAbl157HvWbZohQ2Rg8kdeOtLjABHPr9KVNw4IxmngEH0H0qRjQfSlB4yeopv8OCOn4UhccfKcfzoAkAyeAfpUZVvNGCdmPu4qQcpySPbFByPoKYAEBP3iB605jh+F9+vSmjII6cdqYXPXBJ70gHZYcjjPegjA3Hn6UxDgZPTr9Kk3bgAQBQAqyEAY79DTwc8nOfSo0UMSoGSOacTxx360APA29uKKaRlRzniihAbo5pcYpAuT9KdjsKZIhOPWlHUg0hppznNAh7dKaAPwpN/PXFA2k8GmCHgGnZwaiLHpk0vmDAJ60ADPximbqfkMM0wqCpxQBGHz04p6Me/wClM2FR0poYq3p9aALCnceOPerAjGBuwfpVRXCkZGKtbxjA5HtVIGPhjAfcDn2PaomZdzNnKk5zRPJ5UA+8SxxnPSmAccVTEhCykcDFNzkYxQeTQFP4VBQ+kO3FGAAKaSAaBDwxxijPpRkHt060Z9OKYADzzxTlyGzTVGWGakKsPSgQuQT15FG3B4FMGOo608sw+tFhi7c4LdKUZyfShSSPmpxXpj8aaQiQZ49Kdz2NRhuakU9TiqEN5zVPV1zacd0YY/CrpqvqH/HqOMdaaBnkXJhTDcdBz14ra+Icxf4eaCX3MzyxEnrk+U2TzWdbxH94uMlSQSfxBp/xEZz4L8OHcNgcqR7hMA/hg8e9brUxYfB+MG41qZiCy+VGOOR94nJ/KvVCPSvOfhBCF0bU7jH+suggbJ5woJH/AI9+tejAVjN+8ax2GjIA+tPX3pdvGaOlTYYoB6Y4rw74ieIxrevPa20hNlZ/JHydrv8AxMMfl+Feo+NNYOjeF7ueN9s8q+TCeh3NxkfQZP4V43oGiS69rVtpqhlVjulcZ+VB1PtxwPcitKa6kTfRHafDLwptjOv3yfO422insOjP+PQfj6ivTvypsNvHbxJDBGqQooVEUYCgDAAHpgU8Dg549Khu7uVHRDlGV96ftKj1pgO3p2qXr3oA84+IfgqbV2Osaaga8RMSwqOZQO49wPzrg9B8Sa34ZkktoGKIzHdDOh+Vsc8etfQJHtVW50vT71g1zZW8rjozRgn860U9LMhx1ujyKTxZ4l1KeFrK7l80EAQwL3+g6/j617BpRun0q0fUIxHeGJTKoPRsDNOgsbS1Xbb28UQ9EQCua8a+K20GKK0tcfbJl3Fj/wAs06Zx3PX24pwg6kuWKFKSguaR1+AewNPAJrybSviLqsdyq3EMVxbr97IIfH1z1r1XTr2DUbCG8tnDRSDI9R7H0NXWw86XxE060amxZVcd8VLGBHliflAJNRl1iRpHYIijLMxwAPrUdnqljdzGK3uoJ3HVUkDH8hWSTLMuy8b6HfeaUuHiZATslTBb6dvw61534h1aXVb+W8dWQN8kMf8AcQfTvzmug1T4cXK3jXGlzReUxJEUmVK+wPeremeE4dPuoLrXLuDcnMcJYBd3qc9efSrsnsL1H+BNAOlaU19cxlb275IYcpH2H49T+HpXTOcjvVjhlDKQVIyCDwaikUA1m9ykUZQSOgrM1bVoNC0ybULzd5MQGQo5JJwAPxraZfTJrjviXA0/gW+CKcxmOTj0DqD+hNVBJySYpOyuc1p/xVtbrU0gvbP7LA7bRMJNwH1GBx713kjbcnqT2r5omG1OePTivVPEHjHyfBFg8U3+nahAAWX+AYw57/QfX2rrrYb3oqC3MYVrJuRF4m8dXMcrjSp4/IhbYz7c+YfUewNdH4R1a51vQ47u8jVZtxUlQQG9DXjukme8v4re3BeaUhVXtk17xZWkem6bFapwkS/MQep7n88mjGU6dKCglqRhpzqScnsWM4BOT07VGZQucDOea4jxL8RoNOums9OiS4lQ4kkY/ID6D1P+FUbD4kOWjN7ZqIm+80bHg98DB/nXOsJWceZI3eIpxdmz0YoHVmUgng49DUDDa5JGDRZ3UNzDFc28gkhcBgR3BqZ0B3bBnPIzXK10NiLnBzj8O9IeAT2HNO2OrkEgpjI55rF8T6gdN8P3cqPiVgEj9QWIGR7gEmhK7sE5qEXJ9CvqvizS9PnNuZDNKGxIsYzt+p6VoabqVrqdoLizcuuSpzwVPoRXjRJ3E9885ra8Na62iah5hG63l+WVP/Zh7iumVFW03PIp5jJ1Pf8AhPWOuM05QMY7elJG0bxo8ZDI4DK2c5FOx/nFcx64Him8k5pwzQQaBiDg0jKT0xTxnpkUmePamAxkzVWWPH3ST9atM1NIG2kBBEwdcjpUvaoB+6Zgo4J/Kpcn0pAgZRikIwM0pJppBFAxRjBzUcsnp0P6UZJXrUb/ACvgqp9KQFYWMsms/apf9UkASIHs5Yljj6Bf1rRVMH+dEWWUckipdi49DTEcn8Rn2+C505y80SjA/wBrP9DXm/guHzvG2lKoxtkaQ98AKTXcfE+78uw0+yUDMkrSk/7oxj/x6ue+G+ntdeJLi8HS1t+G9GY4H6Bq3i7QMpayPWypzxg1GwIOQSAO1OyeGPXvig7SThufesTQQYYe9MmQFc4OfanqMHkClOKGMqXF1HaW0tzMwWKJC7HPQAZrxLxBqsuv6y93tfEjCOCLGSF7AY7/ANa6/wCImtqsy6Pbv6SXHP4qv9fyqD4f6ALq4OtXC/u4WK26kdW4y34ZI+v0rSC5VzMiT5nZHDX2mzaZqEtpcDEsZAYehIBxXsvgYKng/T8dCrH/AMeNed/EC3Nt4unbjFxEko6+m0/qtd18PLxbnwlFEpy9tI8bj6ncD+tVPWJMNJWOu3AUjs5HHFN7dMjrnNcF4+11Gtk060uCJ0kDyPGxGzAPGR3z/KslG5o3Y63VdbstEtftN9LtUnagTksa43xP400rVNCmsrKSYSTkBvMjxwDn+laPh9G8UeEwmrwmZhI0ayHgkDowPqOmfasr/hWERuV3ajIIM8qEG7HPfp6dqIuKeopXa0M34f6VJea5LfBAYLWPAJ6b24A/LJr1dS8cfIHAwDWfpmmW2j2a2dlGFhByT1LHuT71dlbLqC+BjpSm+bUqMbaDQBuzj9aeOcU1Vw3BBJ/Oqiarp8l2LaG+gefO0x+YAc+g9alRb2LbSL21T6kj9aaM9CKQsR1HWlOT8xwR24pCYySVYoXlkYBEUsx6AYFeaX3xKvDdk2NrCkCHgSZJcep9K7nxJn/hGNUKkri0kB/75Irw1U5wD14GK78HRhNNyRzV6jjZI99g1GGbS4tQlIghkhWUl/4QRn/P0qhb+K9GurxbSK8UyMcICOGY9s+tcz4w1uCPRLPSYWRjLBGz99qgDA59cZ/D3rC8L29pLqlu00wSOFvNdmbaEA7k/WlDCpwc5CniGpKKPWJHMY37scY+bvSk5G4ADdzx0rDk8W6DIxi/tGMsDwUBIbP0FbcLpNArq4IwDxXHKEo7o6VJPY5jxy04sLYgt5Qc+YR0z2B/X9K4QyHoDx+teuXdsl9ZzQOgkVxtKZ68fzryIRELg5z6V0UJXjY8TMqXLUU31J4RLKDsjdwPQE4/zxVw2V1FGJZreWNW7upHt3rtfBwjXQIgMb1dwT0Oc5/kRUviy6ii0k25I3ysNvHTHJ/wp+1fPy2MpYGKoe2culznPDN29rqyRgkpMShT6966PcDPOzAs4mcZ6ZHQfyrl/DaGfX7X5fukvnPoK6YOkYdnOAXJ/U063xHTlbl7J37knhlXCaiJDuzclTz6KPyrcXGQvYVk+GgDpkkgbf5k7sH9egz+lacpKIcfmewrnloz1Yjv3e/kAEdPwpzkAhWPNNiRWXIOfxpSnzZxWRqgLc5YZ70849ccfjTcgJ05pEwTz9TxSAkPHPUdTR/EMDkEVCzncSp6j86kyMZGeaYDiDnJ6n2pu0Z3McAU7nvSDcMbaLgB65ByKjJIYlBuHvTyckEcfTpSdztYYzSAPvKMD88Uu3A4FLzt5xml9/ftSAQAbs7Rkc5p+7I9zTccdaVB1BHNA0KRwPSijvgZP9KKdx2OhIwfekJOOKdtpp/SnYyAAmlwMc0gbnBoJy2BTANgxUZU5wBxU2OKCM5oAgJxgE807aCMU8x4HFIEp2C41QF4PSmTTRQDc7gKTgZqVom2/exUDWSXDL5rZVTkAd6aAmKgjNKkSMDu5NPKjNIVUDk0CGi3UHO7jtSxKUODtIoWSNVySR9RU4kQgDaM1SSApSyrLdJEpyF6/WpgM1K8Q3bwoB9R1pjfKenXvQ0IQxrjIBzUYyOoIx3qcGiTB96ViivlieaMEmnFecZqURkDPFKwDBG3qBTgmWFODLQx560xXHBB1FNOGGDxzS706Z5pr7WG7JBH60wEfg7QaVVA5JP400EE88mpKQD1AB6c080xT2p4PFMBu3mnQ7lVg3c8fSkY8dcUqjC80XAeBzUV9k2nfFPzxTbkE2mR0z0qkI80htlMkp6bZfywx4/T9Ko/ElpB4I0JlBWNLyVGBxyeSD+W6tUYF3dqG+VZW29u5p/jDS5NZ+Gc/kDMtpN9pCA5yFJ3fjtYn8K2WhiyL4PTI3h++tlZd0d15hXPIDKoH4fKfyr0cAmvnr4f+KR4a1kSzHNncLsmVeSB2YfT+pr3G11/SryBZotRtirDI3SAH8jWdSLTuXGSaNQjn0FKApHWore6iuYTJbzRyoONyMCAfwqQkHrUlnMePNFvNZ8PiPTlSSeGUShHOMgAjj35qn4E8LXemQXF3qcaw3shCImclY+ueOASe3sK7QKw6cmjLdxTvpYVtbj0QqOaRsfShNzHORxSsCeDQBCCenp3qwnQCm+UNwI4xUgGPpQAmKTHNP60beaAEwM9q8V8ezNceMr7nIjCRp7AKCf1Jr2rGa8T8apt8Z6mrLj94vcc5UEV35er1H6HJi37iFbRja+ErPWFPFxO0bDPTGcf+gmuv+GWpys93pztmMr50eT0OcED26VnXDqvwh08bQSbpl+h3uf5VS8Av5fi+yUYAYSL/wCOE/0rrn+8pTUujf4HNBclSLR3XxDE/wDwjUYiLBDcKJAO4w2M+2cV5xaebbzpcRSMkyHKsONv5V7bqGnRapp89jMcRzLtzjJU9iPcHBryG70+4sNSksrhSJY2weOGXsR7HiubCtOLidVXR3PZbDUYbvRYdRcqkbwiR8HIU4+YfgcivNNcvG1q5kmk4GfkB5CqOg/z71PHqU6eHzpmcwmTeD7dcfTPP41l6dazahq0NqhI8x8MfRepP5c1tQoqleTOatVdS0Ud74TimTw1brMS3LFB6Lnj+tap54rz7xH4unQHT9JkMNtEPL80D5pMcdew4x71yK+I9VjY/wDEzug3qZDmuf6pKo3K9rm/t1BJbntTEDOKydTtItRsLm0nGY54mibHowI/rXNaD49tHs5Y9YuVikiGVcKTvH0A61geIfiFevORpXlx2qk5d1yzj19hWX1Sq5WS2LeIgldnk1zDJBJJBKP3kbFGGf4gcGoXld1UM7sEG1Ax6Drx+JNXdTuWv9Qubt0CPOxdlXoGPX9az2HHpXqp6HK1c9F+FuleZLPrMsYKR5ihOf4j1I+g4/E12PjTWW0jwtdTRErPKBBEfQt1P4AE/hXAfDPxDJb6mNDuJCYLgkwgn7snp9D/ADxWx8V7kDT9NtcH55HkP/AQB/7Ma8ycZTxSUjqi1Ci+U4PQNJOt6zb2IbYrk7mB6AAk/oK2PGul2uh6nBbWbMYnhD7WIJByR+XFJ8P7u0sNdnu7yURwx2r9e5yvGPzrL8Uaz/buuzXiBhDgJEhIyqj/AOuSfxr0Lzda32UjjtH2d3ueg/DG/e4028snckW7qyZPQNnI/MZ/Gu9Hs1cH8LNNe20i61CU7ftMgWNSP4VB5z7lj+VdyCrSY5xXj4q3tpWPRoJ+zVxGPPHpxXC/EKfcLGz35GGlZfTsP6/lXcN+76k89K8p8S6impa9cSRtvijxEjeoHX8Mk1NGN5XOXMqnJRt3MARSsrsEZlRdzkDIA9T7ciljGH747AV6N4DsoLixvppEV1dhFgjsBz/P9K5TxHow0jWZbeMEQP8APFnspJ4/Agiujm97lPIlSkqKqvqdh4K1E3GmtZO43wHKj/ZP/wBfP511W08ZrzTwldG01qDPCyAxt756frivTM5GccVz1o2kevltb2lGz3WgmBSHk9OKd3o+lYnoDSMUhFPOTTCOaAImX0oXJ7VIRzSFSDxQBGwAyuByKjUHNSlcnNGODQA0gYyaQrkAg5pO/NPUYH0osBGEJX0o8gFssue1TRlQeae+ApZVyMdqfKBCFxjbnHSnFsgAfiacMkHGfxoAxjJ570WEeP8AxC1A3PiKSIEbbWJYwBn7x5P866X4X2X2fw9NdEDddyk7u+F+UA/jk/jXn/i6SVfFmqRSghvtLkZH8OePwxiuj0Dxy+maDBYLYxkQKcOJCM8knjHWtmny2Rmviuz1TgDHemYYHkZFcj4R8Xy+Ir65tpLHyREgdZAcg84wffvXY9QAeCKxejszRO43pVDV9Si0nS7m+mwVhQttz949APxJAq6SxY55rzz4l6oTLbaShPyjzph7/wAI/rTirsHojiIbe613WY4TITdXsvzMecZOSfoBzXuNjp1vptnFZ26lYoVCqCeSPU+5rg/hppaq1xq0yjLfuYAw7cZIP6fhXpTKGIY1U3fQmC6nA/EvRnu9Lg1O3R2ktCfMA/55nqcexH61w/hPxZJ4auLg+X5sM6gMm7HIzg/qa9xkUOpVgCp4IPeuTv8A4d6FeXPmpFJbZ5YRNwT9D0pRqJKzBwd7o5DVfiNqd/H5dmgs4yAGKnczcevaqvhvw5f+IrwTSh0tN26SZx97uQK72w8A6DYOG+ztcSAnDTNu/TGKveJNUj0Dw/PdRIqOAI4VUYG48Dj26/hT5uZ8sEPltrIlkudJ0W1jtHuYLZEXaqM4BxjrSW2s6bfuEt7+CRz0UNhvyNeJ5udU1Ili0tzM45J5JPFTXUE9jOI5UeKVeRnhsdjXYsvjs5anO8U+i0On+IWtahFrjaZFO0VtHEp2xsQXJGTk+1VPBfiWey1pLK7nke1uW2Eu2fLYngj+X41Uvkl1zQhfD57nT1CT56tEc7T+GCK52MFWVg3IO4V0RoxdPkZDqNS5j23xZqbaZoU0kbFZZMRo3QrnqR74z+Ned+GIFu/E9l3AlDYzk4Az/SrviXxB/anhbSDvzI7sZh33KMfrnNYWga0miamLx4zIUVtqDuSCOfzqaFFwoyXV3JrT56ifRHtrvtO5eVx3qIzxTAiORWkAzsDD8a8a1HxJq2tykXFw6Qk8QxZVQPT1P41V07VrrSb5bq0fEqfLycgjp+IrmWAla99Td4pX2PYdazcaBqERXBNvICOn8Jrw7cABjFehWvjuK4tbi31QIgkhfbJGp64PBGec15vu3dMiujC05U01IzrSjOzRYluZZ5C8khdyANzdeOgp06vGojbKkgHB47VHZmJbyBp1LQCRTIo4yuea6HxYYZvEUs0I/cyxxvGVxgrtAGMduP8AOK6r+9ymEkkrnPLgHBJ+gr0v4f6vJd2kto7M32f7pJ52HoP515xOux8ZOCM8113w1jaTxBckAlRat+e5e351hi4p0nfoaUJe+j1LcPUnHvzXlF3F5eoXKZHyzuOOhG416qAxBGOh9a848Qw+R4gu12gb2DgDpyOf1zXmUNGZ5svcizR0TXItJ0x4fKMkxfcoPAxgd6zNQvLi/uGmnOXPAx0A7Ae1UF3ngAn2AqaJWBAYEH3/AM/SuqMUnc8SpWqSgoN6I6zwlZPaWdxqUqNuk+SNMckev0z/ACqW4CDTBvYASRlTu7k0ulamX0820qqTGmIyew9OKmuY1OjbJYzKBHyF4J44Nc1W/NqfQ4Hk9guUveGY9mgWpH8QY/X5jg/lWmxO8qTwc8AVW0eNodEsEbbkQpnB4HFWCDGeoOaxm7ndEVAE56HsKeOR2+maYx3NgK2PXtTgQBg/gc1mWKFy3ammPrzz0peOCpwaXAHJJoAjK4Xg84/CljcgYbGR3FOdCcAEe+aYVKkEGiwD9xOc0E8YwOaQHHWnFSAdwB9O9IBoPbigr8hwBgjk5xTekoLDoOtPyCCM0AImQvU/jUyjcDTAMU9ThuQKQAVKjpnikYYNPB/wNRk7ieR7CgYo7k8DHWikPyjPTHWigVzpaa44qQ9KYdpwDWhnYjBG7FKBzweaR09BTFJQ4xQMljfeGGMFeDTgRnioGJyTkjPUU9eMdjTsIlNA4pMilFAWFwMc00rg9KGJ7UoORQAKeOvNIy7s0E/MRS7u2OaAK5jfPP6UoDd84p5Jz1zT9u7GDkUx3HwOSNrcinMFkBAIyKckCqcqOajkclhswCDzjvVdNSBjIVPOaB65696kOZFKjg1HIm0BWPWiwwLKBx1pokY4GeKegUEDqOlDKIuR8xPeiwx2ABzUUmS2en0ppkIOT1NP3bl4qQQwe5oP50pBApATSGOX6U/NQ5JBPpS7iRTAsA4p4PeqqnB5NTo+VoEOflaQEmPGee1J1FIc44oGSIWZfmAp9xg2JU+uKagwo56/pUlwf9D+7kbutWiWedbo0u78yEghnILdOp6e9dX4XUNpFypO5TM3X0IHFcpNCy6lqG4oy7zhduMcCup8Hur6VKwH8f3e44HB/KtXsZrc5DXfhVZ311Jc6XOLV3O5onHylj1II6euMVhn4W6/GoRJLZu24P8A417AhAY81OGGMVmpu2pXKjlPAvg6XwpY3S3Fys09y4YiPO1AAQAM9T611O3HUVMeV4qNsgjNDdxrQjzg1IGzijb8uRSZx060hkgI25xgjijOTkUigOhyCDS7Qo4NMQozjmnAEimg0/pQAoHrS4xQD2o5ApiDAzmvH/iJbCLxfJJg4ngSTpxnG3/2Wu21fx/pOkalJYtHPPLFw5iAwrenJ5Ncp431rR9bWxlspXkuEyrbkIwp5wffPpXfg4ThUTa0ZyYlxlCyepzj6ncSaNBpbEeRDK0oGepIx+nP510nw6tfN8UpJhv3MTufQdF/9mrkdueuRj1yK39D1mbSba5htsRyT7Q8v8W0Z4B/H9K9GpBuLjHqckJWabPZRqditwsBvIfNY4Cbxkn0qt4h8OprFuJY9q3kQ/dsR94f3T/nivOdJsJNV1S2jgBwW3MT1AHevXlYnrXl1oKhJcr1O2nL2sXdHkc/mxxlZF2yDggjGK3/AAVaLLPfXKj99HGqRH0LZyf0H51reJ/DEupTLd2JVZcYdCcB/f2q54Z0CTRrNzOym4nIZwpyFx0Ge/U1tUxEZUtHqZQotT1PHLmFwg67wOUPUHpj61k3CkMSfxrvPF2kHTtXm2jbBMfNjPueSPz/AKVb8NafomuacbO9tY3u7clg4ypZSeuR1weK6XUUYe06GaTcuQ8qc7nOc9e9a2ieGL/Xt3lpttiDmVhjJ9B6mrfjCxsdO126h0+IJFEVAAYt/CM9ffiu3+HrSS+E13E7UmdUyc8cH+ZNFeq4UeePUVOCnU5WeGalZXOnXsttdwvFNGSGRhjpVF45CNxTj+9j+te4fE7RGvdAF+EVpbRwxYLlih4I+nIP4V5poEsNvrdt9qjWS3kJhlRhwysNv9etTRn7Sm59i6i5J8pycUskN1FPCxWSN9ykcYIrofFl6+qXVpqZkLrcW6jbniNl4ZQPTPP41c8aeDpvDl9vgUtp8zfumPJQ9dpP8vaubnDCNRzt5x7E4/wrSmoTtUiZ1JSi+RkGSRkcV0vhfwhe+IbpSFMNmp/eTsDgjuB6msbTJYoNRtZJQDGsqlwMfdzzjNfRscaIgEQVUxwFGBWGMxEqKSitzTD0VUd30KttaRWNpFaQDbDEgRF9AKckJL/L61YZeMYoQBGBHU14l7u7PUtoc74suZrbwzesv32ATIH3QzAH9Ca8nJA7e3NeweJED6JdxFd28FQCO+ePxzg15l/wj2oloUjh3mVgqjOCCelddD4Twczu6sV5FCK6ngJEM0kW7k7GIz+VSLJJcPuld5HPG5jk4rbHgHW/MxIkKjGQ3mZ/lWvY/D5i6m6vsY/hjXr+Jq3Ugt2c31OvJWUTlHujatGAvJPBHr7V6f4dvJb7RYZ52JkyVJI9DXnOq2H9nanLZyDf5T4VmHUdj+VdP4Lvysk1mzHaRvXJ6Y4pVlzRugy2fscR7OWl9PmdmBTqB0zSEHjHeuI+msBph64JpX3IenFJwwzQOwAU1iQRimliG707Jzg9MdaBWAkY5qMjnPSkZiGxjjsadg9hSGMZcVLEMqQelAxj5hSFtrZXpVIljnwpz2oYHH09Kb97r0pznK1QhpYqeelISGOR0qHOW+tPRCM+9IozdW8O6XrmGv7NJJFxiQEhsDtkdqyk8BaAjZW1b/v4xx+tdVIAFPODUSCldisV7DT7TTITFZ28cMZ6hBjP19ask8d6eF470oHPAqCkR7lz1C89SK8N1e6k1rXLq5HzS3U+yMHsM7VH5Yr2+7idrOdYtplMbBN3Tdg4z7Zrx3wHYPqHia3UxuYrTM0meilen/jxFa09myJ9j1jSdMh07SbSxRQEgjC5AxuPcn3JrQ2bEXBzTSSee9I7suM81NyrDTSHpkc09sOuVGDUQJyBjHpUMaDp/Qd64v4lxl/D0DgthblSR2xtYfnyP1rtyMjpnHb1rwvXfEeqatLNDezERLKT9nC7VUjoPX866sHTlKpzLoZV5JRt3Dw3LHBr9hK77VEqgtjOM8VoeOdTt9Q1/bbbSltH5RlX+Ns5P5dPzrn7d8g/NzTrSwudRvY7S0iMk8h4A/mT2FevKC5vaPoedGTtyI7T4aW7TTam7bjB5aRt3BJJ/oD+dYXinw7/AGFrDLGpNrMS8J64HGV/DNep+H9Hi0HRksEZWcMXkkA++x7/AIdKZ4l0kazoklvhTMn72In+8B/XkV5sMVau30Z2yot0rdTxO5Zk2RFjgDIGarrzyD+Zq9q0LQ3pRoyjBQCDxjj0NUowScn616qOOKtE7PwFosd7qss1wiyQwRbip5DE8AH9T+FU/FXhWbRLx5oY2awdsqw5CZ6Kf6VufDa4Vbu9gP3njVxg9ApI6fjV74lX6R6ba6ejAyzSeYw7hV/xJ/SuJ1JrE8i2N1GPsebqeZOp8sEDPJyRzVdVLcKCT7Vv+HLAatrtpZOSI3YlyOygEn+VWdU05NO128s4FOyF8Lu6kYBHP4iutyjz8nU57tR5mc0q5PHGfU1aMgcoGbO3g/TP+fzrsl8LR6v4Ra8tk238DMTg/fAOcH+n/wBeuGaORJNjqUcHkHsaUKildLoVKLsm+pYmTKoQDjH513nwutMPqF2wIGEiB7c5JH6CuDiGRjHJ6GvW/BX2P/hHoYbcqCvMqk/Nv7k/pz9KwxkrU7dysMvfOmdV6A5B5rhPGVqI9VgnCECSLBbsSD/hXdiMBcE4681y/jSOMWFrNv3MXIGM56HPH5V5lF2kaZjHmw8vIxPDDrFrUW5QVZSvIrc8TGyhhjG1RcHlQq9B71zFjI9vPHcqMFDkcVHe3Et1cM7M7u5+UdST2FdLheXMeFTxXLh3Rtdtl7SJZJLmYA4RY8njplgBXR3ExXTXcH5VUtknmq1t4fk07RgZmAuLmSNpNozhQc7ev4/jVnVLfzNPliXLbl2jHG6ueo7yPcwNF0qKi9zds/l0+13ZDiNc8dOKeQSfvE/WpFQeRGBkDbxk5xTCNpIz0rCR3xEDEA5/lT8Zwc/l2qIk+vH0py59sVBY9VbB/LNKy9s5pMd/angYXGOfpQAhHy9TTTwMZzml7UuAy+9ADDjkce2aVCSPmOfekZRn2780itzx070mA/g9Rke9CqF45I96XGVyTSAb2KhlBx/FxQMcAcnP4Ypu7b/hT17cn/GkbHPr6UgHLtYDIIJ6cUm3BzjvTs/Lxk/jTGyOQSPp3oATBd8AcAUVIMeWCoIz3Iop2EdKwwOKrMg8zcT+Zq3jIqvJGC/zdKsTBTgYNMk4Gc1Ez7HwGBUHFSqN2c0EkTHHJb9Kcp30x4m3H0HSnxIdox1oGPDYNSA84NMCkcHr7VJQSNbNR7iGGOnrUxHBNQFWJwKYyRuuR3oU8E0BTgDrikZMn3+tADhnIwM+1WhnaDtAx6VTR2QgD15zU7T8YUYz3qk7CYsjlhhCQPaoBCyyApxk881KGyRzTgxU0twHIhBORyf5UssbuhGV56etMJUurKSp7+9SZyMitETsVUQxAljzTmfcc/pUw2sScDNVX+8QKl6FJ3HFUcE+nvUS/LTwuaCoHSpC47dwO4PvQQMVAPlPXipUegCNMqzY6Zzging+2KVkBO7POKT8aBh0qRSR3qPzAuASPrQXVjgHmkIn81AnqT6U7cAuDxiq6mONgzd+mO1OkYSKHiYOvsaaAsQukg68jtU7lRYyZ5wwNZlvcJHKfM+UdM+laA/fW0qpkgjIwOpFWhHD3UZ/tG7G/axPUjI+7W14NjeO3vVcYberfXj/AAxWXJzrF3tXOVU/jgVseG3J+17mO0bMBhjHBrVvQzsaiJk1KOBVeMt+RqfrWKNCRX4xihiTjFNB2ikY9weaAE3EHBpwxmmby5+Yc+1GMUwJlbjinZ3DNQZxUqtQIetO70AZAIpA2W5GMUwHke9L1GBQuKkFMDzfxp4IvLu/k1XTFEplwZ4ScEEDG5fXtx61xsfhfXXYqNLvPQDyyK97CipghxnBzXZTxc4xta5zzoRbueMyeBNeW3WQ2alv7iyruH1FXtJ8B6xPMhniS1Tu0h5H4Dr3r1lYGZh8tTi1ckfLir+u1OxP1eCMjR9Gg0a1EMRLuwG+Qjlj/QVsJGTz0qZLZh1AqYQgCuSXNJ3ZqnGKsiDywabIpGMVb8oDvTWi49aXKxqaOa8QaNDrdgbeX5JVO6KT+63+BryO4XVPDmpbQWhuE43jofp617xJAWOcVm6hpdpfReVeW6SqOm4cj6GumhiHTXLJXRlVoqfvLc8BmjudQucKJJbiaTI6lmNeteHNJbRdDgsHxvTJYg5yxOT/AIVpWmgaZp0xltLSKKTGNwHIqW5KxgYUsx6Yp4rE+1SjFWQUKHs3zPcp3kEd1bS20ybopFKsp7g14ffeHhY3t3aGVRskZU3E5I7HHpjFe6GTkgoe3WuY8UeD4dfKzQ7YrvgFz0cehrPCV/ZycZbMMTS51eO6I9MhGveEYoL9RKJYjFKeucHAP1wAa8o1/wAO3GltLYTgeYjboWP/AC0X1/X869z0TRJNJ0qGwQhwpJaTOMmoNd8Nw61ZG2vosAcpKjDcn0NOliFSqO3wsJ0XOCvuj5ujRt+MdeMkcV7l4M1hNS8O2ylv31sixSA9eBgH6YrA134XeVEs2iyu5HEkEpzn3U/0rmre11XQL3JWe1uAM45XI/qK7Kyp4mn7r1OeDlQndo9l3gdRTVBLbh6V5d/afizU7hEs7iWRz0WOMBfqTjH516fbW8y28Ynb96FG9hwC2OT+deXVw7pfE0d1OsqmyOe8azT22hF7eMuVb5jjJAPf88fnWb4RiurmKC5ukYxKQys4/LFduIRKXRlDJnDZFEsGRlU59uKSnaNkc9TCKpWVWT26FZ2eRs5O30xTSuR3FS7GTGQcHvTtue1Ynaef+OGgtry3kMZZ3jIJJPY/T3pPDcsdxf28sG1GJxwPbnpXX6xoVrrMCxXUedpyrDII/Gq2m+HLTSTmBWZug3c4roU1ycp5M8FP6z7VbGqGz3GKeCahjjZVJPXPSnbjiuex6yYSMSevFIgznjrTXds48s4PenZwBiiw7jJML/jSAfL14pXyR8wJpSuABjtRYVxPlx1pRKuduRn0puDngUpQLyFWmkIYSMgck4o2yEgKufWlIbtS72VeOuKqwXE37cBuKJThsKQaZKHeIkAhxzVVIZiyysMN0Kn6+tAFnBWYIVPI4OOM1YVggyaiLMT71n6xq9votmLm6Y4J2qg+83rj6VNgL7Nk0CkTa8aSIQyOoZT6g04Kc9qQCjOKXIoweKZPKltC00zbEUZLUWGO6YqJIYYGcxRJGXO5iqgZPvVKbWoYWIW3vJcDOY7diKnsrxdQt/OjiljG4rtlQqcj60+ViTRZBDcd8UOm9eo4pqjk+/SnHLDg0rFDFYMMCn5zxmohEV5DDJ9KeVwOoosAj5AyK5DXfAlhrl213DJ9kuHPzlFyGPqR611xUsu0uB7g01YCGDBxjHQ1UJyg7xYpJSVmeJa/4buvDd4EkIkgbHlzAcE9wferHh7XJtGunlgjQmQAMGHX8fxr2G9sLfULZra7jSWBuobnkVzE/wAPdGcjy5Z4ADnCvn+dejTxcZQ5aqOKph5KXNA5rUfGWrzJ/orrbr0IjXczZ75POc+leg6M142jWhv23XZjBkJABJ7ZrO07wVptjMtysklxIp4aQjaPwHeugTBx+8BJHJzXPiJ05JRpo3oxmtZs5fxD4LsNamE5ke2m7mPnd7kGub8ReAo9P0OKfTfNuJoWPnAgEupA5A9sdPc16W6rnLMo9zS4UgjcCD1GeKinXqQa10RUqUZHgNhqFzpd6lxayeXMhwG/mKk1HULrVLtru8k8ydgBux29BXrOq+DtEvQ8/wBlXzgCQITsyf5Z96xrPQbKynjltdBlldTjNxIMDvkZru+uU/itqcrw89r6B8PNAls7ebVLpAr3ChYVPUJ1LfiQPyqj4vt1g8QzyuQiyqjbj/u7f/Za7BdQ1VuF0xVwcfNOMVz/AIgtL/V3VZ9LAkIKo4kBx3OfQfWuaniH7Xnl1NalFOnyo1PA5I0aVVZWQTEhgepIFYfizwfdz3LXOnW8cqO43RqcMuRjPPbNWdNGv6PbrZ22nWqxDBLbgST3LHPWugk1aWSylEdpMLgKcLjIz25qXVlGo5w6jVJOCjI4rV/AtzZtHNpoM8e0CSL+IHHUevOKyIb280hyyBoJORyDzx3FegxXWusgL20K5HOZBxSvDqFxuEi2ZJHBIzg/5wauOLdrTVyZYdXvF2IfCGtahrFnPJdRKI42ARwuA3XI96yvGzS/2ijAEQiIbfQHJyf5VfU6/ZRGOOKFowcKIdoAHt09f50skWpTHbfx2t1EVK7CADk47n8fz71hzrn5khV6TrUvZtmBpFvPf2e2EF5CxVQOO1dlonhuLTpPtMx3XGONwwE/+v7+1UY5JtPtRHZWEVqU24KuCCBnqep/+vVjS/EjSStFeph95O7OAB6UTqN7GOHwFOlLmerNfVAG+zx4GTKozn61S1OLMKrxzIMgduamkvoryaGOBg2x8n5eMfWkvXUzWaocM04/Tn+hrJnoGuxRTgD5ccc1WbG44pZpVBJZup4zUaSoec5qWikP4HpTlI6Y5poZetNluool3MCB6moKuSlgqFsE4GcY5qC2ujcRh2heI/3XGDVefVY4Y43TYzO+0ew7n8KnFwHO7aMEcUWHcsbs8c8UhPTBqMzKTgLzS7wFzs+btRYLiu/JCnnvSJHucMTjHakB5J24NJli3HT0FIC1vQDGQSf0ppCE9CBVYEntz6U/cW/OgZOuMZFGFP3s/gai38ckH8aUSjJUsOOozSsPQnG0kAk4z2p20Jg8496rGVV5JAHqTQ95E2VMiZ9N/J/D607EssY3vktgD8qKg+1RhBllH1opoVzovt9r8oVyQeAQQapPrFluZWeT6lMiuMt5H86Rd7YBGBn6UXcsi2oIdh+7B4P1q7WIudY1/prMAXYKecbTUn9uafgKZnHOB8h/pXHxMTZsxJLYPPfpUMDE8EnGRx/3zQiWztW1ywxzMwPb5Cf5VNFf20oOyTp7GuNA/cRnuSM1HOzKGKkg5HIPtVWDmO5+1QDAMwAzjINRf21p6jH2kZ6cAn+Vefyu39nR/MeW5568mqUk0ouMCRwC4z8x54oUULmPSW1zT8bjdgD0waRtb05htF1gnj7rf4V5zKxbAYkjLHn6CtGFjtkOTnJ/lV+zQudncLrFlECGnPTgbTzSjWbAEAT4J7FCP6VyczN58XzHp60mSXAJyN4OPxrJqw1Js6uXV7Nfm8xyc4+VCeaamu2juEAmz6lMDFYi9KrysQqYJ5PPvwapJMbdjqW1i0BAEh/BTTP7fsBkGY7h2CHpXM7iHK5OPn4rGklkMUjGRicbc57Zbiq5ULmZ3h16xbBWV89Qdhp0WtW3mt+9fP8Au8VxaOwtZCGOQODnpS3ksiw3DK7AjGCD04FK1ibs7dNctixGJO/8PWmnVbaTDoJlPTDLiuTV2KBtxyQOc/WtBmYRIQxB4702ikbyX6SDhZCR3xSPqUSA/K7EYyBismN28xhuOCOmfrTLgkz4JyNnepsNM2luVfojL3INVJ9Ztobr7MEkebIyqjgd6y2kfA+dvzqlF82rXDNy2wcnr1xRY0gk27nWpfAk/ITj0NH2wMDtjJx1+asQcWoA4+SobhmFuMMRyOhosZNtG098m/aYgT6FqE1FRIALfluMqcjj1rAR3N3GCzYCdM+1WQSdPLEnd5Oc987etIXMzUuNSWKZI3hDCR8bi3A78/lUq3/lEiNI8EZwDXMzswichj1Xv9atD5ohnn5gOaEOLubJugXKmNCWHfpU0dzMigwMqYOe5GawJiRApBIIK4qteSOsybXYYjY8HvjrV26jehajeSDXJVnkVhLkqydsdvzHNamn3qWlzcR7co0Ku3PzLyRjHcda5LSHeTUYWdmY/ZIjljnkqxNW7hiviDgkfuY+n1NAkdauuWnzf6wAY5IHP05pyeILZjgJJnPQ4z/OuNLFmhyScxg80/8AgJ77uv41Nxs7BteiUY8iTPrkYpBr1u2MoQDyCGBzzXI3jMIVO458p+c/SqUTMbbkk8KevfBqhHdNr0A2hUGW6AsMn/OKkTWI3Ukpt46FuteazyyRzxFJGUgEAqcY61Zinm8lT5r5DKM7j054pN2A7860pjV0hJBOPmOKVNZVpFXyjz1O4YFcbvZvPDMSAcAE/Wp7Un5Tk5CDH5CiLuDOtOuqjOFA+Trk55py60ZBkR859Rk1yN47JGSrFSc9DjsaW0kd101ndmZrRSxJzkkDk1YkzrjrLD+D6kNSNr7qCcAAcDLVy8zssUpViPlHQ/WqsLMbY/MebmQdewLAUMLnYHxG6oP3ZyQf4sVCfF115rKkWVHpLz/Kud3M1ipJJOcZJ+tZtuzfbm+Y8sB17ZpiudwfFt4pG1Cfff0/DFNh8b6kDsZYmkJJC78fL26jriuHvWb+04RuON44z71V1slIA6kq4XIYcHvRdodkz0VvHl8CzJFG6L6MP8KhX4iXRg3sYlK/e9Mf/qrjASGtlBIVg2QOh4aqerki9uVB+XYOO3PWnzNk2R6RD4znusmK4RsHadrDg4z0qK48XXUThnuxGgJBYttUnHT/ADivNvD7MqTYJHQ8H3NWNTJlvLaOQl02sdrcjODzU875rFWVjpJPibKpmjjZ5ZYzgbS2GGOo/wA/lWFH8UddvbuZFSOJEKj5vXnufX+lULCCI4JiQks2TtHPNYtqcs+ecuf6f4n860TM+Z3PRdM8UaprlsXt7+K1lTh42TJU56nJ/AfSrBudeYDzdaMTxk5KwBg47cZ44rj9E+XUnReFaMFgOh+UdfzP51Xvry6iMgjuZkHmHhXI71DbuadDvYL++tc/bb2KRScISmGb6++Ktrq7yYKSKcexrz7V55jekGWTA3kfMeCAcVoaG7tpClmYnJ5J9hUva4k9Tpb7XLm2VH3q2W2gZ61jHxRqlxeEyCCGJfu5c8ngcjNUtQJYSAkkFOh+tVZv+PRP+ug/lTG3Y6qLWb+QguYUyRkDPH15pZrmSd5BOEMQIBEicfX+Vc/YkvbBmOW3kZPXFPaWRr51aRiMRnBNJu2xVkb8NysZAiMSqw+UKMZp8dzdtcsxkJQLt2YGM56/59KyZQFihAGAgfbjt16VDYzSvYRlpHYktklie5qHJgkdAbm6VwFKBDktwc1Gb+6x8zhSDisK5uJvMgXzpMFwCNx5GGqSCR2t1y7H97jk9s9KroK5qpfXbwEuQSDjpwR6ioDLcs8W24ljUHO0/Nu+tQ7mWPAYgZ7H2pIyTBCSTkqMn16Uhl57ubHyyKTnBGM4pftMhzuYEn2rGDsYVyxPTvUqk+p65pAaLXEwAK8+uccVCbyZVJJOM8nHP5VTLsZyCx+8O/8As1xvjKeZZzGssgQx8qGOD+FVBXdgbsjupL65BYJzgjtTzdyKoJducdMVygZho2nEEgtCmSD1+SrzMQq4JGJF/nSasCNwXkvIIPHoQaYby784LtAjC53+prMkJEpAOB6CobKR3jiLOzHA6nPamgNn7TdY5fOOuBTDeXJJxJ8n05rGv2ZRA6sQ21zkHnOBVV5H8tTvbJBJOevSkB0FxcXZjl2OYztO1twx9f6/hVDQdXu9S01Zp3w3mMqsrj5gDjPFZF9I66ZcFXYHyT0P1rN8LOw8P3mGIw7Ec9Plp9CXvY7lL15GdA7ZRsEFuvGaha7lDEbjjrwawIFUOxCgHK9veras3k5ycgKOvsKkZp/aJdgVpG3kA8MenpWRqen296bicxGe4EecPI3zd8daAzbGG4457+9R3BOyQZ7U0K5a0ie6TTIVdhEnQbZCRjtjNSRanJLdtAJmUqu8Ak/MDwCT07VzGnswilXJ2rMcDPA4FayE+SBnggZH0HFV5Bc2Tc3LuqbihByw3Zxx0olu5o4secAP724GufmZtsvzHovf2WqUEjlsF2Ix0J/3aLDOhTUvMmKLMeejEZGc9M1Y+1SeYoVwUbqQ+NuPasGPhBjvmpYADcR8D7oP6ipTuBqw6km6VROztGTHINxwGp63DSy/63IIwOvUHGf8+lUyqibG0YGe30qvdkrAxU4PHIobsBqSzmPJ3lieCvX86ha83xmRZMzGMbUDHGf896yCSEGDjtxTrIk28eTn92P50h3N2K4XyAZJQJOpG49fxpWmQHmU4PA5/lWeqqSOB0Pb2qG+H7iI9xcR4PpzSA1crk8DpwevH1pXeGJGMjqNiljgZ/z2qnIzCZgGIG0cZpjf8fEp77sfrRcZouwji3MUHy5PPam/ZkmRA6RuCOlUWdvLzuOee/tT4pZPssvzt1I6+1AFqAQpHiLy1Qdg3SmPLbxsY2A5GSQM/nWTdMwhUBiAcZGfcVJYszW8eSTgtjJ6fNiq6CNcPHuCgozA96cDv/5aIBwQff8Az/OshGbe/J646/SpUdju+Y9T3pDuazQxu3zKMgfjUUtrBLhJADtIbBzzj1rHjlk8x/3jfdPf/YJpljPK6Sl5XYh8DLE44FK+orm/5SIDtUBQRgelTLFGchlHr16VlEnZHyelBkfP32+96+wpsDSe3hRBtC8URxIrkuqjA45rImkf9+N7YwOM/wC0KtbmMD5J4I70+gGyiRhfuL0zyOlO2W643pGwz3ArBumYlQWJBZe/vVe6kcdHYfMOhpSHY6TZbMw+5uDdMVR1CGzhiyYo2ZuFx1HuKz5Cdh57VTt5JHlKu7MoUYBOR940kriNWC8jhgLLGzCIY2KvP4VZnjSXbITjawcHOMEVnQkrtwSMmLOO+XGasMT9kfk8SsBQhgGZZMea592NWkgd+RM3zDgg5HWsXUmPl9TyCK0LF2FjEQxzj1+tNrS41uaS27KvEkn4tnNNeAkHMrnPQGkVm+zZ3HOwd/aqjSObiEF2IKEkZ/2hUFFlrRAwmJYMARwe30pxgPZ2AxVZXZiSzE/vCOT2yaaZHAbDsOOx+lK4i4lvkbDI2e+eaUwscASN25rBuJJBfMQ7DIUcHtzUF3PMsJxLIMoCcMf7y/41VhHSFMZ3SMO3LVNHCQOGYg/7VcnDLJtY72yXAJz15rQdmSRgrFQW7HHeosUmbojRclyQM9WNJ5UIBAcMQdp5HX0rKYliGJyeOTRIAtywAwMsMD60mO5fuPsSkLLLGj8kbm6DvSRS6eDHtlVlbhdvTPtXMagA14pIBOB1+prZ0+KN107eitudAcjOR6VpayC5F4j1KO32wwBXLgDKnP4/l/Os3TDA92sZTAXBBC8H/OKuTwQi+kAijwqAgbRx97/AVe0GKN7xg8asNy9Rn+Ck1oI2X+xnBBjPHQc5orTMMWJF8tMZ6bR6Cism7DP/2Q==;movable=0;resizable=0;rotatable=0;deletable=0;editable=0;connectable=0;textOpacity=10;fontStyle=0;opacity=30;" vertex="1" parent="1">
          <mxGeometry x="-850" width="1466.67" height="1100" as="geometry" />
        </mxCell>
        <mxCell id="NLubATRqbXC5h6agIZ78-2" value="&lt;font style=&quot;font-size: 70px;&quot;&gt;$$Obj_A \backslash Obj_B$$&amp;nbsp;&amp;nbsp;&lt;/font&gt;" style="text;html=1;align=center;verticalAlign=middle;resizable=0;points=[];autosize=1;strokeColor=none;fillColor=none;fontSize=70;" vertex="1" parent="1">
          <mxGeometry x="-525" y="310" width="970" height="90" as="geometry" />
        </mxCell>
        <mxCell id="NLubATRqbXC5h6agIZ78-5" value="SET" style="rounded=0;whiteSpace=wrap;html=1;fontSize=44;fillColor=none;strokeWidth=3;" vertex="1" parent="1">
          <mxGeometry x="-440" y="530" width="120" height="60" as="geometry" />
        </mxCell>
        <mxCell id="NLubATRqbXC5h6agIZ78-6" value="SET" style="rounded=0;whiteSpace=wrap;html=1;fontSize=44;fillColor=none;strokeWidth=3;" vertex="1" parent="1">
          <mxGeometry x="270" y="530" width="120" height="60" as="geometry" />
        </mxCell>
        <mxCell id="NLubATRqbXC5h6agIZ78-23" style="edgeStyle=orthogonalEdgeStyle;curved=1;orthogonalLoop=1;jettySize=auto;html=1;fontSize=70;strokeWidth=3;" edge="1" parent="1" source="NLubATRqbXC5h6agIZ78-7" target="NLubATRqbXC5h6agIZ78-16">
          <mxGeometry relative="1" as="geometry" />
        </mxCell>
        <mxCell id="NLubATRqbXC5h6agIZ78-24" style="edgeStyle=orthogonalEdgeStyle;curved=1;orthogonalLoop=1;jettySize=auto;html=1;fontSize=70;strokeWidth=3;entryX=0.25;entryY=0;entryDx=0;entryDy=0;" edge="1" parent="1" target="NLubATRqbXC5h6agIZ78-11">
          <mxGeometry relative="1" as="geometry">
            <mxPoint x="-65" y="685" as="sourcePoint" />
            <mxPoint x="-214.9411764705883" y="880" as="targetPoint" />
          </mxGeometry>
        </mxCell>
        <mxCell id="NLubATRqbXC5h6agIZ78-7" value="$${\lambda_\Delta}$$" style="text;html=1;strokeColor=none;fillColor=none;align=center;verticalAlign=middle;whiteSpace=wrap;rounded=0;fontSize=70;" vertex="1" parent="1">
          <mxGeometry x="-50" y="670" width="60" height="30" as="geometry" />
        </mxCell>
        <mxCell id="NLubATRqbXC5h6agIZ78-11" value="$${\lambda}_{evokeA}$$" style="text;html=1;strokeColor=none;fillColor=none;align=center;verticalAlign=middle;whiteSpace=wrap;rounded=0;fontSize=70;" vertex="1" parent="1">
          <mxGeometry x="-280" y="880" width="60" height="30" as="geometry" />
        </mxCell>
        <mxCell id="NLubATRqbXC5h6agIZ78-16" value="$${\lambda}_{evokeB}$$" style="text;html=1;strokeColor=none;fillColor=none;align=center;verticalAlign=middle;whiteSpace=wrap;rounded=0;fontSize=70;" vertex="1" parent="1">
          <mxGeometry x="180" y="880" width="60" height="30" as="geometry" />
        </mxCell>
        <mxCell id="NLubATRqbXC5h6agIZ78-17" value="" style="endArrow=none;html=1;fontSize=70;curved=1;strokeWidth=3;" edge="1" parent="1">
          <mxGeometry width="50" height="50" relative="1" as="geometry">
            <mxPoint x="-340" y="530" as="sourcePoint" />
            <mxPoint x="-174" y="351" as="targetPoint" />
            <Array as="points">
              <mxPoint x="-340" y="436" />
              <mxPoint x="-204" y="436" />
              <mxPoint x="-150" y="390" />
            </Array>
          </mxGeometry>
        </mxCell>
        <mxCell id="NLubATRqbXC5h6agIZ78-18" value="" style="endArrow=none;html=1;fontSize=70;curved=1;strokeWidth=3;edgeStyle=orthogonalEdgeStyle;" edge="1" parent="1">
          <mxGeometry width="50" height="50" relative="1" as="geometry">
            <mxPoint x="308" y="529" as="sourcePoint" />
            <mxPoint x="108.05882352941171" y="369" as="targetPoint" />
            <Array as="points">
              <mxPoint x="308" y="430" />
              <mxPoint x="108" y="430" />
            </Array>
          </mxGeometry>
        </mxCell>
        <mxCell id="NLubATRqbXC5h6agIZ78-19" value="" style="endArrow=none;dashed=1;html=1;fontSize=70;strokeWidth=3;curved=1;entryX=0.521;entryY=0.444;entryDx=0;entryDy=0;entryPerimeter=0;" edge="1" parent="1">
          <mxGeometry width="50" height="50" relative="1" as="geometry">
            <mxPoint x="-20" y="659" as="sourcePoint" />
            <mxPoint x="-19.63000000000011" y="358.9599999999998" as="targetPoint" />
            <Array as="points">
              <mxPoint x="-20" y="699" />
              <mxPoint x="-20" y="539" />
            </Array>
          </mxGeometry>
        </mxCell>
      </root>
    </mxGraphModel>
  </diagram>
</mxfile>
